<svg width="15" height="16" viewBox="0 0 15 16" fill="none" xmlns="http://www.w3.org/2000/svg">
<path d="M0.635949 1.63619L-0.0711583 0.929086L0.635949 1.63619ZM2.05016 1.63619L1.34306 2.3433L1.34306 2.3433L2.05016 1.63619ZM0.635949 3.05041L1.34306 2.3433L1.34306 2.3433L0.635949 3.05041ZM5.5857 8.00015L6.2928 8.70726C6.68333 8.31674 6.68333 7.68357 6.2928 7.29305L5.5857 8.00015ZM0.635949 12.9499L1.34306 13.657L0.635949 12.9499ZM0.635949 14.3641L-0.0711588 15.0712L-0.0711579 15.0712L0.635949 14.3641ZM2.05016 14.3641L2.75727 15.0712L2.05016 14.3641ZM6.99991 9.41437L7.70702 8.70726C7.51948 8.51972 7.26513 8.41437 6.99991 8.41437C6.73469 8.41437 6.48034 8.51972 6.2928 8.70726L6.99991 9.41437ZM11.9497 14.3641L11.2425 15.0712L11.9497 14.3641ZM13.3639 14.3641L14.071 15.0712L14.071 15.0712L13.3639 14.3641ZM13.3639 12.9499L14.071 12.2428L13.3639 12.9499ZM8.41412 8.00015L7.70702 7.29305C7.51948 7.48058 7.41412 7.73494 7.41412 8.00015C7.41412 8.26537 7.51948 8.51972 7.70702 8.70726L8.41412 8.00015ZM13.3639 3.05041L14.071 3.75751L14.071 3.75751L13.3639 3.05041ZM13.3639 1.63619L14.071 0.929086L14.071 0.929085L13.3639 1.63619ZM11.9497 1.63619L11.2425 0.929085V0.929086L11.9497 1.63619ZM6.99991 6.58594L6.2928 7.29305C6.68333 7.68357 7.31649 7.68357 7.70702 7.29305L6.99991 6.58594ZM1.34306 2.3433H1.34306L2.75727 0.929086C1.97622 0.148037 0.70989 0.148037 -0.0711582 0.929086L1.34306 2.3433ZM1.34306 2.3433L1.34306 2.3433L-0.0711583 0.929086C-0.852207 1.71013 -0.852207 2.97646 -0.0711582 3.75751L1.34306 2.3433ZM6.2928 7.29305L1.34306 2.3433L-0.0711582 3.75751L4.87859 8.70726L6.2928 7.29305ZM1.34306 13.657L6.2928 8.70726L4.87859 7.29305L-0.0711582 12.2428L1.34306 13.657ZM1.34306 13.657L1.34306 13.657L-0.0711582 12.2428C-0.852206 13.0238 -0.852207 14.2902 -0.0711588 15.0712L1.34306 13.657ZM1.34306 13.657L1.34306 13.657L-0.0711579 15.0712C0.70989 15.8523 1.97622 15.8523 2.75727 15.0712L1.34306 13.657ZM6.2928 8.70726L1.34306 13.657L2.75727 15.0712L7.70702 10.1215L6.2928 8.70726ZM12.6568 13.657L7.70702 8.70726L6.2928 10.1215L11.2425 15.0712L12.6568 13.657ZM12.6568 13.657L12.6568 13.657L11.2425 15.0712C12.0236 15.8523 13.2899 15.8523 14.071 15.0712L12.6568 13.657ZM12.6568 13.657L12.6568 13.657L14.071 15.0712C14.852 14.2902 14.852 13.0238 14.071 12.2428L12.6568 13.657ZM7.70702 8.70726L12.6568 13.657L14.071 12.2428L9.12123 7.29305L7.70702 8.70726ZM12.6568 2.3433L7.70702 7.29305L9.12123 8.70726L14.071 3.75751L12.6568 2.3433ZM12.6568 2.3433V2.3433L14.071 3.75751C14.852 2.97646 14.852 1.71013 14.071 0.929086L12.6568 2.3433ZM12.6568 2.3433H12.6568L14.071 0.929085C13.2899 0.148038 12.0236 0.148038 11.2425 0.929085L12.6568 2.3433ZM7.70702 7.29305L12.6568 2.3433L11.2425 0.929086L6.2928 5.87883L7.70702 7.29305ZM1.34306 2.3433L6.2928 7.29305L7.70702 5.87883L2.75727 0.929086L1.34306 2.3433Z" fill="#252C32" fill-opacity="0.2"/>
</svg>

