<svg width="1440" height="627" viewBox="0 0 1440 627" fill="none" xmlns="http://www.w3.org/2000/svg">
<rect width="1440" height="627" fill="#ff4278"/>
<ellipse cx="422.5" cy="313" rx="186.5" ry="183" fill="url(#paint0_linear)"/>
<path fill-rule="evenodd" clip-rule="evenodd" d="M377.455 176.28C377.455 176.433 377.26 176.559 377.021 176.559C376.458 176.559 375.205 177.804 375.205 178.364C375.205 178.602 375.078 178.796 374.923 178.796C374.769 178.796 374.642 179.299 374.642 179.914C374.642 180.529 374.515 181.033 374.361 181.033C374.206 181.033 374.079 181.662 374.079 182.431C374.079 183.199 374.206 183.829 374.361 183.829C374.517 183.829 374.642 184.574 374.642 185.506C374.642 186.438 374.767 187.184 374.923 187.184C375.078 187.184 375.205 187.687 375.205 188.302C375.205 188.917 375.331 189.42 375.486 189.42C375.641 189.42 375.767 189.924 375.767 190.539C375.767 191.154 375.894 191.657 376.049 191.657C376.203 191.657 376.33 192.16 376.33 192.776C376.33 193.391 376.457 193.894 376.611 193.894C376.766 193.894 376.893 194.271 376.893 194.733C376.893 195.194 377.019 195.571 377.174 195.571C377.329 195.571 377.455 195.949 377.455 196.41C377.455 196.872 377.582 197.249 377.737 197.249C377.891 197.249 378.018 197.752 378.018 198.367C378.018 198.982 378.145 199.486 378.299 199.486C378.454 199.486 378.581 199.863 378.581 200.324C378.581 200.786 378.707 201.163 378.862 201.163C379.017 201.163 379.143 201.541 379.143 202.002C379.143 202.463 379.27 202.841 379.425 202.841C379.579 202.841 379.706 203.218 379.706 203.68C379.706 204.141 379.832 204.518 379.987 204.518C380.142 204.518 380.269 205.022 380.269 205.637C380.269 206.252 380.395 206.755 380.55 206.755C380.705 206.755 380.831 207.258 380.831 207.873C380.831 208.489 380.958 208.992 381.113 208.992C381.267 208.992 381.394 209.495 381.394 210.11C381.394 210.725 381.52 211.229 381.675 211.229C381.832 211.229 381.957 211.974 381.957 212.906C381.957 213.838 382.081 214.584 382.238 214.584C382.393 214.584 382.519 215.087 382.519 215.702C382.519 216.317 382.646 216.82 382.801 216.82C382.955 216.82 383.082 217.449 383.082 218.218C383.082 218.987 383.208 219.616 383.363 219.616C383.52 219.616 383.645 220.362 383.645 221.294C383.645 222.226 383.769 222.971 383.926 222.971C384.081 222.971 384.207 223.6 384.207 224.369C384.207 225.138 384.334 225.767 384.488 225.767C384.643 225.767 384.77 226.396 384.77 227.165C384.77 227.934 384.896 228.563 385.051 228.563C385.212 228.563 385.332 229.402 385.332 230.52C385.332 231.639 385.453 232.478 385.614 232.478C385.769 232.478 385.895 232.729 385.895 233.037C385.895 233.344 385.769 233.596 385.614 233.596C385.459 233.596 385.332 233.794 385.332 234.035C385.332 235.393 382.714 235.772 381.522 234.587C381.142 234.21 380.831 233.734 380.831 233.53C380.831 233.327 380.578 232.979 380.269 232.757C379.959 232.535 379.706 232.13 379.706 231.857C379.706 231.583 379.579 231.359 379.425 231.359C379.27 231.359 379.143 231.135 379.143 230.862C379.143 230.588 378.89 230.183 378.581 229.961C378.271 229.739 378.018 229.362 378.018 229.122C378.018 228.883 377.765 228.505 377.455 228.284C377.146 228.062 376.893 227.657 376.893 227.383C376.893 227.11 376.766 226.886 376.611 226.886C376.457 226.886 376.33 226.662 376.33 226.388C376.33 226.115 376.077 225.709 375.767 225.488C375.458 225.266 375.205 224.889 375.205 224.649C375.205 224.409 374.951 224.032 374.642 223.81C374.332 223.588 374.079 223.211 374.079 222.971C374.079 222.732 373.826 222.354 373.517 222.133C373.207 221.911 372.954 221.533 372.954 221.294C372.954 221.054 372.701 220.677 372.391 220.455C372.082 220.233 371.829 219.856 371.829 219.616C371.829 219.377 371.575 218.999 371.266 218.778C370.957 218.556 370.703 218.178 370.703 217.939C370.703 217.699 370.45 217.322 370.141 217.1C369.831 216.878 369.578 216.523 369.578 216.312C369.578 216.1 369.198 215.574 368.734 215.143C368.27 214.712 367.89 214.186 367.89 213.974C367.89 213.762 367.637 213.407 367.327 213.186C367.018 212.964 366.765 212.609 366.765 212.397C366.765 212.186 366.385 211.659 365.921 211.229C365.457 210.798 365.077 210.272 365.077 210.06C365.077 209.848 364.824 209.493 364.514 209.271C364.205 209.05 363.951 208.695 363.951 208.483C363.951 208.271 363.572 207.745 363.107 207.314C362.643 206.883 362.263 206.357 362.263 206.146C362.263 205.934 362.01 205.579 361.701 205.357C361.391 205.135 361.138 204.758 361.138 204.518C361.138 204.279 360.885 203.901 360.575 203.68C360.266 203.458 360.013 203.08 360.013 202.841C360.013 202.601 359.76 202.224 359.45 202.002C359.141 201.78 358.887 201.403 358.887 201.163C358.887 200.924 358.634 200.546 358.325 200.324C358.015 200.103 357.762 199.725 357.762 199.486C357.762 199.246 357.509 198.869 357.199 198.647C356.89 198.425 356.637 198.048 356.637 197.808C356.637 197.569 356.384 197.191 356.074 196.969C355.765 196.748 355.512 196.343 355.512 196.069C355.512 195.795 355.385 195.571 355.23 195.571C355.075 195.571 354.949 195.347 354.949 195.074C354.949 194.8 354.696 194.395 354.386 194.173C354.077 193.952 353.824 193.574 353.824 193.335C353.824 193.095 353.57 192.718 353.261 192.496C352.951 192.274 352.698 191.869 352.698 191.595C352.698 191.322 352.572 191.098 352.417 191.098C352.262 191.098 352.136 190.874 352.136 190.601C352.136 190.327 351.882 189.922 351.573 189.7C351.263 189.478 351.01 189.101 351.01 188.861C351.01 188.622 350.757 188.244 350.448 188.022C350.138 187.801 349.885 187.454 349.885 187.252C349.885 186.743 348.03 184.947 347.503 184.947C347.266 184.947 347.072 184.821 347.072 184.667C347.072 184.514 346.818 184.388 346.509 184.388C346.199 184.388 345.946 184.262 345.946 184.108C345.946 183.954 345.44 183.829 344.821 183.829C344.202 183.829 343.696 183.954 343.696 184.108C343.696 184.262 343.316 184.388 342.852 184.388C342.387 184.388 342.008 184.514 342.008 184.667C342.008 184.821 341.814 184.947 341.576 184.947C341.016 184.947 339.194 186.758 339.194 187.314C339.194 187.55 339.068 187.743 338.913 187.743C338.758 187.743 338.632 187.994 338.632 188.302C338.632 188.61 338.505 188.861 338.35 188.861C338.19 188.861 338.069 189.7 338.069 190.818C338.069 191.937 338.19 192.776 338.35 192.776C338.505 192.776 338.632 193.153 338.632 193.614C338.632 194.076 338.758 194.453 338.913 194.453C339.068 194.453 339.194 194.705 339.194 195.012C339.194 195.32 339.321 195.571 339.476 195.571C339.63 195.571 339.757 195.823 339.757 196.131C339.757 196.438 339.884 196.69 340.038 196.69C340.193 196.69 340.32 196.914 340.32 197.187C340.32 197.461 340.573 197.866 340.882 198.088C341.192 198.309 341.445 198.715 341.445 198.988C341.445 199.262 341.572 199.486 341.726 199.486C341.881 199.486 342.008 199.737 342.008 200.045C342.008 200.352 342.134 200.604 342.289 200.604C342.444 200.604 342.57 200.828 342.57 201.101C342.57 201.375 342.824 201.78 343.133 202.002C343.442 202.224 343.696 202.629 343.696 202.903C343.696 203.176 343.822 203.4 343.977 203.4C344.132 203.4 344.258 203.652 344.258 203.959C344.258 204.267 344.385 204.518 344.54 204.518C344.694 204.518 344.821 204.742 344.821 205.016C344.821 205.289 345.074 205.695 345.384 205.916C345.693 206.138 345.946 206.543 345.946 206.817C345.946 207.09 346.073 207.314 346.228 207.314C346.382 207.314 346.509 207.566 346.509 207.873C346.509 208.181 346.636 208.433 346.79 208.433C346.945 208.433 347.072 208.684 347.072 208.992C347.072 209.299 347.198 209.551 347.353 209.551C347.508 209.551 347.634 209.803 347.634 210.11C347.634 210.418 347.761 210.669 347.916 210.669C348.07 210.669 348.197 210.921 348.197 211.229C348.197 211.536 348.324 211.788 348.478 211.788C348.633 211.788 348.76 212.039 348.76 212.347C348.76 212.654 348.886 212.906 349.041 212.906C349.196 212.906 349.322 213.158 349.322 213.465C349.322 213.773 349.449 214.024 349.604 214.024C349.758 214.024 349.885 214.248 349.885 214.522C349.885 214.796 350.138 215.201 350.448 215.422C350.757 215.644 351.01 216.049 351.01 216.323C351.01 216.596 351.137 216.82 351.292 216.82C351.446 216.82 351.573 217.072 351.573 217.38C351.573 217.687 351.699 217.939 351.854 217.939C352.009 217.939 352.136 218.163 352.136 218.436C352.136 218.71 352.389 219.115 352.698 219.337C353.008 219.558 353.261 219.964 353.261 220.237C353.261 220.511 353.387 220.735 353.542 220.735C353.697 220.735 353.824 220.959 353.824 221.232C353.824 221.506 354.077 221.911 354.386 222.133C354.696 222.354 354.949 222.759 354.949 223.033C354.949 223.307 355.075 223.531 355.23 223.531C355.385 223.531 355.512 223.755 355.512 224.028C355.512 224.302 355.765 224.707 356.074 224.929C356.384 225.15 356.637 225.528 356.637 225.767C356.637 226.007 356.89 226.384 357.199 226.606C357.509 226.828 357.762 227.205 357.762 227.445C357.762 227.684 358.015 228.062 358.325 228.284C358.634 228.505 358.887 228.883 358.887 229.122C358.887 229.362 359.141 229.739 359.45 229.961C359.76 230.183 360.013 230.538 360.013 230.75C360.013 230.961 360.393 231.488 360.857 231.918C361.321 232.349 361.701 232.875 361.701 233.087C361.701 233.299 361.954 233.654 362.263 233.875C362.573 234.097 362.826 234.502 362.826 234.776C362.826 235.05 362.953 235.273 363.107 235.273C363.262 235.273 363.389 235.497 363.389 235.771C363.389 236.045 363.642 236.45 363.951 236.671C364.261 236.893 364.514 237.298 364.514 237.572C364.514 237.845 364.641 238.069 364.795 238.069C364.95 238.069 365.077 238.321 365.077 238.629C365.077 238.936 365.203 239.188 365.358 239.188C365.513 239.188 365.639 239.439 365.639 239.747C365.639 240.054 365.766 240.306 365.921 240.306C366.368 240.306 366.263 243.361 365.8 243.821C365.343 244.275 363.951 244.365 363.951 243.941C363.951 243.787 363.698 243.661 363.389 243.661C363.079 243.661 362.826 243.535 362.826 243.382C362.826 243.228 362.573 243.102 362.263 243.102C361.954 243.102 361.701 242.976 361.701 242.822C361.701 242.669 361.475 242.543 361.2 242.543C360.925 242.543 360.517 242.291 360.294 241.984C360.071 241.676 359.714 241.424 359.501 241.424C359.288 241.424 358.758 241.047 358.325 240.586C357.891 240.124 357.389 239.747 357.209 239.747C357.029 239.747 356.265 239.118 355.512 238.349C354.758 237.58 354 236.951 353.828 236.951C353.656 236.951 352.641 236.07 351.573 234.994C350.505 233.917 349.492 233.037 349.322 233.037C349.153 233.037 348.14 232.156 347.072 231.08C346.003 230.003 344.992 229.122 344.824 229.122C344.656 229.122 343.388 227.99 342.008 226.606C340.627 225.222 339.359 224.09 339.19 224.09C339.02 224.09 338.136 223.335 337.225 222.412C336.314 221.49 335.429 220.735 335.259 220.735C335.089 220.735 333.948 219.728 332.724 218.498C331.499 217.268 330.353 216.261 330.176 216.261C329.999 216.261 329.5 215.884 329.066 215.422C328.633 214.961 328.127 214.584 327.941 214.584C327.756 214.584 327.249 214.206 326.816 213.745C326.382 213.284 325.825 212.906 325.578 212.906C325.33 212.906 325.128 212.78 325.128 212.627C325.128 212.473 324.748 212.347 324.284 212.347C323.82 212.347 323.44 212.221 323.44 212.067C323.44 211.904 322.502 211.788 321.189 211.788C319.876 211.788 318.939 211.904 318.939 212.067C318.939 212.221 318.743 212.347 318.504 212.347C317.972 212.347 316.688 213.58 316.688 214.09C316.688 214.293 316.435 214.642 316.125 214.863C315.795 215.1 315.563 215.587 315.563 216.043C315.563 216.471 315.436 216.82 315.281 216.82C315.127 216.82 315 217.324 315 217.939C315 218.554 315.127 219.057 315.281 219.057C315.436 219.057 315.563 219.435 315.563 219.896C315.563 220.357 315.689 220.735 315.844 220.735C315.999 220.735 316.125 220.986 316.125 221.294C316.125 221.601 316.252 221.853 316.407 221.853C316.561 221.853 316.688 222.042 316.688 222.274C316.688 222.737 332.547 238.629 333.008 238.629C333.166 238.629 336.203 241.522 339.757 245.059C343.311 248.596 346.411 251.49 346.645 251.49C346.88 251.49 347.072 251.616 347.072 251.769C347.072 251.923 347.451 252.049 347.916 252.049C348.38 252.049 348.76 252.175 348.76 252.329C348.76 252.482 349.139 252.608 349.604 252.608C350.068 252.608 350.448 252.734 350.448 252.888C350.448 253.042 350.701 253.167 351.01 253.167C351.32 253.167 351.573 253.293 351.573 253.447C351.573 253.601 351.953 253.727 352.417 253.727C352.881 253.727 353.261 253.852 353.261 254.006C353.261 254.16 353.641 254.286 354.105 254.286C354.569 254.286 354.949 254.412 354.949 254.565C354.949 254.719 355.455 254.845 356.074 254.845C356.693 254.845 357.199 254.971 357.199 255.124C357.199 255.278 357.453 255.404 357.762 255.404C358.072 255.404 358.325 255.278 358.325 255.124C358.325 254.971 358.578 254.845 358.887 254.845C359.197 254.845 359.45 254.719 359.45 254.565C359.45 254.412 359.83 254.286 360.294 254.286C360.758 254.286 361.138 254.16 361.138 254.006C361.138 253.852 361.391 253.727 361.701 253.727C362.01 253.727 362.263 253.601 362.263 253.447C362.263 253.293 362.77 253.167 363.389 253.167C364.008 253.167 364.514 253.042 364.514 252.888C364.514 252.734 364.894 252.608 365.358 252.608C365.822 252.608 366.202 252.482 366.202 252.329C366.202 252.175 366.582 252.049 367.046 252.049C367.51 252.049 367.89 251.923 367.89 251.769C367.89 251.616 368.27 251.49 368.734 251.49C369.198 251.49 369.578 251.364 369.578 251.21C369.578 251.056 369.958 250.931 370.422 250.931C370.886 250.931 371.266 250.805 371.266 250.651C371.266 250.478 372.766 250.371 375.205 250.371C377.643 250.371 379.143 250.265 379.143 250.092C379.143 249.936 379.894 249.812 380.831 249.812C381.769 249.812 382.519 249.688 382.519 249.533C382.519 249.367 383.551 249.253 385.051 249.253C386.551 249.253 387.583 249.139 387.583 248.973C387.583 248.82 388.09 248.694 388.708 248.694C389.327 248.694 389.834 248.568 389.834 248.414C389.834 247.985 391.791 248.082 392.245 248.534C392.466 248.754 392.647 249.121 392.647 249.349C392.647 249.578 392.805 249.839 392.999 249.929C393.28 250.059 393.28 250.125 392.999 250.255C392.805 250.345 392.647 250.659 392.647 250.954C392.647 251.249 392.52 251.49 392.366 251.49C392.211 251.49 392.084 251.682 392.084 251.916C392.084 252.471 389.696 254.845 389.138 254.845C388.902 254.845 388.708 254.971 388.708 255.124C388.708 255.278 388.329 255.404 387.864 255.404C387.4 255.404 387.02 255.53 387.02 255.684C387.02 255.837 386.514 255.963 385.895 255.963C385.276 255.963 384.77 256.089 384.77 256.243C384.77 256.397 384.263 256.522 383.645 256.522C383.026 256.522 382.519 256.648 382.519 256.802C382.519 256.956 382.013 257.082 381.394 257.082C380.775 257.082 380.269 257.207 380.269 257.361C380.269 257.515 380.015 257.641 379.706 257.641C378.857 257.641 379.024 258.38 380.119 259.467C380.718 260.063 381.368 260.437 381.807 260.437C382.198 260.437 382.519 260.563 382.519 260.716C382.519 260.87 382.899 260.996 383.363 260.996C383.827 260.996 384.207 261.122 384.207 261.275C384.207 261.429 384.84 261.555 385.614 261.555C386.387 261.555 387.02 261.681 387.02 261.835C387.02 261.994 387.864 262.114 388.99 262.114C390.115 262.114 390.959 262.234 390.959 262.394C390.959 262.557 391.897 262.673 393.21 262.673C394.523 262.673 395.46 262.79 395.46 262.953C395.46 263.116 396.398 263.233 397.711 263.233C399.024 263.233 399.962 263.349 399.962 263.512C399.962 263.68 401.087 263.792 402.775 263.792C404.463 263.792 405.588 263.904 405.588 264.071C405.588 264.231 406.432 264.351 407.558 264.351C408.683 264.351 409.527 264.471 409.527 264.631C409.527 264.784 409.722 264.91 409.962 264.91C410.201 264.91 410.707 265.219 411.087 265.597C411.618 266.124 411.777 266.577 411.777 267.554C411.777 268.253 411.651 268.824 411.496 268.824C411.341 268.824 411.215 269.076 411.215 269.384C411.215 269.85 411.027 269.943 410.09 269.943C409.471 269.943 408.964 270.069 408.964 270.222C408.964 270.378 408.214 270.502 407.276 270.502C406.339 270.502 405.588 270.378 405.588 270.222C405.588 270.047 403.807 269.943 400.806 269.943C397.805 269.943 396.023 269.839 396.023 269.663C396.023 269.491 394.616 269.384 392.366 269.384C390.115 269.384 388.708 269.491 388.708 269.663C388.708 269.817 388.455 269.943 388.146 269.943C387.822 269.943 387.583 270.129 387.583 270.382C387.583 270.947 388.261 271.62 388.829 271.62C389.072 271.62 389.271 271.746 389.271 271.9C389.271 272.054 389.651 272.18 390.115 272.18C390.579 272.18 390.959 272.305 390.959 272.459C390.959 272.613 391.339 272.739 391.803 272.739C392.267 272.739 392.647 272.865 392.647 273.018C392.647 273.172 393.027 273.298 393.491 273.298C393.955 273.298 394.335 273.424 394.335 273.578C394.335 273.731 394.715 273.857 395.179 273.857C395.643 273.857 396.023 273.983 396.023 274.137C396.023 274.29 396.276 274.416 396.586 274.416C396.895 274.416 397.148 274.542 397.148 274.696C397.148 274.85 397.528 274.975 397.992 274.975C398.457 274.975 398.836 275.101 398.836 275.255C398.836 275.409 399.216 275.535 399.68 275.535C400.144 275.535 400.524 275.66 400.524 275.814C400.524 275.968 400.777 276.094 401.087 276.094C401.396 276.094 401.65 276.22 401.65 276.373C401.65 276.527 401.903 276.653 402.212 276.653C402.522 276.653 402.775 276.779 402.775 276.933C402.775 277.086 403.028 277.212 403.338 277.212C403.647 277.212 403.9 277.338 403.9 277.492C403.9 277.646 404.153 277.771 404.463 277.771C404.772 277.771 405.026 277.897 405.026 278.051C405.026 278.205 405.405 278.331 405.87 278.331C406.334 278.331 406.714 278.456 406.714 278.61C406.714 278.764 407.093 278.89 407.558 278.89C408.022 278.89 408.402 279.016 408.402 279.169C408.402 279.323 408.596 279.449 408.833 279.449C409.07 279.449 409.703 279.885 410.239 280.418C411.098 281.271 411.215 281.559 411.215 282.815C411.215 284.285 410.792 285.041 409.969 285.041C409.726 285.041 409.527 285.167 409.527 285.32C409.527 285.474 409.274 285.6 408.964 285.6C408.655 285.6 408.402 285.474 408.402 285.32C408.402 285.167 407.895 285.041 407.276 285.041C406.657 285.041 406.151 284.915 406.151 284.761C406.151 284.607 405.898 284.482 405.588 284.482C405.279 284.482 405.026 284.356 405.026 284.202C405.026 284.048 404.646 283.922 404.182 283.922C403.717 283.922 403.338 283.797 403.338 283.643C403.338 283.489 402.958 283.363 402.494 283.363C402.029 283.363 401.65 283.237 401.65 283.084C401.65 282.93 401.27 282.804 400.806 282.804C400.341 282.804 399.962 282.678 399.962 282.524C399.962 282.371 399.582 282.245 399.118 282.245C398.653 282.245 398.274 282.119 398.274 281.965C398.274 281.812 397.894 281.686 397.43 281.686C396.965 281.686 396.586 281.56 396.586 281.406C396.586 281.252 396.079 281.127 395.46 281.127C394.841 281.127 394.335 281.001 394.335 280.847C394.335 280.693 393.955 280.567 393.491 280.567C393.027 280.567 392.647 280.442 392.647 280.288C392.647 280.134 392.267 280.008 391.803 280.008C391.339 280.008 390.959 279.882 390.959 279.729C390.959 279.575 390.579 279.449 390.115 279.449C389.651 279.449 389.271 279.323 389.271 279.169C389.271 279.016 388.891 278.89 388.427 278.89C387.963 278.89 387.583 278.764 387.583 278.61C387.583 278.456 387.203 278.331 386.739 278.331C386.275 278.331 385.895 278.205 385.895 278.051C385.895 277.897 385.389 277.771 384.77 277.771C383.953 277.771 383.645 277.887 383.645 278.194C383.645 278.673 389.38 284.482 389.853 284.482C390.021 284.482 390.646 284.985 391.24 285.6C391.835 286.215 392.471 286.718 392.653 286.718C392.835 286.718 393.339 287.096 393.772 287.557C394.206 288.018 394.735 288.396 394.948 288.396C395.162 288.396 395.519 288.648 395.742 288.955C395.965 289.263 396.322 289.514 396.535 289.514C396.748 289.514 397.277 289.892 397.711 290.353C398.145 290.814 398.643 291.192 398.818 291.192C399.292 291.192 401.087 293.064 401.087 293.559C401.087 293.795 401.214 293.988 401.368 293.988C401.964 293.988 401.661 295.959 400.959 296.656C400.033 297.577 397.499 297.656 396.867 296.784C396.644 296.476 396.287 296.224 396.074 296.224C395.861 296.224 395.331 295.847 394.898 295.386C394.464 294.924 393.958 294.547 393.772 294.547C393.587 294.547 393.081 294.169 392.647 293.708C392.214 293.247 391.656 292.869 391.409 292.869C391.161 292.869 390.959 292.744 390.959 292.59C390.959 292.436 390.734 292.31 390.459 292.31C390.183 292.31 389.776 292.059 389.552 291.751C389.329 291.443 388.972 291.192 388.759 291.192C388.546 291.192 388.017 290.814 387.583 290.353C387.15 289.892 386.62 289.514 386.407 289.514C386.194 289.514 385.837 289.263 385.614 288.955C385.391 288.648 385.037 288.396 384.826 288.396C384.616 288.396 383.958 287.893 383.363 287.278C382.768 286.662 382.11 286.159 381.9 286.159C381.69 286.159 381.336 285.908 381.113 285.6C380.889 285.292 380.482 285.041 380.206 285.041C379.931 285.041 379.706 284.915 379.706 284.761C379.706 284.607 379.199 284.482 378.581 284.482C377.643 284.482 377.455 284.575 377.455 285.041C377.455 285.348 377.582 285.6 377.737 285.6C377.891 285.6 378.018 285.824 378.018 286.097C378.018 286.371 378.271 286.776 378.581 286.998C378.89 287.22 379.143 287.625 379.143 287.899C379.143 288.172 379.27 288.396 379.425 288.396C379.579 288.396 379.706 288.62 379.706 288.893C379.706 289.167 379.959 289.572 380.269 289.794C380.578 290.016 380.831 290.393 380.831 290.633C380.831 290.872 381.084 291.25 381.394 291.471C381.703 291.693 381.957 292.048 381.957 292.26C381.957 292.472 382.336 292.998 382.801 293.429C383.265 293.859 383.645 294.386 383.645 294.597C383.645 294.809 383.898 295.164 384.207 295.386C384.517 295.607 384.77 295.962 384.77 296.174C384.77 296.386 385.15 296.912 385.614 297.343C386.078 297.774 386.458 298.328 386.458 298.573C386.458 298.819 386.584 299.02 386.739 299.02C386.894 299.02 387.02 299.524 387.02 300.139C387.02 300.754 386.894 301.257 386.739 301.257C386.584 301.257 386.458 301.509 386.458 301.816C386.458 302.311 386.27 302.375 384.832 302.375C383.529 302.375 383.125 302.264 382.801 301.816C382.577 301.509 382.17 301.257 381.894 301.257C381.619 301.257 381.394 301.059 381.394 300.816C381.394 300.573 380.887 299.891 380.269 299.3C379.65 298.709 379.143 298.077 379.143 297.896C379.143 297.715 378.763 297.214 378.299 296.784C377.835 296.353 377.455 295.827 377.455 295.615C377.455 295.403 377.202 295.048 376.893 294.827C376.583 294.605 376.33 294.25 376.33 294.038C376.33 293.826 375.95 293.3 375.486 292.869C375.022 292.439 374.642 291.938 374.642 291.757C374.642 291.576 374.136 290.944 373.517 290.353C372.898 289.762 372.391 289.137 372.391 288.964C372.391 288.498 371.077 287.278 370.575 287.278C370.336 287.278 370.141 287.152 370.141 286.998C370.141 286.844 369.915 286.718 369.64 286.718C369.365 286.718 368.957 286.467 368.734 286.159C368.511 285.852 368.154 285.6 367.941 285.6C367.728 285.6 367.198 285.223 366.765 284.761C366.331 284.3 365.802 283.922 365.589 283.922C365.376 283.922 365.018 283.671 364.795 283.363C364.572 283.056 364.165 282.804 363.889 282.804C363.614 282.804 363.389 282.678 363.389 282.524C363.389 282.371 363.136 282.245 362.826 282.245C362.517 282.245 362.263 282.119 362.263 281.965C362.263 281.812 362.038 281.686 361.763 281.686C361.488 281.686 361.08 281.434 360.857 281.127C360.634 280.819 360.277 280.567 360.063 280.567C359.85 280.567 359.321 280.19 358.887 279.729C358.454 279.267 357.952 278.89 357.772 278.89C357.592 278.89 356.828 278.261 356.074 277.492C355.32 276.723 354.534 276.094 354.326 276.094C354.118 276.094 353.765 275.842 353.542 275.535C353.319 275.227 352.911 274.975 352.636 274.975C352.361 274.975 352.136 274.85 352.136 274.696C352.136 274.542 351.882 274.416 351.573 274.416C351.263 274.416 351.01 274.29 351.01 274.137C351.01 273.983 350.757 273.857 350.448 273.857C350.138 273.857 349.885 273.731 349.885 273.578C349.885 273.424 349.632 273.298 349.322 273.298C349.013 273.298 348.76 273.172 348.76 273.018C348.76 272.865 348.38 272.739 347.916 272.739C347.451 272.739 347.072 272.613 347.072 272.459C347.072 272.305 346.818 272.18 346.509 272.18C346.199 272.18 345.946 272.054 345.946 271.9C345.946 271.746 345.566 271.62 345.102 271.62C344.638 271.62 344.258 271.495 344.258 271.341C344.258 271.187 343.752 271.061 343.133 271.061C342.514 271.061 342.008 270.935 342.008 270.782C342.008 270.628 341.501 270.502 340.882 270.502C340.263 270.502 339.757 270.376 339.757 270.222C339.757 270.055 338.632 269.943 336.944 269.943C335.256 269.943 334.13 270.055 334.13 270.222C334.13 270.376 333.497 270.502 332.724 270.502C331.95 270.502 331.317 270.628 331.317 270.782C331.317 270.935 330.937 271.061 330.473 271.061C330.009 271.061 329.629 271.187 329.629 271.341C329.629 271.495 329.404 271.62 329.129 271.62C328.853 271.62 328.446 271.872 328.223 272.18C327.999 272.487 327.646 272.739 327.437 272.739C326.947 272.739 326.253 273.429 326.253 273.915C326.253 274.123 326 274.474 325.691 274.696C325.24 275.019 325.128 275.42 325.128 276.715C325.128 277.606 325.254 278.331 325.409 278.331C325.564 278.331 325.691 278.582 325.691 278.89C325.691 279.262 325.878 279.449 326.253 279.449C326.563 279.449 326.816 279.575 326.816 279.729C326.816 279.882 327.196 280.008 327.66 280.008C328.124 280.008 328.504 280.134 328.504 280.288C328.504 280.442 328.884 280.567 329.348 280.567C329.812 280.567 330.192 280.693 330.192 280.847C330.192 281.001 330.445 281.127 330.754 281.127C331.064 281.127 331.317 281.252 331.317 281.406C331.317 281.56 331.57 281.686 331.88 281.686C332.189 281.686 332.442 281.812 332.442 281.965C332.442 282.119 332.668 282.245 332.943 282.245C333.218 282.245 333.626 282.497 333.849 282.804C334.072 283.112 334.48 283.363 334.755 283.363C335.03 283.363 335.256 283.489 335.256 283.643C335.256 283.797 335.481 283.922 335.756 283.922C336.032 283.922 336.439 284.174 336.662 284.482C336.885 284.789 337.265 285.041 337.506 285.041C337.747 285.041 338.127 285.292 338.35 285.6C338.573 285.908 338.981 286.159 339.257 286.159C339.532 286.159 339.757 286.285 339.757 286.439C339.757 286.593 339.982 286.718 340.258 286.718C340.533 286.718 340.941 286.97 341.164 287.278C341.387 287.585 341.794 287.837 342.07 287.837C342.345 287.837 342.57 287.963 342.57 288.116C342.57 288.27 342.796 288.396 343.071 288.396C343.346 288.396 343.754 288.648 343.977 288.955C344.2 289.263 344.608 289.514 344.883 289.514C345.158 289.514 345.384 289.64 345.384 289.794C345.384 289.948 345.637 290.073 345.946 290.073C346.256 290.073 346.509 290.199 346.509 290.353C346.509 290.507 346.762 290.633 347.072 290.633C347.381 290.633 347.634 290.758 347.634 290.912C347.634 291.066 347.887 291.192 348.197 291.192C348.506 291.192 348.76 291.318 348.76 291.471C348.76 291.625 349.013 291.751 349.322 291.751C349.632 291.751 349.885 291.877 349.885 292.031C349.885 292.184 350.138 292.31 350.448 292.31C350.757 292.31 351.01 292.436 351.01 292.59C351.01 292.744 351.263 292.869 351.573 292.869C351.882 292.869 352.136 292.995 352.136 293.149C352.136 293.303 352.389 293.429 352.698 293.429C353.008 293.429 353.261 293.554 353.261 293.708C353.261 293.862 353.463 293.988 353.711 293.988C353.958 293.988 354.515 294.365 354.949 294.827C355.382 295.288 355.882 295.665 356.058 295.665C356.235 295.665 357.382 296.672 358.606 297.902C359.831 299.132 361 300.139 361.205 300.139C361.409 300.139 361.759 300.39 361.982 300.698C362.205 301.005 362.613 301.257 362.888 301.257C363.163 301.257 363.389 301.383 363.389 301.537C363.389 301.69 363.642 301.816 363.951 301.816C364.261 301.816 364.514 301.942 364.514 302.096C364.514 302.25 364.767 302.375 365.077 302.375C365.386 302.375 365.639 302.501 365.639 302.655C365.639 302.809 365.893 302.935 366.202 302.935C366.512 302.935 366.765 303.06 366.765 303.214C366.765 303.368 367.145 303.494 367.609 303.494C368.073 303.494 368.453 303.62 368.453 303.773C368.453 303.927 368.706 304.053 369.015 304.053C369.325 304.053 369.578 304.179 369.578 304.333C369.578 304.486 369.958 304.612 370.422 304.612C370.886 304.612 371.266 304.738 371.266 304.892C371.266 305.046 371.519 305.171 371.829 305.171C372.138 305.171 372.391 305.297 372.391 305.451C372.391 305.605 372.771 305.731 373.235 305.731C373.699 305.731 374.079 305.856 374.079 306.01C374.079 306.164 374.459 306.29 374.923 306.29C375.387 306.29 375.767 306.416 375.767 306.569C375.767 306.723 376.147 306.849 376.611 306.849C377.075 306.849 377.455 306.975 377.455 307.129C377.455 307.282 377.835 307.408 378.299 307.408C378.763 307.408 379.143 307.534 379.143 307.688C379.143 307.842 379.523 307.967 379.987 307.967C380.451 307.967 380.831 308.093 380.831 308.247C380.831 308.401 381.084 308.527 381.394 308.527C381.703 308.527 381.957 308.652 381.957 308.806C381.957 308.96 382.21 309.086 382.519 309.086C382.829 309.086 383.082 309.212 383.082 309.365C383.082 309.519 383.462 309.645 383.926 309.645C384.39 309.645 384.77 309.771 384.77 309.924C384.77 310.078 385.15 310.204 385.614 310.204C386.078 310.204 386.458 310.33 386.458 310.484C386.458 310.637 386.838 310.763 387.302 310.763C387.766 310.763 388.146 310.889 388.146 311.043C388.146 311.197 388.399 311.322 388.708 311.322C389.018 311.322 389.271 311.448 389.271 311.602C389.271 311.756 389.777 311.882 390.396 311.882C391.015 311.882 391.522 312.007 391.522 312.161C391.522 312.315 391.902 312.441 392.366 312.441C392.83 312.441 393.21 312.567 393.21 312.72C393.21 312.874 393.843 313 394.616 313C395.39 313 396.023 313.126 396.023 313.28C396.023 313.433 396.529 313.559 397.148 313.559C397.992 313.559 398.274 313.671 398.274 314.006C398.274 314.252 398.653 314.806 399.118 315.237C399.582 315.668 399.962 316.194 399.962 316.405C399.962 316.617 400.215 316.972 400.524 317.194C400.834 317.416 401.087 317.793 401.087 318.033C401.087 318.272 401.34 318.65 401.65 318.871C401.959 319.093 402.212 319.471 402.212 319.71C402.212 319.95 402.465 320.327 402.775 320.549C403.084 320.771 403.338 321.148 403.338 321.388C403.338 321.627 403.591 322.005 403.9 322.227C404.21 322.448 404.463 322.826 404.463 323.065C404.463 323.305 404.716 323.682 405.026 323.904C405.335 324.126 405.588 324.531 405.588 324.805C405.588 325.078 405.715 325.302 405.87 325.302C406.024 325.302 406.151 325.526 406.151 325.799C406.151 326.073 406.404 326.478 406.714 326.7C407.023 326.922 407.276 327.299 407.276 327.539C407.276 327.778 407.529 328.156 407.839 328.378C408.148 328.599 408.402 329.004 408.402 329.278C408.402 329.552 408.528 329.775 408.683 329.775C408.838 329.775 408.964 329.999 408.964 330.273C408.964 330.547 409.217 330.952 409.527 331.173C409.836 331.395 410.09 331.773 410.09 332.012C410.09 332.252 410.343 332.629 410.652 332.851C410.962 333.073 411.215 333.478 411.215 333.752C411.215 334.025 411.341 334.249 411.496 334.249C411.651 334.249 411.777 334.473 411.777 334.746C411.777 335.02 412.031 335.425 412.34 335.647C412.65 335.869 412.903 336.246 412.903 336.486C412.903 336.725 413.156 337.103 413.465 337.324C413.775 337.546 414.028 337.951 414.028 338.225C414.028 338.498 414.155 338.722 414.309 338.722C414.464 338.722 414.591 338.946 414.591 339.22C414.591 339.494 414.844 339.899 415.153 340.12C415.463 340.342 415.716 340.72 415.716 340.959C415.716 341.199 415.969 341.576 416.279 341.798C416.588 342.02 416.841 342.425 416.841 342.698C416.841 342.972 416.968 343.196 417.123 343.196C417.277 343.196 417.404 343.42 417.404 343.693C417.404 343.967 417.657 344.372 417.967 344.594C418.276 344.816 418.529 345.221 418.529 345.494C418.529 345.768 418.656 345.992 418.811 345.992C418.965 345.992 419.092 346.216 419.092 346.489C419.092 346.763 419.345 347.168 419.655 347.39C419.964 347.611 420.217 348.017 420.217 348.29C420.217 348.564 420.344 348.788 420.499 348.788C420.653 348.788 420.78 349.012 420.78 349.285C420.78 349.559 421.033 349.964 421.343 350.186C421.652 350.407 421.905 350.785 421.905 351.024C421.905 351.264 422.159 351.642 422.468 351.863C422.777 352.085 423.031 352.49 423.031 352.764C423.031 353.037 423.157 353.261 423.312 353.261C423.467 353.261 423.593 353.485 423.593 353.759C423.593 354.032 423.847 354.437 424.156 354.659C424.465 354.881 424.719 355.286 424.719 355.56C424.719 355.833 424.845 356.057 425 356.057C425.155 356.057 425.281 356.281 425.281 356.554C425.281 356.828 425.535 357.233 425.844 357.455C426.153 357.677 426.407 358.082 426.407 358.356C426.407 358.629 426.533 358.853 426.688 358.853C426.843 358.853 426.969 359.077 426.969 359.35C426.969 359.624 427.223 360.029 427.532 360.251C427.841 360.473 428.095 360.878 428.095 361.152C428.095 361.425 428.221 361.649 428.376 361.649C428.531 361.649 428.657 361.873 428.657 362.146C428.657 362.42 428.91 362.825 429.22 363.047C429.529 363.269 429.783 363.674 429.783 363.947C429.783 364.221 429.909 364.445 430.064 364.445C430.219 364.445 430.345 364.669 430.345 364.942C430.345 365.216 430.598 365.621 430.908 365.843C431.217 366.065 431.471 366.442 431.471 366.682C431.471 366.921 431.724 367.299 432.033 367.52C432.343 367.742 432.596 368.147 432.596 368.421C432.596 368.694 432.723 368.918 432.877 368.918C433.032 368.918 433.159 369.142 433.159 369.416C433.159 369.689 433.412 370.095 433.721 370.316C434.031 370.538 434.284 370.943 434.284 371.217C434.284 371.49 434.41 371.714 434.565 371.714C434.72 371.714 434.847 371.938 434.847 372.212C434.847 372.485 435.1 372.89 435.409 373.112C435.719 373.334 435.972 373.739 435.972 374.013C435.972 374.286 436.098 374.51 436.253 374.51C436.408 374.51 436.535 374.734 436.535 375.008C436.535 375.281 436.788 375.686 437.097 375.908C437.407 376.13 437.66 376.535 437.66 376.809C437.66 377.082 437.786 377.306 437.941 377.306C438.096 377.306 438.223 377.53 438.223 377.803C438.223 378.077 438.476 378.482 438.785 378.704C439.095 378.926 439.348 379.331 439.348 379.605C439.348 379.878 439.474 380.102 439.629 380.102C439.784 380.102 439.91 380.326 439.91 380.599C439.91 380.873 440.164 381.278 440.473 381.5C440.783 381.722 441.036 382.127 441.036 382.401C441.036 382.674 441.162 382.898 441.317 382.898C441.472 382.898 441.598 383.122 441.598 383.395C441.598 383.669 441.852 384.074 442.161 384.296C442.471 384.518 442.724 384.923 442.724 385.196C442.724 385.47 442.85 385.694 443.005 385.694C443.16 385.694 443.286 385.918 443.286 386.191C443.286 386.465 443.54 386.87 443.849 387.092C444.159 387.313 444.412 387.719 444.412 387.992C444.412 388.266 444.538 388.49 444.693 388.49C444.848 388.49 444.974 388.714 444.974 388.987C444.974 389.261 445.228 389.666 445.537 389.888C445.847 390.109 446.1 390.515 446.1 390.788C446.1 391.062 446.226 391.286 446.381 391.286C446.536 391.286 446.662 391.51 446.662 391.783C446.662 392.057 446.916 392.462 447.225 392.684C447.535 392.905 447.788 393.31 447.788 393.584C447.788 393.858 447.914 394.082 448.069 394.082C448.224 394.082 448.35 394.306 448.35 394.579C448.35 394.853 448.604 395.258 448.913 395.48C449.223 395.701 449.476 396.106 449.476 396.38C449.476 396.654 449.602 396.878 449.757 396.878C449.912 396.878 450.038 397.101 450.038 397.375C450.038 397.649 450.292 398.054 450.601 398.275C450.91 398.497 451.164 398.902 451.164 399.176C451.164 399.449 451.29 399.673 451.445 399.673C451.6 399.673 451.726 399.897 451.726 400.171C451.726 400.445 451.98 400.85 452.289 401.071C452.598 401.293 452.852 401.698 452.852 401.972C452.852 402.245 452.978 402.469 453.133 402.469C453.288 402.469 453.414 402.693 453.414 402.967C453.414 403.24 453.668 403.646 453.977 403.867C454.286 404.089 454.54 404.494 454.54 404.768C454.54 405.041 454.666 405.265 454.821 405.265C454.976 405.265 455.102 405.489 455.102 405.763C455.102 406.036 455.355 406.442 455.665 406.663C455.974 406.885 456.228 407.29 456.228 407.564C456.228 407.837 456.354 408.061 456.509 408.061C456.664 408.061 456.79 408.285 456.79 408.559C456.79 408.832 457.043 409.237 457.353 409.459C457.662 409.681 457.916 410.086 457.916 410.36C457.916 410.633 458.042 410.857 458.197 410.857C458.352 410.857 458.478 411.081 458.478 411.355C458.478 411.628 458.731 412.033 459.041 412.255C459.35 412.477 459.604 412.882 459.604 413.156C459.604 413.429 459.73 413.653 459.885 413.653C460.04 413.653 460.166 413.877 460.166 414.15C460.166 414.424 460.419 414.829 460.729 415.051C461.038 415.273 461.292 415.678 461.292 415.952C461.292 416.225 461.418 416.449 461.573 416.449C461.728 416.449 461.854 416.701 461.854 417.008C461.854 417.316 461.981 417.567 462.136 417.567C462.29 417.567 462.417 417.791 462.417 418.065C462.417 418.338 462.67 418.744 462.98 418.965C463.289 419.187 463.542 419.592 463.542 419.866C463.542 420.139 463.669 420.363 463.824 420.363C463.978 420.363 464.105 420.587 464.105 420.861C464.105 421.134 464.358 421.539 464.668 421.761C464.977 421.983 465.23 422.388 465.23 422.662C465.23 422.935 465.357 423.159 465.512 423.159C465.666 423.159 465.793 423.383 465.793 423.657C465.793 423.93 466.046 424.335 466.355 424.557C466.665 424.779 466.918 425.184 466.918 425.458C466.918 425.731 467.045 425.955 467.199 425.955C467.354 425.955 467.481 426.179 467.481 426.452C467.481 426.726 467.734 427.131 468.043 427.353C468.353 427.575 468.606 427.98 468.606 428.254C468.606 428.527 468.733 428.751 468.887 428.751C469.042 428.751 469.169 428.975 469.169 429.248C469.169 429.522 469.422 429.927 469.731 430.149C470.041 430.371 470.294 430.776 470.294 431.049C470.294 431.323 470.421 431.547 470.575 431.547C470.73 431.547 470.857 431.771 470.857 432.044C470.857 432.318 471.11 432.723 471.419 432.945C471.729 433.167 471.982 433.572 471.982 433.845C471.982 434.119 472.109 434.343 472.263 434.343C472.418 434.343 472.545 434.567 472.545 434.84C472.545 435.114 472.798 435.519 473.107 435.741C473.417 435.962 473.67 436.368 473.67 436.641C473.67 436.915 473.797 437.139 473.951 437.139C474.106 437.139 474.233 437.39 474.233 437.698C474.233 438.005 474.359 438.257 474.514 438.257C474.669 438.257 474.795 438.481 474.795 438.754C474.795 439.028 475.049 439.433 475.358 439.655C475.668 439.877 475.921 440.282 475.921 440.556C475.921 440.829 476.047 441.053 476.202 441.053C476.357 441.053 476.483 441.277 476.483 441.55C476.483 441.824 476.737 442.229 477.046 442.451C477.355 442.673 477.609 443.05 477.609 443.29C477.609 443.529 477.862 443.907 478.171 444.129C478.481 444.35 478.734 444.755 478.734 445.029C478.734 445.302 478.861 445.526 479.015 445.526C479.17 445.526 479.297 445.778 479.297 446.086C479.297 446.393 479.423 446.645 479.578 446.645C479.733 446.645 479.859 446.869 479.859 447.142C479.859 447.416 480.113 447.821 480.422 448.043C480.731 448.265 496.739 480.792 496.739 481C496.739 482.204 504.5 478.5 518.402 470C532 462.5 539 455.685 539 455.5C539 455.346 534.873 449.441 534.719 449.441C534.564 449.441 534.437 449.217 534.437 448.943C534.437 448.67 534.184 448.265 533.875 448.043C533.565 447.821 533.312 447.416 533.312 447.142C533.312 446.869 533.185 446.645 533.031 446.645C532.876 446.645 532.749 446.421 532.749 446.147C532.749 445.874 532.496 445.469 532.187 445.247C531.877 445.025 531.624 444.62 531.624 444.346C531.624 444.073 531.497 443.849 531.343 443.849C531.188 443.849 531.061 443.625 531.061 443.352C531.061 443.078 530.808 442.673 530.499 442.451C530.189 442.229 529.936 441.824 529.936 441.55C529.936 441.277 529.809 441.053 529.655 441.053C529.5 441.053 529.373 440.829 529.373 440.556C529.373 440.282 529.12 439.877 528.811 439.655C528.501 439.433 528.248 439.028 528.248 438.754C528.248 438.481 528.121 438.257 527.967 438.257C527.812 438.257 527.685 438.033 527.685 437.76C527.685 437.486 527.432 437.081 527.123 436.859C526.813 436.637 526.56 436.232 526.56 435.959C526.56 435.685 526.434 435.461 526.279 435.461C526.124 435.461 525.997 435.237 525.997 434.964C525.997 434.69 525.744 434.285 525.435 434.063C525.125 433.841 524.872 433.436 524.872 433.163C524.872 432.889 524.746 432.665 524.591 432.665C524.436 432.665 524.309 432.441 524.309 432.168C524.309 431.894 524.056 431.489 523.747 431.267C523.437 431.046 523.184 430.668 523.184 430.429C523.184 430.189 522.931 429.811 522.621 429.59C522.312 429.368 522.059 428.963 522.059 428.689C522.059 428.416 521.932 428.192 521.777 428.192C521.623 428.192 521.496 427.968 521.496 427.694C521.496 427.421 521.243 427.016 520.934 426.794C520.624 426.572 520.371 426.167 520.371 425.893C520.371 425.62 520.244 425.396 520.09 425.396C519.935 425.396 519.808 425.172 519.808 424.898C519.808 424.625 519.555 424.22 519.246 423.998C518.936 423.776 518.683 423.371 518.683 423.097C518.683 422.824 518.556 422.6 518.402 422.6C518.247 422.6 518.12 422.376 518.12 422.103C518.12 421.829 517.867 421.424 517.558 421.202C517.248 420.98 516.995 420.575 516.995 420.301C516.995 420.028 516.868 419.804 516.714 419.804C516.559 419.804 516.432 419.58 516.432 419.307C516.432 419.033 516.179 418.628 515.87 418.406C515.56 418.184 515.307 417.807 515.307 417.567C515.307 417.328 515.054 416.95 514.744 416.729C514.435 416.507 514.182 416.102 514.182 415.828C514.182 415.555 514.055 415.331 513.9 415.331C513.746 415.331 513.619 415.107 513.619 414.833C513.619 414.559 513.366 414.154 513.056 413.933C512.747 413.711 512.494 413.306 512.494 413.032C512.494 412.759 512.367 412.535 512.212 412.535C512.058 412.535 511.931 412.311 511.931 412.037C511.931 411.764 511.678 411.358 511.368 411.137C511.059 410.915 510.806 410.51 510.806 410.236C510.806 409.963 510.679 409.739 510.524 409.739C510.37 409.739 510.243 409.515 510.243 409.241C510.243 408.968 509.99 408.562 509.68 408.341C509.371 408.119 509.118 407.714 509.118 407.44C509.118 407.167 508.991 406.943 508.836 406.943C508.682 406.943 508.555 406.719 508.555 406.445C508.555 406.172 508.302 405.767 507.992 405.545C507.683 405.323 507.43 404.946 507.43 404.706C507.43 404.466 507.176 404.089 506.867 403.867C506.558 403.646 506.304 403.24 506.304 402.967C506.304 402.693 506.178 402.469 506.023 402.469C505.868 402.469 505.742 402.245 505.742 401.972C505.742 401.698 505.488 401.293 505.179 401.071C504.87 400.85 504.616 400.445 504.616 400.171C504.616 399.897 504.49 399.673 504.335 399.673C504.18 399.673 504.054 399.449 504.054 399.176C504.054 398.902 503.801 398.497 503.491 398.275C503.182 398.054 502.928 397.649 502.928 397.375C502.928 397.101 502.802 396.878 502.647 396.878C502.492 396.878 502.366 396.654 502.366 396.38C502.366 396.106 502.113 395.701 501.803 395.48C501.494 395.258 501.24 394.853 501.24 394.579C501.24 394.306 501.114 394.082 500.959 394.082C500.804 394.082 500.678 393.858 500.678 393.584C500.678 393.31 500.425 392.905 500.115 392.684C499.806 392.462 499.552 392.084 499.552 391.845C499.552 391.605 499.299 391.228 498.99 391.006C498.68 390.784 498.427 390.379 498.427 390.106C498.427 389.832 498.301 389.608 498.146 389.608C497.991 389.608 497.864 389.384 497.864 389.111C497.864 388.837 497.611 388.432 497.302 388.21C496.992 387.988 496.739 387.583 496.739 387.31C496.739 387.036 496.613 386.812 496.458 386.812C496.303 386.812 496.176 386.588 496.176 386.315C496.176 386.041 495.923 385.636 495.614 385.414C495.304 385.193 495.051 384.787 495.051 384.514C495.051 384.24 494.925 384.016 494.77 384.016C494.615 384.016 494.488 383.792 494.488 383.519C494.488 383.245 494.235 382.84 493.926 382.618C493.616 382.397 493.363 381.991 493.363 381.718C493.363 381.444 493.237 381.22 493.082 381.22C492.927 381.22 492.801 380.996 492.801 380.723C492.801 380.449 492.547 380.044 492.238 379.822C491.928 379.601 491.675 379.196 491.675 378.922C491.675 378.648 491.549 378.424 491.394 378.424C491.239 378.424 491.113 378.2 491.113 377.927C491.113 377.653 490.859 377.248 490.55 377.026C490.24 376.805 489.987 376.427 489.987 376.188C489.987 375.948 489.734 375.571 489.425 375.349C489.115 375.127 488.862 374.722 488.862 374.448C488.862 374.175 488.735 373.951 488.581 373.951C488.426 373.951 488.299 373.699 488.299 373.392C488.299 373.084 488.173 372.833 488.018 372.833C487.863 372.833 487.737 372.609 487.737 372.335C487.737 372.061 487.483 371.656 487.174 371.435C486.864 371.213 486.611 370.835 486.611 370.596C486.611 370.356 486.358 369.979 486.049 369.757C485.739 369.535 485.486 369.13 485.486 368.857C485.486 368.583 485.359 368.359 485.205 368.359C485.05 368.359 484.923 368.135 484.923 367.862C484.923 367.588 484.67 367.183 484.361 366.961C484.051 366.739 483.798 366.334 483.798 366.061C483.798 365.787 483.671 365.563 483.517 365.563C483.362 365.563 483.235 365.339 483.235 365.066C483.235 364.792 482.982 364.387 482.673 364.165C482.363 363.944 482.11 363.538 482.11 363.265C482.11 362.991 481.983 362.767 481.829 362.767C481.674 362.767 481.547 362.543 481.547 362.27C481.547 361.996 481.294 361.591 480.985 361.369C480.675 361.148 480.422 360.77 480.422 360.531C480.422 360.291 480.169 359.914 479.859 359.692C479.55 359.47 479.297 359.065 479.297 358.791C479.297 358.518 479.17 358.294 479.015 358.294C478.861 358.294 478.734 358.042 478.734 357.735C478.734 357.427 478.607 357.175 478.453 357.175C478.298 357.175 478.171 356.952 478.171 356.678C478.171 356.404 477.918 355.999 477.609 355.778C477.299 355.556 477.046 355.178 477.046 354.939C477.046 354.699 476.793 354.322 476.483 354.1C476.174 353.878 475.921 353.473 475.921 353.199C475.921 352.926 475.794 352.702 475.639 352.702C475.485 352.702 475.358 352.478 475.358 352.205C475.358 351.931 475.105 351.526 474.795 351.304C474.486 351.082 474.233 350.677 474.233 350.403C474.233 350.13 474.106 349.906 473.951 349.906C473.797 349.906 473.67 349.682 473.67 349.409C473.67 349.135 473.417 348.73 473.107 348.508C472.798 348.286 472.545 347.881 472.545 347.608C472.545 347.334 472.418 347.11 472.263 347.11C472.109 347.11 471.982 346.886 471.982 346.613C471.982 346.339 471.729 345.934 471.419 345.712C471.11 345.49 470.857 345.085 470.857 344.812C470.857 344.538 470.73 344.314 470.575 344.314C470.421 344.314 470.294 344.09 470.294 343.817C470.294 343.543 470.041 343.138 469.731 342.916C469.422 342.695 469.169 342.317 469.169 342.078C469.169 341.838 468.916 341.46 468.606 341.239C468.297 341.017 468.043 340.612 468.043 340.338C468.043 340.065 467.917 339.841 467.762 339.841C467.607 339.841 467.481 339.617 467.481 339.343C467.481 339.07 467.228 338.665 466.918 338.443C466.609 338.221 466.355 337.816 466.355 337.542C466.355 337.269 466.229 337.045 466.074 337.045C465.919 337.045 465.793 336.821 465.793 336.547C465.793 336.274 465.54 335.869 465.23 335.647C464.921 335.425 464.668 335.02 464.668 334.746C464.668 334.473 464.541 334.249 464.386 334.249C464.231 334.249 464.105 334.025 464.105 333.752C464.105 333.478 463.852 333.073 463.542 332.851C463.233 332.629 462.98 332.224 462.98 331.95C462.98 331.677 462.853 331.453 462.698 331.453C462.543 331.453 462.417 331.229 462.417 330.956C462.417 330.682 462.164 330.277 461.854 330.055C461.545 329.833 461.292 329.428 461.292 329.154C461.292 328.881 461.165 328.657 461.01 328.657C460.856 328.657 460.729 328.433 460.729 328.16C460.729 327.886 460.476 327.481 460.166 327.259C459.857 327.037 459.604 326.66 459.604 326.42C459.604 326.181 459.35 325.803 459.041 325.582C458.731 325.36 458.478 324.955 458.478 324.681C458.478 324.408 458.352 324.184 458.197 324.184C458.042 324.184 457.916 323.932 457.916 323.624C457.916 323.317 457.789 323.065 457.634 323.065C457.48 323.065 457.353 322.841 457.353 322.568C457.353 322.294 457.1 321.889 456.79 321.667C456.481 321.446 456.228 321.068 456.228 320.829C456.228 320.589 455.974 320.211 455.665 319.99C455.355 319.768 455.102 319.363 455.102 319.089C455.102 318.816 454.976 318.592 454.821 318.592C454.666 318.592 454.54 318.368 454.54 318.094C454.54 317.821 454.286 317.416 453.977 317.194C453.668 316.972 453.414 316.567 453.414 316.293C453.414 316.02 453.288 315.796 453.133 315.796C452.978 315.796 452.852 315.572 452.852 315.298C452.852 315.025 452.598 314.62 452.289 314.398C451.98 314.176 451.726 313.771 451.726 313.497C451.726 313.224 451.6 313 451.445 313C451.29 313 451.164 312.776 451.164 312.503C451.164 312.229 450.91 311.824 450.601 311.602C450.292 311.38 450.038 310.975 450.038 310.701C450.038 310.428 449.912 310.204 449.757 310.204C449.602 310.204 449.476 309.98 449.476 309.707C449.476 309.433 449.223 309.028 448.913 308.806C448.604 308.584 448.35 308.179 448.35 307.906C448.35 307.632 448.224 307.408 448.069 307.408C447.914 307.408 447.788 307.184 447.788 306.911C447.788 306.637 447.535 306.232 447.225 306.01C446.916 305.788 446.662 305.411 446.662 305.171C446.662 304.932 446.409 304.554 446.1 304.333C445.79 304.111 445.537 303.706 445.537 303.432C445.537 303.159 445.41 302.935 445.256 302.935C445.101 302.935 444.974 302.711 444.974 302.437C444.974 302.164 444.721 301.758 444.412 301.537C444.102 301.315 443.849 300.91 443.849 300.636C443.849 300.363 443.723 300.139 443.568 300.139C443.413 300.139 443.286 299.915 443.286 299.641C443.286 299.368 443.033 298.963 442.724 298.741C442.414 298.519 442.161 298.114 442.161 297.84C442.161 297.567 442.035 297.343 441.88 297.343C441.725 297.343 441.598 297.119 441.598 296.845C441.598 296.572 441.345 296.167 441.036 295.945C440.726 295.723 440.473 295.318 440.473 295.044C440.473 294.771 440.347 294.547 440.192 294.547C440.037 294.547 439.91 294.295 439.91 293.988C439.91 293.68 439.784 293.429 439.629 293.429C439.474 293.429 439.348 293.177 439.348 292.869C439.348 292.562 439.221 292.31 439.066 292.31C438.912 292.31 438.785 292.059 438.785 291.751C438.785 291.443 438.659 291.192 438.504 291.192C438.349 291.192 438.223 290.94 438.223 290.633C438.223 290.325 438.096 290.073 437.941 290.073C437.786 290.073 437.66 289.696 437.66 289.235C437.66 288.773 437.533 288.396 437.379 288.396C437.224 288.396 437.097 288.144 437.097 287.837C437.097 287.529 436.971 287.278 436.816 287.278C436.661 287.278 436.535 286.774 436.535 286.159C436.535 285.544 436.408 285.041 436.253 285.041C436.098 285.041 435.972 284.412 435.972 283.643C435.972 282.874 435.845 282.245 435.691 282.245C435.536 282.245 435.409 281.616 435.409 280.847C435.409 280.078 435.283 279.449 435.128 279.449C434.973 279.449 434.847 278.82 434.847 278.051C434.847 277.282 434.72 276.653 434.565 276.653C434.41 276.653 434.284 276.024 434.284 275.255C434.284 274.486 434.157 273.857 434.003 273.857C433.848 273.857 433.721 273.354 433.721 272.739C433.721 272.124 433.595 271.62 433.44 271.62C433.285 271.62 433.159 271.117 433.159 270.502C433.159 269.887 433.032 269.384 432.877 269.384C432.723 269.384 432.596 268.88 432.596 268.265C432.596 267.65 432.469 267.147 432.315 267.147C432.16 267.147 432.033 266.769 432.033 266.308C432.033 265.847 431.907 265.469 431.752 265.469C431.597 265.469 431.471 265.092 431.471 264.631C431.471 264.169 431.344 263.792 431.189 263.792C431.035 263.792 430.908 263.414 430.908 262.953C430.908 262.492 430.781 262.114 430.627 262.114C430.472 262.114 430.345 261.863 430.345 261.555C430.345 261.248 430.219 260.996 430.064 260.996C429.909 260.996 429.783 260.618 429.783 260.157C429.783 259.696 429.656 259.318 429.501 259.318C429.347 259.318 429.22 258.941 429.22 258.48C429.22 258.018 429.093 257.641 428.939 257.641C428.784 257.641 428.657 257.389 428.657 257.082C428.657 256.774 428.531 256.522 428.376 256.522C428.221 256.522 428.095 256.145 428.095 255.684C428.095 255.222 427.968 254.845 427.813 254.845C427.659 254.845 427.532 254.467 427.532 254.006C427.532 253.545 427.405 253.167 427.251 253.167C427.096 253.167 426.969 252.916 426.969 252.608C426.969 252.301 426.843 252.049 426.688 252.049C426.533 252.049 426.407 251.672 426.407 251.21C426.407 250.749 426.28 250.371 426.125 250.371C425.971 250.371 425.844 249.868 425.844 249.253C425.844 248.638 425.717 248.135 425.563 248.135C425.408 248.135 425.281 247.757 425.281 247.296C425.281 246.835 425.155 246.457 425 246.457C424.845 246.457 424.719 245.828 424.719 245.059C424.719 244.29 424.592 243.661 424.437 243.661C424.283 243.661 424.156 243.41 424.156 243.102C424.156 242.794 424.029 242.543 423.875 242.543C423.72 242.543 423.593 242.165 423.593 241.704C423.593 241.243 423.467 240.865 423.312 240.865C423.157 240.865 423.031 240.614 423.031 240.306C423.031 239.999 422.904 239.747 422.749 239.747C422.595 239.747 422.468 239.495 422.468 239.188C422.468 238.88 422.341 238.629 422.187 238.629C422.032 238.629 421.905 238.251 421.905 237.79C421.905 237.328 421.779 236.951 421.624 236.951C421.469 236.951 421.343 236.699 421.343 236.392C421.343 236.084 421.216 235.833 421.061 235.833C420.879 235.833 420.78 231.825 420.78 224.369C420.78 216.913 420.879 212.906 421.061 212.906C421.243 212.906 421.343 209.831 421.343 204.239C421.343 198.647 421.243 195.571 421.061 195.571C420.907 195.571 420.78 194.942 420.78 194.173C420.78 193.405 420.653 192.776 420.499 192.776C420.344 192.776 420.217 192.398 420.217 191.937C420.217 191.475 420.091 191.098 419.936 191.098C419.781 191.098 419.655 190.846 419.655 190.539C419.655 190.231 419.528 189.98 419.373 189.98C419.219 189.98 419.092 189.787 419.092 189.551C419.092 188.846 417.221 187.184 416.429 187.184C416.037 187.184 415.716 187.058 415.716 186.904C415.716 186.75 415.336 186.624 414.872 186.624C414.408 186.624 414.028 186.75 414.028 186.904C414.028 187.058 413.708 187.184 413.317 187.184C412.523 187.184 410.09 189.391 410.09 190.112C410.09 190.347 409.963 190.539 409.808 190.539C409.653 190.539 409.527 190.79 409.527 191.098C409.527 191.406 409.4 191.657 409.246 191.657C409.082 191.657 408.964 192.589 408.964 193.894C408.964 195.199 408.847 196.131 408.683 196.131C408.273 196.131 408.338 198.291 408.753 198.484C409.035 198.614 409.035 198.68 408.753 198.81C408.487 198.934 408.402 200.528 408.402 205.38C408.402 209.465 408.3 211.788 408.12 211.788C407.947 211.788 407.839 213.186 407.839 215.422C407.839 217.659 407.731 219.057 407.558 219.057C407.391 219.057 407.276 220.082 407.276 221.573C407.276 223.065 407.162 224.09 406.995 224.09C406.831 224.09 406.714 225.022 406.714 226.327C406.714 227.631 406.596 228.563 406.432 228.563C406.277 228.563 406.151 229.009 406.151 229.554C406.151 230.537 405.166 231.918 404.466 231.918C404.036 231.918 402.212 230.053 402.212 229.613C402.212 229.411 401.959 229.065 401.65 228.843C401.34 228.621 401.087 228.216 401.087 227.942C401.087 227.669 400.96 227.445 400.806 227.445C400.651 227.445 400.524 227.067 400.524 226.606C400.524 226.145 400.398 225.767 400.243 225.767C400.088 225.767 399.962 225.39 399.962 224.929C399.962 224.467 399.835 224.09 399.68 224.09C399.526 224.09 399.399 223.712 399.399 223.251C399.399 222.79 399.272 222.412 399.118 222.412C398.963 222.412 398.836 222.035 398.836 221.573C398.836 221.112 398.71 220.735 398.555 220.735C398.4 220.735 398.274 220.106 398.274 219.337C398.274 218.568 398.147 217.939 397.992 217.939C397.838 217.939 397.711 217.561 397.711 217.1C397.711 216.639 397.584 216.261 397.43 216.261C397.275 216.261 397.148 215.758 397.148 215.143C397.148 214.528 397.022 214.024 396.867 214.024C396.712 214.024 396.586 213.521 396.586 212.906C396.586 212.291 396.459 211.788 396.304 211.788C396.15 211.788 396.023 211.41 396.023 210.949C396.023 210.488 395.896 210.11 395.742 210.11C395.587 210.11 395.46 209.607 395.46 208.992C395.46 208.377 395.334 207.873 395.179 207.873C395.024 207.873 394.898 207.496 394.898 207.035C394.898 206.573 394.771 206.196 394.616 206.196C394.462 206.196 394.335 205.818 394.335 205.357C394.335 204.896 394.208 204.518 394.054 204.518C393.899 204.518 393.772 204.141 393.772 203.68C393.772 203.218 393.646 202.841 393.491 202.841C393.336 202.841 393.21 202.463 393.21 202.002C393.21 201.541 393.083 201.163 392.928 201.163C392.774 201.163 392.647 200.786 392.647 200.324C392.647 199.863 392.52 199.486 392.366 199.486C392.211 199.486 392.084 199.108 392.084 198.647C392.084 198.186 391.958 197.808 391.803 197.808C391.648 197.808 391.522 197.431 391.522 196.969C391.522 196.508 391.395 196.131 391.24 196.131C391.086 196.131 390.959 195.753 390.959 195.292C390.959 194.831 390.832 194.453 390.678 194.453C390.523 194.453 390.396 194.076 390.396 193.614C390.396 193.153 390.27 192.776 390.115 192.776C389.96 192.776 389.834 192.272 389.834 191.657C389.834 191.042 389.707 190.539 389.552 190.539C389.398 190.539 389.271 190.161 389.271 189.7C389.271 189.239 389.145 188.861 388.99 188.861C388.835 188.861 388.708 188.358 388.708 187.743C388.708 187.128 388.582 186.624 388.427 186.624C388.272 186.624 388.146 186.121 388.146 185.506C388.146 184.891 388.019 184.388 387.864 184.388C387.71 184.388 387.583 184.01 387.583 183.549C387.583 183.088 387.457 182.71 387.302 182.71C387.147 182.71 387.02 182.333 387.02 181.871C387.02 181.41 386.894 181.033 386.739 181.033C386.584 181.033 386.458 180.655 386.458 180.194C386.458 179.733 386.331 179.355 386.176 179.355C386.022 179.355 385.895 179.162 385.895 178.926C385.895 178.37 384.073 176.559 383.513 176.559C383.276 176.559 383.082 176.433 383.082 176.28C383.082 176.112 381.957 176 380.269 176C378.581 176 377.455 176.112 377.455 176.28Z" fill="black"/>
<defs>
<linearGradient id="paint0_linear" x1="422.5" y1="130" x2="422.5" y2="496" gradientUnits="userSpaceOnUse">
<stop stop-color="white"/>
<stop offset="0.979167" stop-color="#858B93" stop-opacity="0.49"/>
</linearGradient>
</defs>
</svg>
