<svg width="470" height="472" viewBox="0 0 470 472" fill="none" xmlns="http://www.w3.org/2000/svg">
<path fill-rule="evenodd" clip-rule="evenodd" d="M62.0703 249.382L67.3216 250.562L65.5429 245.894L62.0703 249.382ZM69 252L60 249.977L65.9517 244L69 252Z" fill="#A0A9AF"/>
<path fill-rule="evenodd" clip-rule="evenodd" d="M430.055 127L429 126.975L429.179 121.147L435.085 121.288L432.022 114L440 117.482L439.533 118.317L433.936 115.874L436.617 122.257L430.205 122.103L430.055 127Z" fill="#A0A9AF"/>
<path fill-rule="evenodd" clip-rule="evenodd" d="M409.896 279.771C407.922 279.771 406.021 280.865 405.086 282.749C403.773 285.396 404.859 288.619 407.506 289.932C410.154 291.243 413.376 290.158 414.688 287.511C415.324 286.228 415.423 284.775 414.965 283.418C414.508 282.061 413.55 280.964 412.268 280.328C411.505 279.95 410.694 279.771 409.896 279.771ZM409.877 291.472C408.931 291.472 407.972 291.26 407.07 290.813C403.937 289.259 402.651 285.446 404.205 282.313C405.758 279.18 409.571 277.894 412.704 279.447C414.222 280.2 415.356 281.499 415.897 283.104C416.438 284.709 416.322 286.43 415.569 287.947C414.464 290.177 412.212 291.472 409.877 291.472Z" fill="#A0A9AF"/>
<path fill-rule="evenodd" clip-rule="evenodd" d="M403.61 273.03C403.409 273.03 403.207 273.063 403.011 273.128C402.537 273.289 402.153 273.622 401.932 274.071C401.474 274.995 401.853 276.12 402.777 276.578C403.224 276.801 403.733 276.835 404.206 276.676C404.68 276.515 405.063 276.182 405.285 275.733C405.743 274.809 405.364 273.684 404.44 273.226C404.177 273.095 403.894 273.03 403.61 273.03ZM403.606 277.758C403.172 277.758 402.741 277.658 402.34 277.459C400.93 276.76 400.351 275.044 401.051 273.634C401.389 272.95 401.974 272.44 402.696 272.197C403.419 271.953 404.194 272.006 404.876 272.345C406.286 273.044 406.865 274.76 406.165 276.17C405.827 276.854 405.242 277.364 404.52 277.607C404.221 277.709 403.913 277.758 403.606 277.758Z" fill="#A0A9AF"/>
<path fill-rule="evenodd" clip-rule="evenodd" d="M39.3387 425.966V438.716C39.3387 448.628 47.4028 456.693 57.3148 456.693H57.32L69.2653 456.831C74.2053 456.911 78.8745 455.038 82.3978 451.568C85.9212 448.099 87.8615 443.464 87.8615 438.518V425.966H39.3387ZM69.557 457.817C69.4554 457.817 69.3538 457.816 69.2522 457.815L57.3121 457.676C46.8587 457.676 38.3555 449.17 38.3555 438.716V424.982H88.8447V438.518C88.8447 443.729 86.8002 448.613 83.0881 452.269C79.448 455.853 74.6536 457.817 69.557 457.817Z" fill="#A0A9AF"/>
<path fill-rule="evenodd" clip-rule="evenodd" d="M58.9502 310.007L58.0181 309.696C60.0043 303.734 67.1395 294.457 74.9826 287.637C81.3837 282.071 84.8028 276.388 87.0656 272.627C88.9574 269.485 90.1 267.588 91.626 268.504C97.2516 271.88 96.7881 281.508 96.2972 291.702C96.1136 295.525 95.9229 299.478 96.0664 303.115L95.0838 303.154C94.939 299.473 95.1304 295.499 95.3152 291.656C95.7911 281.763 96.2408 272.42 91.12 269.348C90.4363 268.937 89.3757 270.697 87.9086 273.134C85.6137 276.948 82.146 282.71 75.6277 288.379C67.9025 295.097 60.8885 304.193 58.9502 310.007Z" fill="#A0A9AF"/>
<path fill-rule="evenodd" clip-rule="evenodd" d="M70.1697 422.821C67.8204 408.322 72.7478 402.445 77.9644 396.223C81.984 391.428 86.1399 386.472 86.7777 377.034C87.6082 364.739 90.0919 356.451 92.7218 347.677C94.5573 341.552 96.455 335.22 97.7444 327.371L98.7145 327.531C97.4153 335.441 95.5078 341.806 93.6638 347.96C91.0503 356.679 88.5817 364.916 87.759 377.101C87.0989 386.859 82.8387 391.94 78.7182 396.854C73.6498 402.899 68.8626 408.609 71.1405 422.664L70.1697 422.821Z" fill="#A0A9AF"/>
<path fill-rule="evenodd" clip-rule="evenodd" d="M62.9717 423.58C56.6067 414.848 58.7817 399.405 61.0851 383.056C64.1424 361.354 67.6074 336.757 52.8578 320.81C34.9821 301.486 35.5917 277.572 35.9562 263.285C36.1364 256.215 36.2662 251.108 34.1522 250.317C31.7045 249.402 25.2222 252.225 19.0178 258.382C11.4637 265.88 -4.62508 287.375 9.09538 324.93C10.824 329.662 10.8063 334.897 10.7873 340.439C10.7473 352.082 10.7007 365.279 27.2825 377.928C31.5544 381.186 33.9411 387.221 36.7048 394.207C40.3704 403.475 44.525 413.98 54.319 421.235L53.7336 422.025C43.7141 414.603 39.5044 403.959 35.7903 394.569C33.0811 387.719 30.7409 381.803 26.686 378.71C9.71615 365.764 9.76269 352.308 9.80399 340.436C9.82234 334.984 9.8407 329.834 8.17177 325.267C-5.74403 287.178 10.6371 265.316 18.3256 257.684C24.8925 251.167 31.7039 248.353 34.4964 249.396C37.2672 250.432 37.1367 255.555 36.9388 263.31C36.5783 277.448 35.9752 301.111 53.5795 320.143C68.6464 336.432 65.1467 361.274 62.0585 383.194C59.7846 399.339 57.6352 414.591 63.7661 423.001L62.9717 423.58Z" fill="#A0A9AF"/>
<path fill-rule="evenodd" clip-rule="evenodd" d="M26.4044 263.678L25.526 263.238C25.9154 262.46 26.1487 262.05 26.1487 262.05L27.0042 262.536C27.0002 262.542 26.7767 262.936 26.4044 263.678ZM24.2805 268.435L23.368 268.069C23.5398 267.641 23.7076 267.233 23.8708 266.847L24.7767 267.23C24.6155 267.61 24.4503 268.012 24.2805 268.435ZM22.5021 273.337L21.5674 273.033C21.707 272.604 21.8473 272.187 21.9869 271.78L22.9164 272.1C22.7787 272.502 22.6398 272.915 22.5021 273.337ZM21.0449 278.343L20.0925 278.099C20.2039 277.667 20.316 277.241 20.4307 276.824L21.3792 277.083C21.2658 277.496 21.1544 277.916 21.0449 278.343ZM19.9109 283.433L18.9447 283.249C19.0273 282.813 19.1125 282.382 19.2003 281.956L20.1633 282.155C20.0767 282.575 19.9922 283.002 19.9109 283.433ZM19.1118 288.584L18.1358 288.466C18.1889 288.025 18.2452 287.589 18.3055 287.157L19.279 287.292C19.22 287.718 19.1643 288.148 19.1118 288.584ZM18.6628 293.774L17.6808 293.724C17.7038 293.281 17.7307 292.842 17.7602 292.406L18.7415 292.474C18.712 292.904 18.6851 293.338 18.6628 293.774ZM17.5969 299.002C17.5878 298.559 17.5832 298.119 17.5825 297.682L18.5658 297.68C18.5664 298.112 18.571 298.546 18.5795 298.983L17.5969 299.002ZM17.8978 304.274C17.8565 303.833 17.8185 303.394 17.7857 302.957L18.7664 302.883C18.7991 303.314 18.8359 303.746 18.8771 304.181L17.8978 304.274ZM18.5953 309.508C18.5206 309.072 18.4498 308.637 18.3836 308.204L19.3557 308.056C19.4206 308.482 19.4901 308.91 19.5641 309.34L18.5953 309.508ZM19.6939 314.673C19.5851 314.245 19.4809 313.816 19.3812 313.39L20.3396 313.166C20.4373 313.587 20.5395 314.009 20.647 314.432L19.6939 314.673ZM21.1904 319.738C21.0489 319.318 20.9119 318.9 20.7794 318.483L21.7168 318.185C21.8473 318.596 21.9823 319.009 22.1219 319.422L21.1904 319.738ZM23.0763 324.67C22.9026 324.264 22.7335 323.856 22.569 323.451L23.4808 323.082C23.6427 323.482 23.8092 323.883 23.9803 324.283L23.0763 324.67ZM25.3326 329.442C25.1281 329.05 24.9295 328.658 24.7348 328.265L25.6158 327.828C25.8072 328.215 26.0038 328.602 26.2051 328.989L25.3326 329.442ZM27.935 334.035C27.7029 333.658 27.4761 333.281 27.2532 332.905L28.1002 332.404C28.3198 332.776 28.5439 333.148 28.7727 333.519L27.935 334.035ZM30.8179 338.429C30.5826 338.068 30.342 337.707 30.0962 337.348L30.909 336.793C31.1575 337.158 31.4026 337.524 31.6419 337.892L30.8179 338.429ZM33.4681 342.904C33.2643 342.523 33.0552 342.143 32.8415 341.764L33.6982 341.281C33.9152 341.666 34.1276 342.052 34.3347 342.44L33.4681 342.904ZM35.7309 347.593C35.5585 347.194 35.3822 346.797 35.2013 346.402L36.0961 345.993C36.2796 346.395 36.4586 346.798 36.6329 347.203L35.7309 347.593ZM37.5952 352.453C37.4562 352.042 37.3133 351.632 37.1659 351.223L38.0908 350.889C38.2409 351.305 38.3858 351.722 38.5267 352.138L37.5952 352.453ZM39.0675 357.448C38.9606 357.028 38.8499 356.607 38.7351 356.187L39.6837 355.928C39.8003 356.354 39.9124 356.78 40.0206 357.206L39.0675 357.448ZM40.1596 362.542C40.0842 362.115 40.0049 361.688 39.921 361.261L40.8859 361.072C40.9704 361.505 41.0511 361.938 41.1278 362.37L40.1596 362.542ZM40.8905 367.704C40.8433 367.272 40.7941 366.84 40.7397 366.408L41.7157 366.287C41.7701 366.724 41.8213 367.161 41.8678 367.598L40.8905 367.704Z" fill="#A0A9AF"/>
<path fill-rule="evenodd" clip-rule="evenodd" d="M74.6034 417.458L74.1636 416.579C83.8861 411.71 87.262 402.915 89.886 394.326L90.8266 394.613C88.2577 403.022 84.6734 412.416 74.6034 417.458Z" fill="#A0A9AF"/>
<path fill-rule="evenodd" clip-rule="evenodd" d="M41.0364 411.197C21.0512 403.46 23.4026 382.065 23.4288 381.849L24.4048 381.967C24.3799 382.175 22.1296 402.824 41.3917 410.281L41.0364 411.197Z" fill="#A0A9AF"/>
<path fill-rule="evenodd" clip-rule="evenodd" d="M59.5723 128.278L56.7234 121.833C55.181 123.357 52.5098 125.922 51.8163 126.109L51.5613 125.159L51.6891 125.634L51.5488 125.163C52.0123 124.983 54.4488 122.719 56.5366 120.633L57.0433 120.126L60.0114 126.841L65.0975 123.644L69.6789 127.182L69.0778 127.961L65.0392 124.841L59.5723 128.278Z" fill="#A0A9AF"/>
<path fill-rule="evenodd" clip-rule="evenodd" d="M391.904 368.138C391.845 367.7 391.796 367.259 391.755 366.816L392.734 366.727C392.774 367.155 392.821 367.582 392.878 368.007L391.904 368.138ZM393.021 373.325C392.897 372.9 392.779 372.473 392.671 372.046L393.623 371.803C393.729 372.219 393.844 372.634 393.965 373.049L393.021 373.325ZM394.808 378.309C394.637 377.901 394.471 377.492 394.311 377.083L395.226 376.725C395.384 377.126 395.547 377.527 395.715 377.929L394.808 378.309ZM397.038 383.092C396.838 382.699 396.643 382.305 396.451 381.912L397.334 381.48C397.524 381.869 397.718 382.258 397.915 382.647L397.038 383.092ZM399.515 387.734C399.302 387.349 399.091 386.966 398.882 386.583L399.745 386.111C399.953 386.493 400.164 386.874 400.375 387.258L399.515 387.734ZM402.084 392.31L401.441 391.169L402.297 390.686L402.941 391.828L402.084 392.31ZM404.621 396.89C404.413 396.505 404.205 396.122 403.996 395.741L404.859 395.269C405.068 395.652 405.277 396.037 405.486 396.423L404.621 396.89ZM407.02 401.531C406.828 401.14 406.634 400.751 406.438 400.363L407.317 399.92C407.513 400.311 407.709 400.704 407.903 401.099L407.02 401.531ZM409.185 406.276C409.016 405.874 408.845 405.474 408.67 405.079L409.57 404.683C409.747 405.084 409.92 405.488 410.091 405.895L409.185 406.276ZM411.034 411.142C410.894 410.729 410.752 410.319 410.605 409.913L411.53 409.58C411.679 409.993 411.824 410.408 411.966 410.826L411.034 411.142ZM412.495 416.13C412.39 415.707 412.281 415.288 412.169 414.872L413.118 414.615C413.233 415.038 413.343 415.464 413.45 415.894L412.495 416.13ZM413.52 421.223C413.453 420.792 413.382 420.365 413.306 419.941L414.274 419.769C414.351 420.2 414.424 420.634 414.491 421.072L413.52 421.223ZM414.082 426.385C414.054 425.95 414.021 425.518 413.985 425.089L414.964 425.005C415.001 425.441 415.035 425.881 415.063 426.323L414.082 426.385ZM415.164 431.605L414.182 431.581C414.192 431.145 414.198 430.711 414.2 430.281L415.183 430.284C415.181 430.721 415.176 431.162 415.164 431.605ZM414.82 436.876L413.843 436.773C413.889 436.338 413.93 435.907 413.967 435.478L414.946 435.563C414.909 435.998 414.867 436.436 414.82 436.876ZM414.068 442.102L413.1 441.927C413.179 441.496 413.252 441.069 413.322 440.644L414.292 440.802C414.222 441.232 414.147 441.666 414.068 442.102ZM412.952 447.258L411.998 447.02C412.105 446.596 412.207 446.173 412.306 445.753L413.263 445.977C413.164 446.401 413.06 446.829 412.952 447.258ZM411.701 451.746L410.761 451.459L410.963 450.791L411.905 451.072L411.701 451.746Z" fill="#A0A9AF"/>
<path fill-rule="evenodd" clip-rule="evenodd" d="M424.55 452.542L423.645 452.158C438.46 417.196 422.292 389.525 411.336 376.142C402.07 364.825 392.409 358.71 390.24 359.161C388.28 359.562 383.147 367.982 380.732 381.983L379.763 381.816C381.964 369.053 387.006 358.82 390.042 358.198C392.79 357.63 402.749 364.101 412.096 375.519C423.193 389.074 439.567 417.104 424.55 452.542Z" fill="#A0A9AF"/>
<path fill-rule="evenodd" clip-rule="evenodd" d="M444.715 453.129L443.978 452.478C452.815 442.472 453.973 433.551 455.313 423.222C456.099 417.17 456.91 410.914 459.364 403.855C463.879 390.86 460.322 382.709 456.881 374.828C453.653 367.435 450.315 359.791 453.703 348.363C458.387 332.56 450.929 316.411 443.52 311.79C441.586 310.585 438.768 309.617 436.33 311.861C434.323 313.707 434.656 319.023 435.008 324.649C435.381 330.574 435.765 336.7 433.655 340.444C432.667 342.198 431.512 343.932 430.291 345.767C425.241 353.355 419.517 361.955 422.953 376.23L421.998 376.46C418.46 361.767 424.31 352.978 429.472 345.222C430.684 343.402 431.828 341.684 432.799 339.962C434.765 336.471 434.39 330.493 434.028 324.711C433.659 318.843 433.312 313.301 435.663 311.137C437.921 309.059 440.897 308.995 444.041 310.957C451.715 315.743 459.462 332.395 454.645 348.642C451.36 359.726 454.479 366.871 457.781 374.434C461.298 382.49 464.935 390.819 460.293 404.178C457.872 411.14 457.067 417.347 456.288 423.348C454.984 433.401 453.751 442.898 444.715 453.129Z" fill="#A0A9AF"/>
<path fill-rule="evenodd" clip-rule="evenodd" d="M246.183 26.5898C224.991 26.5898 207.749 43.8322 207.749 65.0257C207.749 86.2191 224.991 103.462 246.183 103.462C267.375 103.462 284.617 86.2191 284.617 65.0257C284.617 43.8322 267.375 26.5898 246.183 26.5898ZM246.183 114.981C218.639 114.981 196.231 92.5715 196.231 65.0257C196.231 37.4806 218.639 15.071 246.183 15.071C273.726 15.071 296.135 37.4806 296.135 65.0257C296.135 92.5715 273.726 114.981 246.183 114.981Z" fill="#EEC643"/>
<mask id="mask0" mask-type="alpha" maskUnits="userSpaceOnUse" x="0" y="0" width="470" height="472">
<path fill-rule="evenodd" clip-rule="evenodd" d="M0 472H469.887V0.536865H0V472Z" fill="white"/>
</mask>
<g mask="url(#mask0)">
<path fill-rule="evenodd" clip-rule="evenodd" d="M0 457.786H469.887V456.803H0V457.786Z" fill="#252C32"/>
<path fill-rule="evenodd" clip-rule="evenodd" d="M204.226 95.8813C196.962 86.8877 192.961 75.5558 192.961 63.9715C192.961 35.9511 215.756 13.1548 243.775 13.1548C271.794 13.1548 294.588 35.9511 294.588 63.9715C294.588 73.578 291.895 82.9308 286.8 91.0204L285.968 90.4959C290.964 82.5644 293.605 73.3918 293.605 63.9715C293.605 36.4932 271.251 14.1381 243.775 14.1381C216.299 14.1381 193.945 36.4932 193.945 63.9715C193.945 75.331 197.868 86.4439 204.991 95.2638L204.226 95.8813Z" fill="#252C32"/>
<path fill-rule="evenodd" clip-rule="evenodd" d="M243.535 102.339C242.046 102.339 240.545 102.256 239.034 102.088C221.566 100.139 207.24 86.0895 204.971 68.6819C202.757 51.6939 211.67 35.4433 227.153 28.2446L227.567 29.1362C212.476 36.1533 203.787 51.9948 205.946 68.5547C208.157 85.5192 222.119 99.2111 239.144 101.11C250.059 102.328 260.551 98.9889 268.689 91.7083C276.724 84.5195 281.331 74.2351 281.331 63.4912V61.5167H282.314V63.4912C282.314 74.5144 277.587 85.0662 269.344 92.4412C262.121 98.9037 253.09 102.339 243.535 102.339Z" fill="#252C32"/>
<path fill-rule="evenodd" clip-rule="evenodd" d="M280.003 52.2455C275.042 36.3259 260.513 25.6306 243.85 25.6306C238.299 25.6306 232.948 26.8099 227.944 29.1365L227.529 28.2449C232.664 25.8574 238.155 24.6472 243.85 24.6472C260.945 24.6472 275.851 35.6206 280.942 51.9531L280.003 52.2455Z" fill="#252C32"/>
<path fill-rule="evenodd" clip-rule="evenodd" d="M276.978 66.6444L276.283 65.9488L281.885 60.3464L287.318 65.7797L286.623 66.4746L281.885 61.7369L276.978 66.6444Z" fill="#252C32"/>
<path fill-rule="evenodd" clip-rule="evenodd" d="M205.727 64.4633H211.864V63.48H205.727V64.4633Z" fill="#252C32"/>
<path fill-rule="evenodd" clip-rule="evenodd" d="M210.884 83.0937L210.392 82.2421L215.557 79.26L216.048 80.1116L210.884 83.0937Z" fill="#252C32"/>
<path fill-rule="evenodd" clip-rule="evenodd" d="M225.101 96.9517L224.249 96.46L227.231 91.2949L228.082 91.7866L225.101 96.9517Z" fill="#252C32"/>
<path fill-rule="evenodd" clip-rule="evenodd" d="M243.284 102.022H244.267V95.8848H243.284V102.022Z" fill="#252C32"/>
<path fill-rule="evenodd" clip-rule="evenodd" d="M262.599 96.9517L259.617 91.7866L260.468 91.2949L263.45 96.46L262.599 96.9517Z" fill="#252C32"/>
<path fill-rule="evenodd" clip-rule="evenodd" d="M276.816 83.0937L271.651 80.1116L272.143 79.26L277.307 82.2421L276.816 83.0937Z" fill="#252C32"/>
<path fill-rule="evenodd" clip-rule="evenodd" d="M227.231 35.689L224.249 30.5239L225.101 30.0322L228.082 35.1973L227.231 35.689Z" fill="#252C32"/>
<path fill-rule="evenodd" clip-rule="evenodd" d="M215.557 47.7236L210.392 44.7415L210.884 43.8899L216.048 46.872L215.557 47.7236Z" fill="#252C32"/>
<path fill-rule="evenodd" clip-rule="evenodd" d="M219.228 63.2355H240.094V62.2522H219.228V63.2355Z" fill="#252C32"/>
<path fill-rule="evenodd" clip-rule="evenodd" d="M259.071 73.9174L247.496 66.7142L248.015 65.8796L259.59 73.0829L259.071 73.9174Z" fill="#252C32"/>
<path fill-rule="evenodd" clip-rule="evenodd" d="M243.284 59.0617H244.267V39.4226H243.284V59.0617Z" fill="#252C32"/>
<path fill-rule="evenodd" clip-rule="evenodd" d="M243.849 60.0776C241.967 60.0776 240.435 61.6089 240.435 63.4917C240.435 65.3745 241.967 66.9065 243.849 66.9065C245.732 66.9065 247.263 65.3745 247.263 63.4917C247.263 61.6089 245.732 60.0776 243.849 60.0776ZM243.849 67.8898C241.425 67.8898 239.452 65.9166 239.452 63.4917C239.452 61.0668 241.425 59.0942 243.849 59.0942C246.274 59.0942 248.246 61.0668 248.246 63.4917C248.246 65.9166 246.274 67.8898 243.849 67.8898Z" fill="#252C32"/>
<path fill-rule="evenodd" clip-rule="evenodd" d="M242.019 1.54445L241.991 0.561776C242.429 0.548665 242.869 0.540799 243.31 0.536865L243.318 1.5202C242.884 1.52413 242.451 1.532 242.019 1.54445ZM248.516 1.6913C248.084 1.65918 247.652 1.63099 247.218 1.60804L247.271 0.626021C247.711 0.649621 248.15 0.67781 248.588 0.710587L248.516 1.6913ZM236.832 1.91091L236.722 0.933476C237.158 0.88431 237.597 0.839076 238.037 0.799087L238.126 1.77849C237.693 1.81782 237.262 1.8624 236.832 1.91091ZM253.68 2.2931C253.253 2.22558 252.824 2.16133 252.393 2.10233L252.529 1.12752C252.965 1.18849 253.4 1.25273 253.834 1.32222L253.68 2.2931ZM231.694 2.70938L231.502 1.74571C231.934 1.65918 232.366 1.57789 232.801 1.50119L232.973 2.4701C232.545 2.54549 232.119 2.62547 231.694 2.70938ZM258.776 3.32691C258.355 3.22333 257.934 3.12369 257.51 3.02863L257.726 2.0689C258.156 2.16592 258.585 2.26688 259.011 2.37242L258.776 3.32691ZM226.642 3.93789L226.37 2.99323C226.792 2.8713 227.217 2.75395 227.643 2.64054L227.896 3.5911C227.476 3.70254 227.058 3.81792 226.642 3.93789ZM263.77 4.7888C263.359 4.64917 262.945 4.51412 262.53 4.38301L262.826 3.44491C263.248 3.57864 263.668 3.71631 264.086 3.85791L263.77 4.7888ZM221.712 5.58923L221.36 4.6708C221.771 4.51412 222.184 4.36072 222.599 4.21191L222.932 5.13755C222.523 5.2844 222.116 5.43452 221.712 5.58923ZM268.628 6.6709C268.231 6.49718 267.83 6.32673 267.428 6.16088L267.803 5.25228C268.212 5.42075 268.618 5.59317 269.022 5.76951L268.628 6.6709ZM216.947 7.64637L216.52 6.76071C216.915 6.56994 217.313 6.38311 217.712 6.20087L218.121 7.09504C217.727 7.27467 217.336 7.45822 216.947 7.64637ZM273.308 8.9542C272.927 8.7477 272.543 8.54513 272.156 8.34584L272.605 7.47199C272.998 7.6739 273.388 7.87974 273.776 8.08952L273.308 8.9542ZM212.37 10.0981L211.87 9.25117C212.248 9.02828 212.629 8.80867 213.012 8.59233L213.494 9.4498C213.117 9.66154 212.742 9.87788 212.37 10.0981ZM277.777 11.623C277.415 11.385 277.049 11.151 276.681 10.9202L277.203 10.087C277.577 10.321 277.948 10.559 278.317 10.8009L277.777 11.623ZM208.012 12.9262L207.443 12.1245C207.801 11.8695 208.162 11.619 208.526 11.3719L209.079 12.1854C208.72 12.4286 208.365 12.6758 208.012 12.9262ZM282.005 14.6556C281.665 14.3881 281.32 14.1239 280.972 13.8637L281.562 13.077C281.915 13.3412 282.264 13.6093 282.612 13.8807L282.005 14.6556ZM203.904 16.1102L203.269 15.3583C203.605 15.0745 203.945 14.7945 204.286 14.5179L204.905 15.2823C204.568 15.5543 204.235 15.8303 203.904 16.1102ZM285.965 18.0297C285.647 17.7347 285.326 17.443 285.002 17.1552L285.655 16.4203C285.984 16.7127 286.311 17.009 286.633 17.3079L285.965 18.0297ZM200.073 19.6266L199.379 18.9304C199.691 18.6197 200.005 18.3123 200.323 18.0074L201.004 18.7174C200.69 19.0176 200.38 19.3205 200.073 19.6266ZM289.628 21.7205C289.336 21.4006 289.04 21.0833 288.742 20.7699L289.455 20.0914C289.758 20.4107 290.058 20.7326 290.355 21.0584L289.628 21.7205ZM196.549 23.4518L195.798 22.8159C196.083 22.4803 196.371 22.1466 196.663 21.8169L197.4 22.4678C197.112 22.793 196.829 23.1208 196.549 23.4518ZM292.97 25.703C292.705 25.3595 292.438 25.0192 292.166 24.6816L292.932 24.0654C293.207 24.4076 293.48 24.7537 293.749 25.1025L292.97 25.703ZM193.354 27.5589L192.553 26.9879C192.809 26.6286 193.069 26.2727 193.331 25.9193L194.121 26.506C193.861 26.8541 193.605 27.2049 193.354 27.5589ZM295.966 29.9477C295.732 29.5839 295.494 29.2227 295.251 28.8641L296.067 28.3141C296.313 28.6786 296.554 29.0457 296.792 29.4154L295.966 29.9477ZM190.513 31.9196L189.667 31.4181C189.892 31.0386 190.121 30.6616 190.354 30.2873L191.189 30.8065C190.96 31.1749 190.734 31.546 190.513 31.9196ZM298.596 34.4278C298.393 34.0456 298.185 33.666 297.974 33.2884L298.832 32.8086C299.047 33.1921 299.257 33.5775 299.464 33.9656L298.596 34.4278ZM188.047 36.5059L187.162 36.0772C187.355 35.6799 187.552 35.2846 187.752 34.8913L188.628 35.339C188.431 35.7258 188.237 36.1145 188.047 36.5059ZM300.838 39.1084C300.668 38.7112 300.494 38.3159 300.315 37.9225L301.211 37.5168C301.393 37.9153 301.569 38.3172 301.742 38.721L300.838 39.1084ZM185.976 41.2862L185.058 40.9329C185.217 40.5205 185.38 40.1095 185.547 39.7011L186.457 40.0728C186.293 40.4753 186.133 40.8791 185.976 41.2862ZM302.681 43.9641C302.544 43.5525 302.403 43.1421 302.257 42.7343L303.184 42.4052C303.332 42.8195 303.474 43.2358 303.614 43.6547L302.681 43.9641ZM184.318 46.2212L183.374 45.9479C183.496 45.5237 183.623 45.1022 183.754 44.682L184.693 44.9757C184.563 45.3893 184.439 45.8043 184.318 46.2212ZM304.107 48.9634C304.006 48.5419 303.9 48.1217 303.79 47.7034L304.741 47.453C304.853 47.8785 304.96 48.3059 305.063 48.734L304.107 48.9634ZM183.084 51.2723L182.12 51.0795C182.206 50.6469 182.297 50.2162 182.392 49.7868L183.352 49.9998C183.258 50.422 183.169 50.8468 183.084 51.2723ZM305.108 54.0669C305.041 53.6375 304.972 53.2094 304.897 52.7833L305.866 52.6142C305.941 53.0475 306.013 53.4822 306.079 53.9181L305.108 54.0669ZM182.28 56.4099L181.303 56.2991C181.353 55.8605 181.407 55.4233 181.466 54.9873L182.44 55.1197C182.382 55.5478 182.329 55.9785 182.28 56.4099ZM305.675 59.2353C305.646 58.802 305.612 58.37 305.574 57.9386L306.553 57.8521C306.592 58.29 306.626 58.7286 306.657 59.1691L305.675 59.2353ZM181.909 61.596L180.925 61.5671C180.938 61.1259 180.956 60.6861 180.978 60.2468L181.96 60.2973C181.939 60.7287 181.921 61.162 181.909 61.596ZM306.795 64.4503L305.812 64.4352C305.817 64.1218 305.819 63.8072 305.819 63.4918L305.818 63.1339L306.801 63.1287L306.803 63.4912C306.803 63.8117 306.8 64.131 306.795 64.4503ZM180.985 66.8496C180.961 66.411 180.943 65.9705 180.929 65.5293L181.912 65.4985C181.926 65.9331 181.944 66.3658 181.966 66.7978L180.985 66.8496ZM306.498 69.7242L305.519 69.6278C305.561 69.1978 305.6 68.7658 305.633 68.3325L306.613 68.4078C306.579 68.8484 306.54 69.2863 306.498 69.7242ZM181.481 72.1091C181.422 71.6738 181.366 71.2366 181.316 70.798L182.293 70.6852C182.343 71.1166 182.397 71.5466 182.455 71.9754L181.481 72.1091ZM305.76 74.9608L304.793 74.7825C304.872 74.355 304.946 73.9263 305.016 73.4963L305.986 73.6543C305.916 74.0909 305.84 74.5268 305.76 74.9608ZM182.417 77.309C182.322 76.8796 182.23 76.4495 182.142 76.0169L183.106 75.8222C183.192 76.2476 183.283 76.6718 183.377 77.0939L182.417 77.309ZM304.584 80.1154L303.636 79.8565C303.75 79.4376 303.86 79.0174 303.966 78.5952L304.92 78.8338C304.812 79.2632 304.701 79.69 304.584 80.1154ZM183.788 82.4066C183.655 81.9883 183.528 81.5675 183.405 81.1453L184.349 80.87C184.47 81.2862 184.595 81.6999 184.725 82.1116L183.788 82.4066ZM302.977 85.152L302.054 84.8138C302.204 84.406 302.349 83.997 302.489 83.5853L303.42 83.9039C303.277 84.3221 303.129 84.7377 302.977 85.152ZM185.583 87.3717C185.416 86.966 185.254 86.5576 185.096 86.1472L186.013 85.7932C186.169 86.197 186.329 86.5989 186.493 86.9987L185.583 87.3717ZM300.951 90.0346L300.059 89.619C300.243 89.2257 300.421 88.8304 300.597 88.4331L301.497 88.8284C301.319 89.2329 301.137 89.6347 300.951 90.0346ZM187.792 92.1691C187.591 91.7784 187.395 91.3844 187.202 90.9891L188.087 90.5591C188.276 90.9485 188.47 91.3359 188.666 91.7207L187.792 92.1691ZM298.52 94.7271L297.667 94.2387C297.883 93.8624 298.094 93.4835 298.302 93.102L299.165 93.5727C298.954 93.9601 298.739 94.3449 298.52 94.7271ZM190.396 96.7639C190.163 96.3915 189.934 96.0153 189.71 95.6376L190.554 95.1342C190.776 95.5065 191.001 95.8763 191.231 96.244L190.396 96.7639ZM295.705 99.1993L294.895 98.6414C295.142 98.2841 295.384 97.9242 295.623 97.5617L296.444 98.1032C296.201 98.4716 295.955 98.8368 295.705 99.1993ZM193.377 101.125C193.114 100.773 192.854 100.417 192.598 100.059L193.398 99.4871C193.65 99.8398 193.906 100.19 194.165 100.537L193.377 101.125ZM292.524 103.42L291.765 102.796C292.041 102.461 292.312 102.122 292.58 101.782L293.353 102.389C293.081 102.736 292.804 103.08 292.524 103.42ZM196.712 105.223C196.42 104.893 196.131 104.561 195.846 104.225L196.596 103.589C196.876 103.919 197.16 104.246 197.447 104.571L196.712 105.223ZM289.005 107.36L288.3 106.675C288.602 106.364 288.901 106.049 289.196 105.732L289.915 106.403C289.615 106.724 289.312 107.044 289.005 107.36ZM200.377 109.028C200.058 108.724 199.742 108.416 199.43 108.105L200.124 107.409C200.432 107.715 200.742 108.018 201.056 108.317L200.377 109.028ZM285.169 110.992L284.523 110.251C284.85 109.965 285.174 109.678 285.495 109.386L286.155 110.114C285.83 110.41 285.501 110.702 285.169 110.992ZM204.347 112.515C204.004 112.238 203.664 111.958 203.327 111.675L203.96 110.922C204.292 111.201 204.627 111.477 204.964 111.75L204.347 112.515ZM281.044 114.291L280.462 113.499C280.811 113.243 281.158 112.982 281.502 112.719L282.1 113.5C281.75 113.767 281.398 114.031 281.044 114.291ZM208.594 115.658C208.23 115.411 207.867 115.16 207.507 114.905L208.076 114.103C208.43 114.354 208.786 114.601 209.146 114.844L208.594 115.658ZM277.125 116.946L276.605 116.111C276.82 115.978 277.033 115.843 277.246 115.707L277.775 116.535C277.56 116.673 277.343 116.811 277.125 116.946ZM213.091 118.436C212.706 118.22 212.324 118.001 211.945 117.777L212.443 116.929C212.817 117.15 213.193 117.366 213.572 117.578L213.091 118.436Z" fill="#252C32"/>
<path fill-rule="evenodd" clip-rule="evenodd" d="M204.379 455.905L203.418 455.694L229.044 339.091L230.004 339.302L204.379 455.905Z" fill="#252C32"/>
<path fill-rule="evenodd" clip-rule="evenodd" d="M288.017 455.905L262.392 339.302L263.353 339.091L288.978 455.694L288.017 455.905Z" fill="#252C32"/>
<path fill-rule="evenodd" clip-rule="evenodd" d="M413.467 203.563L408.999 206.028L403.574 206.94L405.478 205.233L407.728 204.569C407.728 204.569 407.825 203.088 407.354 203.303C406.883 203.519 404.543 204.133 404.543 204.133L400.605 205.292L398.203 207.681L399.921 209.201L399.995 209.155L400.019 210.817C400.231 210.754 408.173 208.411 408.173 208.411L413.757 204.547L413.467 203.563Z" fill="#FFD0A4"/>
<path fill-rule="evenodd" clip-rule="evenodd" d="M275.904 214.69L269.718 235.439C269.718 235.439 302.833 252.575 357.045 244.59C372.251 245.695 400.89 210.988 400.89 210.988L398.451 204.894C398.451 204.894 377.118 215.119 357.829 223.97C321.551 205.866 287.441 193.105 287.618 193.992C287.796 194.879 275.904 214.69 275.904 214.69Z" fill="#B73535"/>
<path fill-rule="evenodd" clip-rule="evenodd" d="M380.995 126.985L379.232 131.774L375.728 136.015L376.05 133.478L377.315 131.504C377.315 131.504 376.42 130.32 376.204 130.792C375.989 131.263 374.622 133.259 374.622 133.259L372.406 136.713L372.153 140.092L374.447 140.116L374.473 140.033L375.579 141.273C375.698 141.088 380.168 134.115 380.168 134.115L381.859 127.539L380.995 126.985Z" fill="#FFD0A4"/>
<path fill-rule="evenodd" clip-rule="evenodd" d="M262.581 211.571L292.555 235.194C292.555 235.194 306.763 228.968 348.794 193.81C362.333 186.8 376.618 140.896 376.618 140.896L371.352 136.978C371.352 136.978 348.528 160.206 338.68 175.824C320.434 178.874 285.524 189.84 286.139 190.503C286.754 191.166 262.581 211.571 262.581 211.571Z" fill="#C93A36"/>
<path fill-rule="evenodd" clip-rule="evenodd" d="M147.666 122.742L146.557 119.54L143.528 116.771C143.528 116.771 141.695 115.192 141.366 114.791C141.037 114.39 140.475 115.764 140.475 115.764L142.204 117.348L143.166 119.717L138.693 116.516L135.76 112.34L135.067 113.096L138.388 119.02C138.388 119.02 144.495 124.613 144.658 124.762L145.409 123.279L145.455 123.353L147.666 122.742Z" fill="#FFD0A4"/>
<path fill-rule="evenodd" clip-rule="evenodd" d="M244.334 212.258L210.929 230.712C210.929 230.712 197.917 222.267 162.136 180.764C149.912 171.653 143.252 124.041 143.252 124.041L149.083 121.027C149.083 121.027 167.843 147.647 175.03 164.654C192.541 170.619 225.214 187.098 224.5 187.652C223.785 188.207 244.334 212.258 244.334 212.258Z" fill="#B73535"/>
<path fill-rule="evenodd" clip-rule="evenodd" d="M200.09 344.321H291.7V325.51H200.09V344.321Z" fill="#1E2428"/>
<path fill-rule="evenodd" clip-rule="evenodd" d="M276.325 327.024H215.465C206.974 327.024 200.09 320.14 200.09 311.647H291.7C291.7 320.14 284.817 327.024 276.325 327.024Z" fill="#B73535"/>
<path fill-rule="evenodd" clip-rule="evenodd" d="M233.586 449.592L229.801 458.924L226.27 455.619L230.133 443.32L233.586 449.592Z" fill="#FFD0A4"/>
</g>
<mask id="mask1" mask-type="alpha" maskUnits="userSpaceOnUse" x="222" y="455" width="20" height="17">
<path fill-rule="evenodd" clip-rule="evenodd" d="M222.533 459.932L239.9 471.299C240.815 471.998 242.22 471.051 241.685 470.06C238.635 464.408 231.129 458.877 231.129 458.877L226.368 455.21L222.533 459.932Z" fill="white"/>
</mask>
<g mask="url(#mask1)">
<path fill-rule="evenodd" clip-rule="evenodd" d="M222.533 459.932L239.9 471.299C240.815 471.998 242.22 471.051 241.685 470.06C238.635 464.408 231.129 458.877 231.129 458.877L226.368 455.21L222.533 459.932Z" fill="url(#paint0_linear)"/>
</g>
<path fill-rule="evenodd" clip-rule="evenodd" d="M256 451.502L260.974 460L264 456.348L258.55 445L256 451.502Z" fill="#FFD0A4"/>
<mask id="mask2" mask-type="alpha" maskUnits="userSpaceOnUse" x="250" y="455" width="17" height="17">
<path fill-rule="evenodd" clip-rule="evenodd" d="M261.391 457.14L259.148 458.465C259.148 458.465 253.006 465.564 250.395 470.547C249.917 471.459 250.998 472.4 251.851 471.823L266.548 460.086L263.585 455.443L261.391 457.14Z" fill="white"/>
</mask>
<g mask="url(#mask2)">
<path fill-rule="evenodd" clip-rule="evenodd" d="M261.391 457.14L259.148 458.465C259.148 458.465 253.006 465.564 250.395 470.547C249.917 471.459 250.998 472.4 251.851 471.823L266.548 460.086L263.585 455.443L261.391 457.14Z" fill="url(#paint1_linear)"/>
</g>
<path fill-rule="evenodd" clip-rule="evenodd" d="M227.424 209.353L229.766 230.877C229.766 230.877 191.71 240.092 139.829 222.458C124.673 220.803 90.8169 192.69 90.8169 192.69L94.3147 187.137C94.3147 187.137 120.432 193.18 142.776 202.034C181.726 190.773 219.969 186.04 219.636 186.88C219.301 187.721 227.424 209.353 227.424 209.353Z" fill="#C93A36"/>
<path fill-rule="evenodd" clip-rule="evenodd" d="M239.499 193.902H254.753C253.142 186.928 251.229 174.973 249.658 163.63H242.105C241.665 168.915 240.391 180.871 239.499 193.902Z" fill="#FFD7CF"/>
<path fill-rule="evenodd" clip-rule="evenodd" d="M185.769 202.314C185.769 202.314 194.866 185.304 246.673 184.609C302.779 183.857 306.006 203.021 306.006 203.021C308.058 216.712 280.042 299.713 275.416 303.275C270.79 306.838 224.233 307.385 219.347 304.065C214.461 300.746 182.977 224.446 185.769 202.314Z" fill="#DF443A"/>
<path fill-rule="evenodd" clip-rule="evenodd" d="M294.62 200.537L301.477 196.459C301.477 196.459 348.111 234.585 332.701 290.505C326.91 310.88 275.471 310.792 275.471 310.792L271.627 300.115C271.627 300.115 293.347 290.7 311.773 281.749C300.718 263.321 288.29 234.722 289.291 234.894C290.291 235.065 294.62 200.537 294.62 200.537Z" fill="#DF443A"/>
<path fill-rule="evenodd" clip-rule="evenodd" d="M244.012 184.227C240.891 184.335 235.695 184.864 232.868 185.043C232.859 185.092 235.186 199.83 245.802 199.83C256.429 199.83 260.443 184.679 260.453 184.658C255.331 184.426 250.345 184.009 244.012 184.227Z" fill="#FFD7CF"/>
<path fill-rule="evenodd" clip-rule="evenodd" d="M248.195 124.842C248.195 124.842 245.031 117.443 239.712 119.619C234.393 121.795 235.499 126.861 237.385 131.472C239.27 136.081 240.968 135.844 234.255 141.768C228.065 147.229 228.003 158.353 236.709 164.477C244.753 170.134 271.437 163.881 263.737 131.5C263.737 131.5 260.184 115.903 252.193 117.412C247.55 118.288 248.195 124.842 248.195 124.842Z" fill="#252C32"/>
<path fill-rule="evenodd" clip-rule="evenodd" d="M256.325 157.538C256.186 156.083 255.229 154.984 254.186 155.083C253.955 155.105 253.743 155.191 253.549 155.317C253.143 153.709 252.518 152.278 251.716 151.124C251.695 151.148 251.674 151.171 251.654 151.194C248.39 154.927 242.47 154.927 239.205 151.194L239.144 151.124C238.341 152.278 237.717 153.709 237.311 155.317C237.116 155.191 236.904 155.105 236.674 155.083C235.631 154.984 234.672 156.083 234.535 157.538C234.397 158.992 235.13 160.252 236.173 160.351C236.393 160.372 236.607 160.329 236.812 160.252C236.821 160.498 236.82 160.741 236.838 160.991C237.308 167.568 241.002 172.691 245.194 172.756C245.287 172.764 245.358 172.756 245.429 172.758C245.501 172.756 245.572 172.764 245.644 172.759C249.857 172.691 253.55 167.568 254.022 160.991C254.039 160.741 254.039 160.498 254.047 160.252C254.252 160.329 254.466 160.372 254.686 160.351C255.729 160.252 256.463 158.992 256.325 157.538Z" fill="#FFD7CF"/>
<path fill-rule="evenodd" clip-rule="evenodd" d="M246.789 200.11C243.732 200.11 239.557 199.051 237.614 196.725L238.369 196.095C239.837 197.852 243.377 199.127 246.789 199.127C253.947 199.127 257.171 192.335 258.974 187.226L259.901 187.553C257.999 192.943 254.57 200.11 246.789 200.11Z" fill="#C02800"/>
<path fill-rule="evenodd" clip-rule="evenodd" d="M196.719 200.779L187.598 200.276C187.598 200.276 151.658 239.72 149.48 289.223C148.499 309.747 210.211 312.817 210.211 312.817L213.116 304.386C213.116 304.386 186.968 289.191 174.333 283.399C187.495 269.71 215.237 239.338 214.222 239.338C213.208 239.338 196.719 200.779 196.719 200.779Z" fill="#DF443A"/>
<path fill-rule="evenodd" clip-rule="evenodd" d="M253.478 455.594C253.478 455.594 197.229 356.206 187.53 337.522C183.289 329.35 187.02 322.995 190.895 320.184C194.447 317.608 202.542 318.343 205.946 321.149C217.341 330.545 261.819 448.703 261.819 448.703L253.478 455.594Z" fill="#252C32"/>
<path fill-rule="evenodd" clip-rule="evenodd" d="M296.065 318.93C290.747 317.583 286.994 319.875 284.803 321.989C279.448 327.157 252.902 385.542 252.902 385.542L227.383 447.839L233.882 453.526C233.882 453.526 303.662 346.978 304.739 330.888C304.982 327.28 301.89 320.405 296.065 318.93Z" fill="#252C32"/>
<path fill-rule="evenodd" clip-rule="evenodd" d="M92.3673 190.981L93.9628 189.334L91.384 187.137L87.369 186.284C87.369 186.284 84.9882 185.853 84.5012 185.674C84.0155 185.495 84.2272 186.964 84.2272 186.964L86.5208 187.453L88.5509 189.009L83.0722 188.517L78.4266 186.403L78.2129 187.407L84.0777 190.83C84.0777 190.83 92.1779 192.554 92.3935 192.6L92.2893 190.941L92.3673 190.981Z" fill="#FFD0A4"/>
<path fill-rule="evenodd" clip-rule="evenodd" d="M298.669 315.012H187.407C186.293 315.012 185.389 314.108 185.389 312.994L180.445 234.367C180.445 233.253 181.349 232.349 182.463 232.349H303.614C304.728 232.349 305.632 233.253 305.632 234.367L300.687 312.994C300.687 314.108 299.784 315.012 298.669 315.012Z" fill="#E0E8F3"/>
<path fill-rule="evenodd" clip-rule="evenodd" d="M249.601 277.628L248.907 265.868L239.569 274.973L249.601 277.628Z" fill="#C6CFDB"/>
<path fill-rule="evenodd" clip-rule="evenodd" d="M381.666 455.906L350.645 314.743L351.605 314.532L382.627 455.694L381.666 455.906Z" fill="#252C32"/>
<path fill-rule="evenodd" clip-rule="evenodd" d="M387.432 455.906L356.41 314.743L357.371 314.532L388.393 455.694L387.432 455.906Z" fill="#252C32"/>
<mask id="mask3" mask-type="alpha" maskUnits="userSpaceOnUse" x="0" y="0" width="470" height="472">
<path fill-rule="evenodd" clip-rule="evenodd" d="M0 472H469.887V0.536865H0V472Z" fill="white"/>
</mask>
<g mask="url(#mask3)">
<path fill-rule="evenodd" clip-rule="evenodd" d="M94.3384 317.145H387.843V312.556H94.3384V317.145Z" fill="#252C32"/>
<path fill-rule="evenodd" clip-rule="evenodd" d="M356.599 340.756H363.005V339.772H356.599V340.756Z" fill="#103050"/>
<path fill-rule="evenodd" clip-rule="evenodd" d="M102.373 455.906L101.413 455.694L132.435 314.532L133.396 314.743L102.373 455.906Z" fill="#252C32"/>
<path fill-rule="evenodd" clip-rule="evenodd" d="M96.6073 455.906L95.647 455.694L126.669 314.532L127.63 314.743L96.6073 455.906Z" fill="#252C32"/>
<path fill-rule="evenodd" clip-rule="evenodd" d="M121.035 340.756H127.44V339.772H121.035V340.756Z" fill="#252C32"/>
<path fill-rule="evenodd" clip-rule="evenodd" d="M61.5741 159.928C60.6676 159.928 59.8764 159.315 59.6568 158.42L59.5473 157.971L52.4226 158.558L52.3419 157.578L60.3024 156.922L60.6125 158.186C60.7292 158.664 61.1677 158.983 61.662 158.94L70.647 158.186C71.1314 158.145 71.5136 157.764 71.5549 157.279L71.669 155.954L79.3332 155.31L79.4151 156.291L72.5775 156.865L72.5349 157.364C72.4516 158.327 71.6932 159.085 70.7296 159.166L61.7439 159.92C61.6869 159.926 61.6305 159.928 61.5741 159.928ZM56.5097 213.283C55.7827 213.283 55.0852 213.028 54.5235 212.554C53.8935 212.021 53.5087 211.276 53.4399 210.455L49.0723 158.451C49.0028 157.629 49.2578 156.829 49.7894 156.199C50.3217 155.57 51.067 155.185 51.889 155.116L79.3686 152.808C80.1899 152.74 80.989 152.994 81.6189 153.526C82.2482 154.058 82.633 154.804 82.7018 155.625L85.1403 184.649L84.1603 184.732L81.7225 155.708C81.6753 155.147 81.4131 154.64 80.9844 154.277C80.555 153.915 80.0103 153.74 79.4505 153.788L51.9709 156.096C51.4111 156.144 50.9031 156.405 50.5406 156.835C50.1788 157.263 50.0044 157.808 50.0516 158.368L54.4199 210.372C54.4671 210.932 54.7293 211.44 55.158 211.802C55.5867 212.165 56.1288 212.338 56.6912 212.291L84.1708 209.983C85.3265 209.886 86.1878 208.867 86.0902 207.712L84.9378 193.988L85.9178 193.905L87.0708 207.629C87.2124 209.325 85.9492 210.82 84.2534 210.963L56.7732 213.271C56.6853 213.279 56.5975 213.283 56.5097 213.283Z" fill="#252C32"/>
<path fill-rule="evenodd" clip-rule="evenodd" d="M66.0442 188.228C65.9505 188.228 65.8659 188.294 65.8449 188.389L64.8997 192.741C64.8767 192.846 64.9397 192.95 65.0432 192.98L68.4919 193.957C69.7511 194.312 71.1061 193.685 71.6429 192.495C72.7225 190.102 73.7209 185.571 73.3603 181.278C72.9887 177.005 71.2581 172.732 69.8003 170.563C69.0727 169.48 67.6325 169.086 66.45 169.648L63.2124 171.186C63.1161 171.233 63.0708 171.347 63.1108 171.446L64.7633 175.564C64.7909 175.633 64.844 175.664 64.8735 175.677C64.903 175.688 64.9626 175.705 65.0308 175.677L67.8259 174.505C68.2107 174.344 68.6505 174.346 69.0327 174.512C69.4168 174.679 69.7085 174.986 69.854 175.377C70.482 177.066 71.0713 179.692 71.2254 181.486C71.3696 183.24 71.2299 185.888 70.9002 187.647C70.8242 188.051 70.5934 188.401 70.2506 188.63C69.9045 188.862 69.4889 188.943 69.0799 188.858L66.0855 188.233C66.0717 188.23 66.058 188.228 66.0442 188.228ZM69.2051 195.039C68.8793 195.039 68.5496 194.995 68.2244 194.903L64.7751 193.926C64.1734 193.755 63.8056 193.144 63.9394 192.532L64.884 188.18C65.0223 187.545 65.6516 187.14 66.2868 187.27L69.2811 187.895C69.4293 187.927 69.5794 187.897 69.7039 187.813C69.8252 187.732 69.9071 187.608 69.934 187.466C70.2493 185.781 70.3837 183.245 70.2454 181.568C70.0985 179.852 69.5341 177.337 68.9324 175.719C68.8813 175.581 68.7777 175.473 68.642 175.414C68.5017 175.353 68.347 175.352 68.2061 175.412L65.411 176.583C65.1147 176.707 64.7896 176.707 64.4939 176.583C64.1983 176.459 63.9695 176.228 63.8502 175.93L62.1983 171.812C61.9656 171.232 62.2259 170.567 62.7903 170.298L66.0285 168.76C67.6463 167.989 69.6194 168.53 70.6164 170.014C72.149 172.296 73.9693 176.786 74.3449 181.254C74.7061 185.704 73.6645 190.406 72.539 192.9C71.9418 194.223 70.6079 195.039 69.2051 195.039Z" fill="#252C32"/>
<path fill-rule="evenodd" clip-rule="evenodd" d="M60.5907 204.253L60.5088 203.273L79.4687 201.68L79.5507 202.66L60.5907 204.253Z" fill="#252C32"/>
<path fill-rule="evenodd" clip-rule="evenodd" d="M58.844 190.282C57.9427 189.046 57.2675 187.668 56.8375 186.185C55.9369 183.078 56.2069 179.761 57.5973 176.844L58.4848 177.267C57.1987 179.967 56.949 183.036 57.7821 185.911C58.18 187.284 58.8047 188.559 59.6385 189.703L58.844 190.282Z" fill="#252C32"/>
<path fill-rule="evenodd" clip-rule="evenodd" d="M62.1092 186.778C61.634 186.126 61.2781 185.399 61.0512 184.618C60.5767 182.98 60.7189 181.231 61.4518 179.693L62.3393 180.116C61.7107 181.437 61.5881 182.938 61.9958 184.344C62.1905 185.016 62.496 185.639 62.9037 186.199L62.1092 186.778Z" fill="#252C32"/>
<path fill-rule="evenodd" clip-rule="evenodd" d="M133.432 136.203L94.8335 119.702L117.746 66.6917L156.346 83.1913L143.029 114.001L142.127 113.611L155.051 83.7073L118.261 67.9811L96.1275 119.187L132.919 134.913L138.901 121.072L139.804 121.462L133.432 136.203Z" fill="#252C32"/>
<path fill-rule="evenodd" clip-rule="evenodd" d="M117.574 85.2492L143.658 96.3497L147.587 87.2591L121.503 76.1586L117.574 85.2492ZM144.172 97.6372L116.278 85.7671L120.988 74.8711L148.881 86.7412L144.172 97.6372Z" fill="#252C32"/>
<path fill-rule="evenodd" clip-rule="evenodd" d="M130.597 129.045L102.703 117.176L113.892 91.2891L141.785 103.159L139.149 109.257L138.247 108.868L140.49 103.676L114.407 92.5766L103.998 116.658L130.082 127.758L134.926 116.549L135.829 116.939L130.597 129.045Z" fill="#252C32"/>
<path fill-rule="evenodd" clip-rule="evenodd" d="M112.946 120.882L112.043 120.492L122.842 95.509L123.745 95.8991L112.946 120.882Z" fill="#252C32"/>
<path fill-rule="evenodd" clip-rule="evenodd" d="M122.225 124.894L121.323 124.504L132.122 99.5198L133.024 99.9098L122.225 124.894Z" fill="#252C32"/>
<path fill-rule="evenodd" clip-rule="evenodd" d="M128.982 108.018L110.966 100.164L111.36 99.2627L129.376 107.116L128.982 108.018Z" fill="#252C32"/>
<path fill-rule="evenodd" clip-rule="evenodd" d="M125.28 116.584L107.264 108.73L107.657 107.829L125.673 115.682L125.28 116.584Z" fill="#252C32"/>
<path fill-rule="evenodd" clip-rule="evenodd" d="M127.769 84.1339L126.562 83.6226L126.945 82.7173L128.152 83.2286L127.769 84.1339ZM132.598 86.1793L131.39 85.6679L131.773 84.7626L132.981 85.274L132.598 86.1793ZM137.426 88.2253L136.219 87.7133L136.602 86.8086L137.809 87.3199L137.426 88.2253ZM142.255 90.2706L141.048 89.7593L141.431 88.8539L142.638 89.3653L142.255 90.2706Z" fill="#252C32"/>
<path fill-rule="evenodd" clip-rule="evenodd" d="M402.077 138.378L381.575 134.864L381.741 133.895L401.274 137.243L406.701 105.578L359.822 97.5439L354.396 129.209L373.013 132.398L372.846 133.368L353.26 130.011L359.019 96.4084L407.835 104.776L402.077 138.378Z" fill="#252C32"/>
<path fill-rule="evenodd" clip-rule="evenodd" d="M380.241 121.447L359.051 97.3007L359.791 96.6523L380.446 120.19L407.021 104.752L407.514 105.603L380.241 121.447Z" fill="#252C32"/>
<path fill-rule="evenodd" clip-rule="evenodd" d="M362.572 125.214L362.066 124.371L376.214 115.874L376.72 116.717L362.572 125.214Z" fill="#252C32"/>
<path fill-rule="evenodd" clip-rule="evenodd" d="M401.288 138.113L385.507 117.876L386.282 117.271L402.064 137.508L401.288 138.113Z" fill="#252C32"/>
<path fill-rule="evenodd" clip-rule="evenodd" d="M406.898 105.502L387.339 83.23L359.645 97.4143L359.196 96.5391L387.573 82.0061L407.637 104.853L406.898 105.502Z" fill="#252C32"/>
<path fill-rule="evenodd" clip-rule="evenodd" d="M424.104 178.076C423.542 178.076 422.988 177.923 422.495 177.625C421.782 177.193 421.28 176.51 421.082 175.701L418.315 164.452L419.269 164.217L422.036 175.467C422.172 176.02 422.516 176.488 423.004 176.783C423.491 177.079 424.065 177.167 424.619 177.029C425.173 176.894 425.641 176.55 425.936 176.062C426.231 175.574 426.319 175.001 426.183 174.447L423.293 162.697C422.709 160.323 420.304 158.867 417.929 159.451C416.779 159.733 415.808 160.447 415.194 161.461C414.582 162.474 414.399 163.665 414.683 164.815L416.217 171.055L415.263 171.289L413.728 165.05C413.382 163.645 413.604 162.19 414.353 160.951C415.103 159.714 416.289 158.841 417.694 158.496C420.595 157.784 423.535 159.562 424.248 162.462L427.137 174.211C427.336 175.02 427.208 175.859 426.777 176.571C426.346 177.284 425.663 177.786 424.854 177.985C424.606 178.046 424.353 178.076 424.104 178.076Z" fill="#252C32"/>
<path fill-rule="evenodd" clip-rule="evenodd" d="M410.014 221.44L407.289 210.36L408.244 210.125L410.734 220.251L449.316 210.76L438.337 166.12L399.755 175.611L406.272 202.109L405.317 202.345L398.565 174.891L439.057 164.931L450.506 211.481L410.014 221.44Z" fill="#252C32"/>
<path fill-rule="evenodd" clip-rule="evenodd" d="M448.764 205.076L448.417 204.157L454.196 201.971L439.46 159.393L403.583 172.958L403.919 173.847L403 174.195L402.316 172.385L440.058 158.116L455.438 202.553L448.764 205.076Z" fill="#252C32"/>
<path fill-rule="evenodd" clip-rule="evenodd" d="M407.85 183.088L407.616 182.133L417.818 179.623L418.053 180.578L407.85 183.088Z" fill="#252C32"/>
<path fill-rule="evenodd" clip-rule="evenodd" d="M419.191 184.9L418.96 183.944L420.235 183.637L420.465 184.593L419.191 184.9ZM414.092 186.127L413.862 185.171L415.137 184.864L415.367 185.82L414.092 186.127ZM408.993 187.354L408.764 186.398L410.038 186.091L410.268 187.047L408.993 187.354Z" fill="#252C32"/>
<path fill-rule="evenodd" clip-rule="evenodd" d="M432.365 186.526L432.13 185.571L436.594 184.473L436.829 185.428L432.365 186.526Z" fill="#252C32"/>
<path fill-rule="evenodd" clip-rule="evenodd" d="M410.046 192.016L409.811 191.061L428.304 186.512L428.539 187.467L410.046 192.016Z" fill="#252C32"/>
<path fill-rule="evenodd" clip-rule="evenodd" d="M411.144 196.481L410.909 195.526L437.692 188.937L437.927 189.892L411.144 196.481Z" fill="#252C32"/>
<path fill-rule="evenodd" clip-rule="evenodd" d="M412.242 200.945L412.008 199.989L438.79 193.401L439.025 194.356L412.242 200.945Z" fill="#252C32"/>
</g>
<defs>
<linearGradient id="paint0_linear" x1="222.533" y1="471.54" x2="241.804" y2="471.54" gradientUnits="userSpaceOnUse">
<stop stop-color="#08111C"/>
<stop offset="1" stop-color="#313844"/>
</linearGradient>
<linearGradient id="paint1_linear" x1="250.278" y1="472" x2="266.548" y2="472" gradientUnits="userSpaceOnUse">
<stop stop-color="#08111C"/>
<stop offset="1" stop-color="#313844"/>
</linearGradient>
</defs>
</svg>
