<svg width="107" height="32" viewBox="0 0 107 32" fill="none" xmlns="http://www.w3.org/2000/svg">
<path d="M26.9592 31.5234L0.349365 19.2068V13.1881L26.9592 0.864685V7.2783L7.04782 16.1294L26.9592 25.0485V31.5234Z" fill="#EAB331"/>
<path fill-rule="evenodd" clip-rule="evenodd" d="M40.2676 0.871493V12.16H44.6764C46.2733 12.221 47.8284 11.6426 48.9967 10.5532C50.1069 9.50783 50.7191 8.0395 50.6798 6.51575C50.7208 4.99304 50.1113 3.52487 49.0035 2.4783C47.8331 1.38789 46.2755 0.809471 44.6764 0.871493H40.2676ZM44.6764 9.92H42.7548V3.13873H44.6764C45.5922 3.10049 46.4828 3.44313 47.1364 4.08511C47.7665 4.73503 48.1079 5.61122 48.0836 6.51575C48.1355 7.43354 47.7933 8.3299 47.1427 8.97991C46.4921 9.62993 45.595 9.97189 44.6764 9.92Z" fill="#292929"/>
<path d="M53.0034 12.16V0.87149H55.4906V12.16H53.0034Z" fill="#292929"/>
<path d="M63.7564 12.3575C62.1619 12.4194 60.612 11.8236 59.4702 10.7098C58.3605 9.60138 57.7609 8.08261 57.8143 6.51575C57.787 4.96364 58.4008 3.46883 59.5111 2.38299C60.6184 1.25744 62.1432 0.641107 63.7223 0.680858C64.5674 0.660002 65.4096 0.789093 66.2095 1.06213C66.9237 1.33478 67.5853 1.72866 68.1652 2.22639L66.598 4.11916C66.1915 3.76 65.7318 3.46601 65.2351 3.24767C64.7293 3.05147 64.1898 2.95662 63.6474 2.96852C62.7655 2.95969 61.9248 3.34104 61.3509 4.01022C60.7264 4.69381 60.3875 5.59033 60.4038 6.51575C60.3708 7.46479 60.7164 8.38807 61.3646 9.08256C62.0006 9.7582 62.8967 10.1278 63.8245 10.097C64.6582 10.1229 65.4788 9.88459 66.1687 9.41618V7.80937H63.6746V5.66469H68.5809V10.5668C67.245 11.7314 65.5293 12.3682 63.7564 12.3575Z" fill="#292929"/>
<path d="M71.0818 12.16V0.87149H73.569V12.16H71.0818Z" fill="#292929"/>
<path d="M79.0204 12.16V3.16596H75.6133V0.87149H84.9761V3.16596H81.5077V12.16H79.0204Z" fill="#292929"/>
<path fill-rule="evenodd" clip-rule="evenodd" d="M89.2759 0.7966L84.4309 12.16H86.9999L88.0289 9.63405H92.7989L93.8278 12.16H96.4309L91.5655 0.7966H89.2759ZM90.3866 3.77873L91.8858 7.4349H88.8875L90.3866 3.77873Z" fill="#292929"/>
<path d="M98.1482 12.16V0.87149H100.635V9.90638H106.271V12.16H98.1482Z" fill="#292929"/>
<path fill-rule="evenodd" clip-rule="evenodd" d="M45.1125 20.1532L40.2676 31.5234H42.8025L43.8451 28.9906H48.6151L49.6441 31.5234H52.2471L47.4022 20.1532H45.1125ZM47.7292 26.7983H44.7241L46.2233 23.1489L47.7292 26.7983Z" fill="#292929"/>
<path d="M58.7001 31.714C57.1067 31.7769 55.5573 31.1838 54.4139 30.0732C53.3057 28.9615 52.7086 27.4404 52.7649 25.8723C52.7347 24.319 53.346 22.8219 54.4548 21.7328C55.5703 20.6068 57.1014 19.9909 58.6865 20.0306C59.5316 20.0103 60.3736 20.1394 61.1737 20.4119C61.8873 20.6846 62.5471 21.081 63.1226 21.583L61.5553 23.4689C61.1476 23.1115 60.6881 22.8177 60.1925 22.5974C59.6887 22.4032 59.1514 22.3107 58.6116 22.3251C57.7292 22.3144 56.8878 22.6961 56.3151 23.3668C55.0445 24.8192 55.0445 26.9867 56.3151 28.4391C56.9521 29.1133 57.8476 29.4826 58.7751 29.4536C59.609 29.4814 60.4301 29.2429 61.1192 28.7728V27.166H58.6184V25.0213H63.5315V29.9574C62.1905 31.1141 60.4715 31.7391 58.7001 31.714Z" fill="#292929"/>
<path d="M65.9165 31.5234V20.2349H74.4412V22.4681H68.3833V24.7626H73.7121V26.9685H68.3833V29.3379H74.5162V31.5234H65.9165Z" fill="#292929"/>
<path d="M76.731 31.5234V20.2349H79.0206L84.3153 27.1864V20.2349H86.7684V31.5234H84.656L79.2045 24.3472V31.5234H76.731Z" fill="#292929"/>
<path d="M92.1108 31.5234V22.5226H88.7036V20.2349H98.0665V22.5226H94.6252V31.5234H92.1108Z" fill="#292929"/>
</svg>
