<svg width="165" height="37" viewBox="0 0 165 37" fill="none" xmlns="http://www.w3.org/2000/svg">
<path fill-rule="evenodd" clip-rule="evenodd" d="M61.021 19.949C60.8268 19.4243 60.6057 18.8438 60.3568 18.212C60.1076 17.5809 59.8619 16.9629 59.6204 16.3584C59.3782 15.7552 59.1501 15.2043 58.9354 14.7069C58.7211 14.2105 58.5515 13.8336 58.4271 13.578C58.2476 13.9762 58.0467 14.427 57.8253 14.9309C57.6042 15.4356 57.3764 15.9681 57.141 16.5289C56.9061 17.0911 56.6707 17.6621 56.4355 18.2436C56.2004 18.8274 55.9787 19.3944 55.772 19.9487L61.021 19.949ZM51 26C51.3458 25.0482 51.7329 24.0222 52.162 22.9203C52.5907 21.8204 53.0398 20.6905 53.5105 19.5334C53.9804 18.3766 54.4677 17.1998 54.9731 16.0066C55.4777 14.815 55.9787 13.6493 56.4771 12.5126C56.726 11.9455 57.0098 11.5506 57.3278 11.3302C57.6455 11.1107 58.0467 11 58.531 11C58.7112 11 58.8868 11.0217 59.0599 11.0644C59.2329 11.1071 59.3849 11.1561 59.5164 11.2129C59.6482 11.2707 59.7586 11.3233 59.8485 11.3726C59.9387 11.4228 59.9902 11.4544 60.004 11.4688C60.2254 11.8673 60.5126 12.4567 60.8649 13.237C61.2181 14.0193 61.5982 14.8961 62.0061 15.8686C62.414 16.8417 62.8327 17.8569 63.2618 18.9148C63.6901 19.9746 64.0875 20.9747 64.4541 21.9192C64.8211 22.8651 65.1423 23.7016 65.419 24.4329C65.6958 25.1652 65.8893 25.6876 66 25.9987L63.2618 26C63.192 25.8288 63.1021 25.5867 62.9917 25.2743C62.8807 24.9638 62.7598 24.6254 62.6283 24.2624C62.4971 23.9013 62.3625 23.5356 62.2239 23.1647C62.0857 22.7968 61.9613 22.4699 61.8506 22.186L54.9002 22.1867C54.596 22.9683 54.3224 23.6874 54.0806 24.3475C53.839 25.0095 53.6419 25.5598 53.4897 25.9987L51 26V26Z" fill="#252C32"/>
<path fill-rule="evenodd" clip-rule="evenodd" d="M68.6216 14.2254H64.2812C63.4274 14.2254 63 13.8572 63 13.1221C63.0003 12.8654 63.0435 12.6294 63.1302 12.4188C63.2172 12.208 63.2825 12.068 63.3257 12L75.7198 12.0006C76.5729 12.0006 77 12.3675 77 13.1023C77.0003 13.361 76.9598 13.5954 76.8802 13.8056C76.8009 14.018 76.7322 14.1565 76.6743 14.2248L71.2047 14.2254V26H68.6216V14.2254" fill="#252C32"/>
<path fill-rule="evenodd" clip-rule="evenodd" d="M86.021 19.949C85.8271 19.4243 85.6057 18.8438 85.3568 18.212C85.1079 17.5809 84.8619 16.9629 84.6204 16.3584C84.3785 15.7552 84.1501 15.2043 83.9357 14.7069C83.7214 14.2105 83.5518 13.8336 83.4274 13.578C83.2476 13.9762 83.0467 14.427 82.8253 14.9309C82.6045 15.4356 82.3764 15.9681 82.1413 16.5289C81.9061 17.0911 81.671 17.6621 81.4355 18.2436C81.2007 18.8274 80.979 19.3944 80.772 19.9487L86.021 19.949ZM76 26C76.3458 25.0482 76.7333 24.0222 77.162 22.9203C77.5907 21.8204 78.0402 20.6905 78.5105 19.5334C78.9804 18.3766 79.4677 17.1998 79.9731 16.0066C80.478 14.815 80.979 13.6493 81.4771 12.5126C81.7263 11.9455 82.0098 11.5506 82.3278 11.3302C82.6458 11.1107 83.0467 11 83.531 11C83.7112 11 83.8868 11.0217 84.0599 11.0644C84.2329 11.1071 84.3852 11.1561 84.5164 11.2129C84.6482 11.2707 84.7586 11.3233 84.8485 11.3726C84.9387 11.4228 84.9902 11.4544 85.0043 11.4688C85.2257 11.8673 85.5126 12.4567 85.8649 13.237C86.2178 14.0193 86.5982 14.8961 87.0064 15.8686C87.4143 16.8417 87.8327 17.8569 88.2618 18.9148C88.6901 19.9746 89.0875 20.9747 89.4544 21.9192C89.8211 22.8651 90.1423 23.7016 90.419 24.4329C90.6961 25.1652 90.8893 25.6876 91 25.9987L88.2621 26C88.1917 25.8288 88.1021 25.5867 87.9917 25.2743C87.8811 24.9638 87.7601 24.6254 87.6286 24.2624C87.4971 23.9013 87.3625 23.5356 87.2239 23.1647C87.0857 22.7968 86.9613 22.4699 86.8506 22.186L79.9005 22.1867C79.596 22.9683 79.3224 23.6874 79.0809 24.3475C78.839 25.0095 78.6419 25.5598 78.4897 25.9987L76 26V26Z" fill="#252C32"/>
<path fill-rule="evenodd" clip-rule="evenodd" d="M93 26C93.014 25.6454 93.038 25.1353 93.0731 24.4685C93.1086 23.8029 93.1505 23.0575 93.1996 22.2346C93.249 21.4114 93.2981 20.5548 93.3472 19.6627C93.3966 18.7728 93.4457 17.9144 93.4951 17.0918C93.5442 16.2695 93.59 15.5278 93.6323 14.867C93.6745 14.2087 93.7093 13.7011 93.7379 13.3471C93.7656 12.8581 93.9339 12.5101 94.2431 12.3068C94.5526 12.1032 94.904 12 95.2973 12C95.7329 12.0006 96.0915 12.062 96.3727 12.1844C96.6539 12.3068 96.8505 12.422 96.9627 12.5309C97.1317 12.8581 97.3879 13.3569 97.7325 14.0306C98.0771 14.7043 98.4496 15.4325 98.8494 16.2145C99.2503 16.9968 99.6508 17.769 100.051 18.5302C100.452 19.2927 100.786 19.9255 101.053 20.4277C101.291 19.967 101.59 19.3905 101.949 18.7039C102.307 18.0182 102.665 17.3231 103.024 16.6229C103.383 15.9225 103.72 15.2619 104.036 14.6433C104.352 14.024 104.594 13.5441 104.763 13.204C104.96 12.8097 105.205 12.5101 105.501 12.3068C105.796 12.1032 106.175 12 106.639 12C107.047 12.0006 107.391 12.0513 107.672 12.1529C107.954 12.2561 108.128 12.3402 108.199 12.4085C108.228 12.7892 108.262 13.3399 108.305 14.0611C108.347 14.7827 108.392 15.5813 108.442 16.4596C108.491 17.3366 108.544 18.2548 108.6 19.2137C108.656 20.1744 108.712 21.0917 108.769 21.969C108.825 22.8466 108.87 23.6424 108.905 24.3568C108.941 25.0714 108.972 25.6189 109 25.9987L106.534 26C106.52 25.7832 106.499 25.4046 106.471 24.8662C106.442 24.33 106.408 23.7063 106.365 22.9999C106.323 22.2931 106.281 21.547 106.239 20.765C106.197 19.9837 106.154 19.242 106.112 18.5406C106.07 17.8407 106.031 17.2214 105.997 16.6833C105.961 16.1465 105.936 15.7761 105.922 15.5719C105.796 15.8174 105.627 16.1421 105.416 16.5506C105.206 16.9593 104.977 17.4049 104.731 17.8873C104.485 18.3716 104.229 18.8776 103.962 19.4081C103.695 19.9393 103.438 20.4456 103.192 20.928C102.946 21.4114 102.721 21.8601 102.518 22.2755C102.314 22.6912 102.149 23.02 102.022 23.2648L99.9563 23.2651C99.7876 22.8985 99.5415 22.391 99.2187 21.7449C98.8953 21.0992 98.5475 20.4082 98.1752 19.6731C97.8027 18.9393 97.4302 18.2108 97.0576 17.4895C96.6851 16.7686 96.3516 16.1421 96.0561 15.6128C96.0421 15.9404 96.0174 16.3746 95.9826 16.9181C95.9475 17.4634 95.9124 18.0682 95.8773 18.7344C95.8422 19.4012 95.8031 20.0919 95.7615 20.8056C95.7196 21.5203 95.6806 22.2107 95.6455 22.8771C95.6104 23.5449 95.5782 24.1494 95.5509 24.6938C95.5223 25.2379 95.5008 25.6721 95.4872 25.9987L93 26" fill="#252C32"/>
<path fill-rule="evenodd" clip-rule="evenodd" d="M111 13.3887C111 12.4635 111.517 12 112.553 12L120.724 12.0006C121.575 12.0006 122 12.3675 122 13.1023C122 13.361 121.957 13.5954 121.872 13.8056C121.787 14.018 121.724 14.1565 121.681 14.2248L113.574 14.2254V17.7347H120.426C121.263 17.7347 121.681 18.1019 121.681 18.8367C121.681 19.096 121.642 19.3298 121.564 19.5403C121.486 19.7521 121.418 19.8905 121.362 19.9591L113.574 19.9598V23.7752H121.872V26H111V13.3887" fill="#252C32"/>
<path fill-rule="evenodd" clip-rule="evenodd" d="M126.424 20.2081V26H124V13.0853C124 12.3623 124.403 12 125.212 12C125.5 12.0006 125.757 12.0271 125.983 12.0817C126.208 12.1373 126.356 12.1774 126.424 12.2045L126.424 18.0384H127.266C127.842 18.0384 128.318 17.9453 128.694 17.7616C129.072 17.5773 129.418 17.3084 129.733 16.9533C130.336 16.2581 130.818 15.6095 131.181 15.0089C131.544 14.4087 131.869 13.8867 132.157 13.4423C132.445 12.9995 132.739 12.6486 133.04 12.3885C133.342 12.1313 133.732 12 134.212 12C134.582 12.0006 134.872 12.0483 135.085 12.1439C135.297 12.2402 135.486 12.3487 135.651 12.4706C135.185 13.1942 134.647 14.0094 134.038 14.9165C133.427 15.8251 132.787 16.7488 132.116 17.6903C131.911 17.9765 131.705 18.2353 131.499 18.4673C131.294 18.6999 131.074 18.9041 130.842 19.0814C131.253 19.5463 131.685 20.0566 132.137 20.6162C132.588 21.1767 133.04 21.7564 133.492 22.3561C133.945 22.9573 134.383 23.5674 134.808 24.1878C135.233 24.8099 135.63 25.4133 136 25.9987L133.185 26C132.87 25.5225 132.527 25.0239 132.157 24.505C131.787 23.9874 131.403 23.472 131.006 22.9598C130.609 22.4489 130.208 21.9505 129.804 21.4658C129.401 20.982 129.007 20.5281 128.623 20.1052C128.431 20.1333 128.236 20.1564 128.037 20.1762C127.839 20.1983 127.63 20.2069 127.411 20.2069L126.424 20.2081" fill="#252C32"/>
<path fill-rule="evenodd" clip-rule="evenodd" d="M138 13.3887C138 12.4635 138.517 12 139.553 12L147.724 12.0006C148.575 12.0006 149 12.3675 149 13.1023C149 13.361 148.957 13.5954 148.872 13.8056C148.787 14.018 148.724 14.1565 148.681 14.2248L140.575 14.2254V17.7347H147.426C148.263 17.7347 148.681 18.1019 148.681 18.8367C148.681 19.096 148.642 19.3298 148.565 19.5403C148.486 19.7521 148.418 19.8905 148.362 19.9591L140.575 19.9598V23.7752H148.873V26H138V13.3887" fill="#252C32"/>
<path fill-rule="evenodd" clip-rule="evenodd" d="M152 13.1231C152 12.7433 152.124 12.4597 152.374 12.2753C152.624 12.0922 152.962 12 153.388 12C153.668 12.0006 153.923 12.0346 154.159 12.1029C154.394 12.1718 154.547 12.2178 154.622 12.2448V17.6129H162.378V13.1231C162.378 12.7433 162.499 12.4597 162.741 12.2753C162.984 12.0922 163.317 12 163.743 12C164.037 12.0006 164.301 12.0346 164.537 12.1029C164.772 12.1718 164.925 12.225 165 12.2659L165 26H162.378V19.8364H154.622V26H152V13.1231" fill="#252C32"/>
<path fill-rule="evenodd" clip-rule="evenodd" d="M31.3916 22.0032C29.0317 21.3001 28.6791 21.574 27.9969 23.4246C27.3652 25.1386 27.6304 26.0328 29.5206 26.8019C30.369 27.1479 31.1053 27.3838 31.6776 27.3726C32.0823 27.369 32.4452 27.2052 32.7754 26.8019C33.8762 25.446 34.6573 23.112 35.0667 21.4357L35.0585 21.4354C35.6935 18.8249 35.3392 17.0811 33.3599 15.0112C32.3126 13.9807 31.4272 13.6793 29.667 14.1826L31.2699 11.7959L33.6456 11C35.165 12.6691 36.4753 14.138 37.2412 15.8075C38.0428 17.5605 38.2648 19.4756 37.6377 22.0507L37.6334 22.0494C37.1221 24.157 36.2199 26.7475 34.8335 28.4497C33.9481 29.5398 32.9103 29.9792 31.7225 29.9992C30.7035 30.0182 29.6551 29.7023 28.5214 29.242C27.3338 28.7577 26.2977 27.9864 25.6627 26.986C25.0505 26.0214 24.8146 24.8778 25.1593 23.6049C25.2579 23.2389 25.3797 22.8745 25.5093 22.5223C25.632 22.1903 25.7709 21.8407 25.9052 21.5032C26.2396 20.5016 27.0307 19.6084 28.4158 19.2456C29.9642 18.8426 32.1325 19.6893 31.6538 21.1425C31.5608 21.4282 31.481 21.7169 31.3916 22.0032" fill="#252C32"/>
<path fill-rule="evenodd" clip-rule="evenodd" d="M29.7488 21.6025C30.0404 21.595 30.3869 21.6426 30.8265 21.7444C31.116 21.806 31.3937 21.8801 31.6526 21.9673C31.7467 21.6705 31.8305 21.3694 31.9288 21.0741C32.4331 19.566 30.1485 18.6854 28.5176 19.1043C27.0587 19.4813 26.225 20.4075 25.8726 21.4487C25.7315 21.7995 25.5845 22.1619 25.4556 22.5069C25.425 22.5872 25.0591 23.5903 25 24C25.8956 22.4671 27.4834 21.4858 29.7488 21.6025" fill="#252C32"/>
<path fill-rule="evenodd" clip-rule="evenodd" d="M37.624 21.9826L37.6284 21.9839C38.2727 19.4117 38.0424 17.4977 37.2212 15.7477C36.4417 14.0978 35.1174 12.6443 33.5804 11C33.3193 11.3705 33.0188 11.7407 32.6874 12.1141C31.9391 12.9667 31.0149 13.6412 30 13.9898C31.4486 13.6959 32.2748 14.0333 33.2352 14.9524C33.6363 15.3589 33.967 15.7526 34.2431 16.1434L34.2458 16.144C35.0954 17.3848 37.1775 20.0097 37.0186 24C37.2544 23.3097 37.461 22.6231 37.624 21.9826" fill="#252C32"/>
<path fill-rule="evenodd" clip-rule="evenodd" d="M26.957 7.19482C25.5353 9.12634 25.6902 9.52737 27.2705 10.6958C28.733 11.7778 29.6857 11.8002 31.019 10.3153C31.6219 9.64909 32.0772 9.05211 32.2482 8.52937C32.3707 8.16105 32.3276 7.78173 32.0362 7.36498C31.0684 5.96407 29.0518 4.5619 27.5536 3.69568L27.5522 3.70072C25.2205 2.35233 23.4218 2.15323 20.7959 3.33649C19.4693 3.98002 18.9021 4.69274 18.8394 6.43838L17.0267 4.27631L17 1.88714C19.0911 1.00395 20.9245 0.251907 22.7812 0.0540684C24.7294 -0.153521 26.6566 0.214478 28.9543 1.54462L28.9516 1.5484C30.8344 2.63824 33.0617 4.22567 34.2775 5.98357C35.0573 7.1143 35.1601 8.18338 34.8039 9.26694C34.5055 10.1964 33.8712 11.0531 33.0727 11.9433C32.2305 12.8774 31.1599 13.5901 29.9928 13.8691C28.8655 14.1371 27.6858 14.0119 26.5584 13.3225C26.2346 13.1234 25.9195 12.906 25.6191 12.6833C25.3353 12.4745 25.0409 12.2446 24.7568 12.0216C23.8892 11.4227 23.2716 10.4392 23.3534 9.07696C23.4472 7.55118 24.9451 5.83731 26.2026 6.7029C26.4493 6.87243 26.704 7.03001 26.957 7.19482" fill="#252C32"/>
<path fill-rule="evenodd" clip-rule="evenodd" d="M25.9967 9.24936C26.0818 8.9998 26.2467 8.71298 26.4956 8.36699C26.655 8.13559 26.8229 7.91985 27 7.72102C26.7201 7.55789 26.4375 7.40039 26.1643 7.23193C24.7712 6.37054 23.1116 8.07641 23.0081 9.59535C22.9175 10.9518 23.6012 11.9303 24.5627 12.5268C24.8777 12.7494 25.2035 12.977 25.5179 13.1856C25.5918 13.2338 26.5074 13.8328 26.9109 14C25.6214 12.797 25.1285 11.1575 25.9967 9.24936" fill="#252C32"/>
<path fill-rule="evenodd" clip-rule="evenodd" d="M29.3125 1.57267L29.3153 1.56915C27.1261 0.217636 25.2937 -0.156099 23.4394 0.0550454C21.6918 0.253413 19.9655 1.00184 18 1.88603C18.2672 2.23357 18.5211 2.61498 18.7708 3.02289C19.3428 3.95116 19.6961 4.98516 19.7225 6C19.8718 4.61207 20.4237 3.97224 21.5498 3.38864C22.0407 3.1529 22.5011 2.97306 22.9424 2.84241L22.9428 2.84145C24.3338 2.45398 27.3628 1.37877 31 2.72454C30.4325 2.30417 29.8577 1.90999 29.3125 1.57267" fill="#252C32"/>
<path fill-rule="evenodd" clip-rule="evenodd" d="M11.4986 7.52346C12.9736 9.50521 13.4157 9.4882 15.0439 8.37045C16.5498 7.33472 16.8584 6.43805 15.7982 4.68405C15.3238 3.89475 14.8735 3.26385 14.4098 2.93139C14.0837 2.69663 13.6976 2.61327 13.2 2.75099C11.5273 3.21316 9.53746 4.66971 8.23058 5.80814L8.23579 5.81348C6.20559 7.58415 5.46662 9.22844 5.83936 12.1119C6.07363 13.5818 6.6057 14.354 8.30747 14.9863L5.62888 16L3.26699 15.2424C3.02816 12.9665 2.83885 10.9784 3.20573 9.15008C3.58662 7.23135 4.5302 5.5207 6.53597 3.77237L6.53923 3.77571C8.17812 2.34583 10.4146 0.749564 12.5142 0.170679C13.8628 -0.200795 14.9474 0.0536345 15.9076 0.744229C16.7326 1.33445 17.3865 2.21612 18.0229 3.26752C18.6879 4.37394 19.0668 5.62508 18.9902 6.8252C18.9147 7.98263 18.4344 9.06404 17.4165 9.90803C17.1207 10.1511 16.8128 10.3785 16.5019 10.5913C16.2113 10.792 15.8959 10.9961 15.59 11.1935C14.7382 11.8218 13.5848 12.0865 12.2659 11.5627C10.7919 10.9741 9.55635 8.98835 10.7867 8.07667C11.0294 7.8986 11.2611 7.70653 11.4986 7.52346" fill="#252C32"/>
<path fill-rule="evenodd" clip-rule="evenodd" d="M13.3198 8.26286C13.1076 8.11616 12.8824 7.89997 12.623 7.59576C12.4477 7.39964 12.2888 7.1992 12.1483 7C11.9237 7.16986 11.7044 7.34714 11.4752 7.51268C10.312 8.35706 11.4801 10.1962 12.8738 10.7413C14.121 11.2268 15.2112 10.9813 16.0165 10.3994C16.306 10.2172 16.6039 10.0276 16.8787 9.84167C16.9431 9.79936 17.7412 9.25394 18 8.9837C16.5414 9.64061 14.8813 9.53252 13.3198 8.26286" fill="#252C32"/>
<mask id="mask0" mask-type="alpha" maskUnits="userSpaceOnUse" x="0" y="3" width="13" height="29">
<path fill-rule="evenodd" clip-rule="evenodd" d="M0 3H13V32H0V3Z" fill="white"/>
</mask>
<g mask="url(#mask0)">
<path fill-rule="evenodd" clip-rule="evenodd" d="M6.40926 4.23856L6.40612 4.23572C4.47387 5.88849 3.5655 7.50378 3.19795 9.31531C2.84986 11.0248 3.02186 12.8795 3.24848 15C3.65339 14.856 4.08749 14.7319 4.54575 14.6207C5.58595 14.3647 6.66162 14.3464 7.61832 14.6299C6.36625 14.0667 5.93781 13.352 5.73504 12.1131C5.66473 11.5776 5.63743 11.0875 5.65061 10.6332L5.64967 10.6329C5.71119 9.20254 5.63178 6.01953 8 3C7.43313 3.4076 6.89012 3.8278 6.40926 4.23856" fill="#252C32"/>
<path fill-rule="evenodd" clip-rule="evenodd" d="M6.74055 21.7572C9.11387 20.9464 9.23733 20.5141 8.68395 18.6149C8.17194 16.8559 7.41167 16.2859 5.38854 16.7672C4.48092 16.9844 3.73175 17.2213 3.26449 17.5659C2.93482 17.8077 2.73196 18.1516 2.70606 18.671C2.61456 20.4175 3.3782 22.7678 4.05235 24.3667L4.05874 24.3644C5.11168 26.8507 6.45292 28.06 9.33758 28.5784C10.8228 28.8038 11.7338 28.5275 12.8836 27.0889L13 29.9645L11.5212 32C9.26054 31.5368 7.29326 31.1107 5.65531 30.2049C3.93595 29.2545 2.59639 27.8277 1.56027 25.3723L1.56498 25.3717C0.714218 23.3621 -0.103914 20.7325 0.010799 18.5426C0.0848077 17.1378 0.672841 16.1746 1.64404 15.463C2.47462 14.8529 3.52756 14.4935 4.73928 14.2051C6.01257 13.9028 7.33362 13.9189 8.46158 14.3591C9.54716 14.7836 10.4322 15.574 10.9167 16.8063C11.0569 17.1631 11.1747 17.5288 11.2817 17.8908C11.3812 18.2318 11.4761 18.5965 11.5679 18.9483C11.8996 19.9579 11.7839 21.1435 10.8618 22.248C9.82402 23.4856 7.52605 24.0661 7.04533 22.6055C6.94979 22.32 6.84113 22.0391 6.74055 21.7572" fill="#252C32"/>
<path fill-rule="evenodd" clip-rule="evenodd" d="M8.70503 21.5132C8.48151 21.6811 8.18124 21.8376 7.77795 22C7.51504 22.1141 7.25449 22.2104 7 22.287C7.10065 22.5703 7.20938 22.8514 7.30499 23.137C7.78603 24.5984 10.0856 24.0166 11.1241 22.7794C12.0471 21.6746 12.1622 20.4879 11.8306 19.4778C11.7391 19.1264 11.6435 18.7602 11.5442 18.4197C11.5223 18.3415 11.2254 17.353 11.0335 17C11.223 18.6955 10.5488 20.3449 8.70503 21.5132" fill="#252C32"/>
</g>
<mask id="mask1" mask-type="alpha" maskUnits="userSpaceOnUse" x="1" y="24" width="29" height="13">
<path fill-rule="evenodd" clip-rule="evenodd" d="M1 24H30V37H1V24Z" fill="white"/>
</mask>
<g mask="url(#mask1)">
<path fill-rule="evenodd" clip-rule="evenodd" d="M1.68912 25.8462L1.68469 25.8471C2.66137 28.1316 3.92244 29.4584 5.53979 30.3437C7.0653 31.178 8.89356 31.5742 10.9929 32C10.9809 31.5818 10.9974 31.1425 11.0328 30.6855C11.1142 29.6455 11.4306 28.6437 12 27.8403C11.0711 28.8335 10.2544 29.0154 9.0063 28.8301C8.47363 28.7351 7.99606 28.6137 7.56504 28.4654L7.56409 28.4682C6.21688 27.9806 3.14908 27.1005 1 24C1.21187 24.6478 1.4459 25.2769 1.68912 25.8462" fill="#252C32"/>
<path fill-rule="evenodd" clip-rule="evenodd" d="M28.6695 29.5958C27.5869 29.167 26.6346 28.5079 25.9957 27.6596C26.778 28.9174 26.7264 29.7707 26.1177 30.9276C24.7543 33.3533 23.1969 34.1924 20.5125 34.3942L20.5139 34.4005C18.7878 34.5289 16.3178 34.5112 14.6835 33.9112C14.1988 33.7338 13.9307 33.4498 13.8018 33.0817C13.6147 32.563 13.6124 31.821 13.6825 30.9459C13.8331 28.9949 14.6055 28.4829 16.4359 28.5471C18.4129 28.6201 18.7851 28.8573 18.8397 31.2205C19.1406 31.2151 19.4399 31.2009 19.7411 31.2009C21.2761 31.2053 21.4165 28.9756 20.5546 27.6821C19.7819 26.5284 18.6868 26.0723 17.626 26.0688C17.2616 26.0461 16.8861 26.023 16.5326 26.0103C16.1547 25.9974 15.771 25.9948 15.3895 26.0132C14.0702 26.0799 13.0491 26.6365 12.3171 27.4813C11.5581 28.3586 11.1425 29.5341 11.0455 30.7641C10.9554 31.9327 10.9781 32.9817 11.3086 33.9052C11.694 34.9834 12.4322 35.7987 13.7476 36.2826C15.7982 37.0378 18.5487 37.0862 20.7181 36.9243V36.9287C23.3672 36.7336 25.1292 35.9584 26.5554 34.7041C27.898 33.5216 28.8908 31.9099 30 30.0519C29.5692 29.9304 29.1279 29.7761 28.6695 29.5958" fill="#252C32"/>
<path fill-rule="evenodd" clip-rule="evenodd" d="M21.0381 36.9368V36.9405C23.5988 36.7476 25.2971 35.9923 26.6741 34.7692C27.9705 33.615 28.9275 32.0447 30 30.2321C29.5825 30.1111 29.1535 29.9596 28.7125 29.7833C27.7101 29.3848 26.8183 28.7773 26.2014 28C26.8954 29.1696 26.823 29.9852 26.2515 31.0832C25.9918 31.5496 25.726 31.9524 25.4444 32.3056L25.4447 32.3077C24.5494 33.4045 22.7291 35.9737 19 36.9992C19.7074 37.0044 20.3986 36.9841 21.0381 36.9368" fill="#252C32"/>
<path fill-rule="evenodd" clip-rule="evenodd" d="M18.5573 29.3204C18.6479 29.5586 18.7065 29.8595 18.7388 30.2522C18.7684 30.5109 18.7802 30.7606 18.7772 31C19.0754 30.9948 19.372 30.9812 19.6705 30.9812C21.1917 30.9855 21.3308 28.8493 20.4767 27.61C19.7109 26.5046 18.6257 26.0677 17.5744 26.0643C17.2134 26.0425 16.8412 26.0204 16.4909 26.0083C16.4078 26.0065 15.3878 25.9771 15 26.0413C16.6529 26.3628 18.0078 27.4085 18.5573 29.3204" fill="#252C32"/>
</g>
</svg>
