<svg width="48" height="48" viewBox="0 0 48 48" fill="none" xmlns="http://www.w3.org/2000/svg">
<path d="M11.9473 3.48221C11.5018 3.10167 10.8442 3.10682 10.4047 3.49418L7.19096 6.37016V5.99327C7.19096 5.55229 6.83354 5.19486 6.39255 5.19486C5.95157 5.19486 5.59414 5.55229 5.59414 5.99327V7.80015L4.26306 8.99145C3.93941 9.28665 3.91405 9.78752 4.20626 10.114C4.49847 10.4404 4.99906 10.4704 5.32813 10.1812L11.1831 4.94017L17.0381 10.1812C17.2501 10.3746 17.5497 10.4393 17.8226 10.3507C18.0957 10.2621 18.3 10.0338 18.358 9.75262C18.416 9.47154 18.3187 9.18092 18.1032 8.99145L11.9473 3.48221Z" fill="#EEC643"/>
<path d="M15.9737 11.1831C15.5327 11.1831 15.1753 11.5405 15.1753 11.9815V17.5706H7.19081V11.9815C7.19081 11.5405 6.83339 11.1831 6.3924 11.1831C5.95142 11.1831 5.59399 11.5405 5.59399 11.9815V18.0776C5.60185 18.6872 6.10225 19.1751 6.71184 19.1675H15.6543C16.2643 19.1737 16.7642 18.6851 16.7722 18.0752V11.9815C16.7721 11.5405 16.4146 11.1831 15.9737 11.1831Z" fill="#EEC643"/>
<path fill-rule="evenodd" clip-rule="evenodd" d="M5.59399 26.3537C5.59399 23.267 8.09626 20.7646 11.183 20.7646C14.2683 20.7681 16.7685 23.2684 16.7721 26.3537C16.7721 29.4404 14.2697 31.9428 11.183 31.9428C8.09636 31.9428 5.59399 29.4404 5.59399 26.3537ZM10.3845 22.4414C8.52705 22.8233 7.19325 24.4573 7.19081 26.3537C7.19465 26.8039 7.27568 27.25 7.43034 27.6727L10.3845 25.901V22.4414ZM8.25318 29.0418L11.0593 27.3581L13.3811 29.68C11.75 30.7682 9.5678 30.4966 8.25318 29.0418ZM11.9815 26.0231L14.5101 28.551C15.2437 27.446 15.3794 26.0485 14.8722 24.823C14.365 23.5976 13.2813 22.7048 11.9815 22.4414V26.0231Z" fill="#EEC643"/>
<path fill-rule="evenodd" clip-rule="evenodd" d="M43.1207 11.6437V14.3768C43.5617 14.3768 43.9192 14.7344 43.9192 15.1753C43.9192 15.6163 43.5618 15.9737 43.1208 15.9737H24.7566C23.4337 15.9737 22.3613 14.9013 22.3613 13.5784V3.99714C22.3613 3.55616 22.7188 3.19873 23.1597 3.19873C23.6006 3.19873 23.9581 3.55616 23.9581 3.99714V13.5784C23.9581 14.0193 24.3156 14.3768 24.7566 14.3768H25.555V5.59396C25.555 4.71199 26.2699 3.99705 27.1519 3.99705H28.7488C29.6308 3.99705 30.3457 4.71199 30.3457 5.59396V14.3768H31.9425V9.37061C31.9435 8.60813 32.5614 7.99022 33.3238 7.98928H35.3518C36.1144 7.99022 36.7323 8.60813 36.7332 9.37061V14.3768H38.3301V11.6437C38.3305 10.9485 38.894 10.3851 39.5892 10.3846H41.8616C42.5568 10.3851 43.1203 10.9485 43.1207 11.6437ZM27.1519 14.3768H28.7488V5.59396H27.1519V14.3768ZM35.1363 14.3768H33.5394V9.58619H35.1363V14.3768ZM39.927 14.3768H41.5238H41.5239V11.9815H39.927V14.3768Z" fill="#EEC643"/>
<path d="M43.1207 30.3456H24.7566C24.3156 30.3456 23.9581 29.9882 23.9581 29.5472V28.2808L26.5874 25.6516C26.9028 25.3488 27.401 25.3488 27.7164 25.6516L28.6521 26.5874C29.5875 27.5225 31.1038 27.5225 32.0391 26.5874L35.3702 23.2563C35.6856 22.9535 36.1837 22.9535 36.4992 23.2563L37.4349 24.1929C38.3713 25.1254 39.8854 25.1254 40.8219 24.1929L43.6851 21.3296C43.9877 21.0164 43.9834 20.5183 43.6754 20.2104C43.3674 19.9024 42.8694 19.8981 42.5561 20.2007L39.6929 23.0631C39.3811 23.3747 38.8757 23.3747 38.5639 23.0631L37.6281 22.1273C36.6803 21.2227 35.1889 21.2227 34.2412 22.1273L30.9101 25.4584C30.5983 25.7701 30.0929 25.7701 29.7811 25.4584L28.8462 24.5226C27.8982 23.6179 26.4064 23.6179 25.4584 24.5226L23.9581 26.0229V19.9659C23.9581 19.5249 23.6006 19.1675 23.1597 19.1675C22.7188 19.1675 22.3613 19.525 22.3613 19.9659V29.5472C22.3613 30.87 23.4337 31.9425 24.7566 31.9425H43.1208C43.5618 31.9425 43.9192 31.585 43.9192 31.1441C43.9191 30.703 43.5617 30.3456 43.1207 30.3456Z" fill="#EEC643"/>
<path fill-rule="evenodd" clip-rule="evenodd" d="M47.9114 37.0956V4.4322C48.0224 2.11043 46.24 0.133725 43.9192 0.00488281H3.99719C1.67634 0.133818 -0.106111 2.11052 0.00495293 4.4322V37.0956C-0.106486 39.4177 1.67597 41.3948 3.99719 41.5238H16.7722V43.1207H13.5785C11.8146 43.1207 10.3847 44.5506 10.3847 46.3144V47.1128C10.3847 47.5538 10.7422 47.9112 11.1832 47.9112H36.7333C37.1743 47.9112 37.5317 47.5538 37.5317 47.1128V46.3144C37.5317 44.5506 36.1018 43.1207 34.338 43.1207H31.1442V41.5238H43.9192C46.2404 41.3949 48.0228 39.4177 47.9114 37.0956ZM34.3379 44.7176C35.2198 44.7176 35.9348 45.4325 35.9348 46.3145H11.9816C11.9816 45.4325 12.6965 44.7176 13.5785 44.7176H34.3379ZM18.3691 41.5238V43.1207H29.5473V41.5238H18.3691ZM43.9192 39.9269H3.99719C2.5599 39.795 1.49389 38.5349 1.60187 37.0957V35.1363H46.3146V37.0957C46.4225 38.5349 45.3565 39.795 43.9192 39.9269ZM46.3145 33.5394V4.4322C46.4225 2.99305 45.3563 1.73326 43.9192 1.6017H3.99719C2.55999 1.73326 1.49389 2.99305 1.60187 4.4322V33.5394H46.3145Z" fill="#EEC643"/>
</svg>

