<svg width="48" height="48" viewBox="0 0 48 48" fill="none" xmlns="http://www.w3.org/2000/svg">
<path d="M23.52 40.4949C23.346 40.3209 23.1046 40.2207 22.8585 40.2207C22.6124 40.2207 22.371 40.3208 22.197 40.4949C22.023 40.6689 21.9229 40.9103 21.9229 41.1564C21.9229 41.4035 22.023 41.6439 22.197 41.8179C22.371 41.9929 22.6124 42.092 22.8585 42.092C23.1046 42.092 23.346 41.9929 23.52 41.8179C23.6941 41.6439 23.7942 41.4026 23.7942 41.1564C23.7942 40.9103 23.694 40.6689 23.52 40.4949Z" fill="#EEC643"/>
<path fill-rule="evenodd" clip-rule="evenodd" d="M27.9749 31.8634V24.9786C27.9749 24.6677 27.8205 24.3771 27.5629 24.2032C27.3054 24.0292 26.9782 23.9946 26.6897 24.1106L10.5668 30.6039H5.37385C2.41076 30.6039 0 33.0147 0 35.978C0 38.9412 2.41076 41.352 5.37403 41.352H5.99242V46.9709C5.99242 47.4876 6.41132 47.9066 6.92809 47.9066H10.7479C11.2647 47.9066 11.6836 47.4876 11.6836 46.9709V41.8034L26.6902 47.839C26.8027 47.8843 26.9213 47.9067 27.0392 47.9067C27.2233 47.9067 27.4061 47.8523 27.5631 47.7463C27.8206 47.5724 27.9749 47.2817 27.9749 46.971V40.0862C29.8513 39.6593 31.2565 37.9786 31.2565 35.9749C31.2565 33.9711 29.8513 32.2904 27.9749 31.8634ZM9.81212 46.0352H7.86377V41.3519H9.81221V46.0352H9.81212ZM5.37403 39.4806H9.8123L9.81268 32.4753H5.37403C3.44262 32.4753 1.87135 34.0466 1.87135 35.978C1.87135 37.9093 3.44262 39.4806 5.37403 39.4806ZM26.1037 45.586H26.1036L11.684 39.7864V32.1714L21.9228 28.0479V37.3335C21.9228 37.8502 22.3417 38.2692 22.8585 38.2692C23.3753 38.2692 23.7942 37.8502 23.7942 37.3335V27.2942L26.1037 26.364V45.586ZM29.3852 35.9748C29.3852 35.0138 28.804 34.1863 27.9749 33.8241V38.1254C28.8041 37.7633 29.3852 36.9358 29.3852 35.9748Z" fill="#EEC643"/>
<path d="M40.183 35.0669H34.8854C34.3686 35.0669 33.9497 35.4859 33.9497 36.0026C33.9497 36.5192 34.3686 36.9382 34.8854 36.9382H40.183C40.6997 36.9382 41.1186 36.5192 41.1186 36.0026C41.1186 35.4859 40.6997 35.0669 40.183 35.0669Z" fill="#EEC643"/>
<path d="M35.8383 28.2105C35.4729 27.8452 34.8805 27.8452 34.515 28.2105L32.6876 30.0379C32.3222 30.4032 32.3222 30.9957 32.6876 31.3612C32.8704 31.5438 33.1099 31.6352 33.3493 31.6352C33.5888 31.6352 33.8283 31.5438 34.0109 31.3612L35.8383 29.5338C36.2037 29.1684 36.2037 28.576 35.8383 28.2105Z" fill="#EEC643"/>
<path d="M35.9067 42.3837L34.0183 40.4952C33.6529 40.1299 33.0604 40.1299 32.6949 40.4952C32.3296 40.8605 32.3296 41.453 32.6949 41.8185L34.5835 43.707C34.7662 43.8897 35.0057 43.9811 35.2451 43.9811C35.4845 43.9811 35.7241 43.8897 35.9067 43.707C36.2721 43.3417 36.2721 42.7492 35.9067 42.3837Z" fill="#EEC643"/>
<path fill-rule="evenodd" clip-rule="evenodd" d="M44.1638 0H26.7603C24.6966 0 23.0176 1.67897 23.0176 3.74269V4.11696H7.29835C6.06008 4.11696 5.05273 5.1244 5.05273 6.36257V21.1462C5.05273 22.3844 6.06008 23.3918 7.29835 23.3918H8.26518V26.2612C8.26518 26.6397 8.4932 26.9809 8.84277 27.1257C8.95851 27.1736 9.08006 27.1969 9.20066 27.1969C9.44413 27.1969 9.68347 27.1018 9.86247 26.9229L13.3935 23.3918H31.9795C33.2178 23.3918 34.2251 22.3844 34.2251 21.1462V18.3392H44.1638C46.2276 18.3392 47.9065 16.6602 47.9065 14.5965V3.74269C47.9064 1.67897 46.2276 0 44.1638 0ZM32.3538 21.1462C32.3538 21.3526 32.1859 21.5205 31.9795 21.5205H13.006C12.7578 21.5205 12.5198 21.6191 12.3443 21.7945L10.1366 24.0023V22.4561C10.1366 21.9395 9.71772 21.5205 9.20094 21.5205H7.29835C7.09194 21.5205 6.92408 21.3526 6.92408 21.1462V6.36257C6.92408 6.15616 7.09194 5.9883 7.29835 5.9883H23.0176V14.5965C23.0176 16.6602 24.6966 18.3392 26.7603 18.3392H32.3538V21.1462ZM44.1638 16.4678C45.1957 16.4678 46.0352 15.6284 46.0352 14.5965V3.74269C46.0352 2.71083 45.1957 1.87135 44.1638 1.87135H26.7603C25.7285 1.87135 24.889 2.71083 24.889 3.74269V14.5965C24.889 15.6284 25.7285 16.4678 26.7603 16.4678H44.1638Z" fill="#EEC643"/>
<path fill-rule="evenodd" clip-rule="evenodd" d="M32.8176 4.66202L39.2213 8.35924C39.5109 8.52635 39.6891 8.83522 39.6891 9.16944C39.6891 9.50366 39.5108 9.81262 39.2213 9.97973L32.8176 13.6769C32.6728 13.7606 32.5113 13.8023 32.3497 13.8023C32.1881 13.8023 32.0266 13.7606 31.8819 13.6769C31.5924 13.5098 31.4141 13.2009 31.4141 12.8667V5.47232C31.4141 5.13809 31.5924 4.82914 31.8819 4.66202C32.1714 4.49482 32.5281 4.49482 32.8176 4.66202ZM36.8821 9.16953L33.2854 7.093V11.2461L36.8821 9.16953Z" fill="#EEC643"/>
<path d="M20.0712 9.82471H10.7145C10.1977 9.82471 9.77881 10.2437 9.77881 10.7604C9.77881 11.2771 10.1977 11.6961 10.7145 11.6961H20.0712C20.588 11.6961 21.0069 11.2771 21.0069 10.7604C21.0069 10.2437 20.588 9.82471 20.0712 9.82471Z" fill="#EEC643"/>
<path d="M20.7329 15.3386C20.5589 15.1645 20.3175 15.0645 20.0714 15.0645C19.8253 15.0645 19.5839 15.1645 19.4099 15.3386C19.2359 15.5126 19.1357 15.754 19.1357 16.0001C19.1357 16.2462 19.2359 16.4876 19.4099 16.6616C19.5839 16.8356 19.8253 16.9358 20.0714 16.9358C20.3184 16.9358 20.5589 16.8357 20.7329 16.6616C20.907 16.4876 21.0071 16.2462 21.0071 16.0001C21.0071 15.754 20.907 15.5126 20.7329 15.3386Z" fill="#EEC643"/>
<path d="M16.5614 15.0645H10.7145C10.1977 15.0645 9.77881 15.4834 9.77881 16.0001C9.77881 16.5168 10.1977 16.9358 10.7145 16.9358H16.5614C17.0782 16.9358 17.4971 16.5168 17.4971 16.0001C17.4971 15.4834 17.0782 15.0645 16.5614 15.0645Z" fill="#EEC643"/>
</svg>

