<svg width="48" height="48" viewBox="0 0 48 48" fill="none" xmlns="http://www.w3.org/2000/svg">
<path fill-rule="evenodd" clip-rule="evenodd" d="M47.0625 19.5702H41.0625C40.5447 19.5702 40.125 19.99 40.125 20.5077V25.2421C40.125 25.7598 40.5447 26.1796 41.0625 26.1796C41.5803 26.1796 42 25.7598 42 25.2421V21.4452H46.125V46.125H44.0625H42V32.2733C42 31.7557 41.5803 31.3358 41.0625 31.3358C40.5447 31.3358 40.125 31.7557 40.125 32.2733V46.125H38.25V26.7188C38.25 26.2011 37.8303 25.7812 37.3125 25.7812H31.3125C30.7947 25.7812 30.375 26.2011 30.375 26.7188V46.125H28.5V33.2812C28.5 32.7636 28.0803 32.3438 27.5625 32.3438H21.5625C21.0447 32.3438 20.625 32.7636 20.625 33.2812V46.125H18.75V38.6602C18.75 38.1425 18.3303 37.7227 17.8125 37.7227H11.8125C11.2947 37.7227 10.875 38.1425 10.875 38.6602V46.125H2.8125C2.29556 46.125 1.875 45.7044 1.875 45.1875V2.8125C1.875 2.29556 2.29556 1.875 2.8125 1.875H26.9977V8.06278C26.9977 9.61359 28.2593 10.8753 29.8102 10.8753H35.9977V22.4062C35.9977 22.9239 36.4174 23.3438 36.9352 23.3438C37.4529 23.3438 37.8727 22.9239 37.8727 22.4062V9.93778C37.8727 9.68916 37.7738 9.45075 37.5981 9.27487L28.5981 0.274594C28.4222 0.0988125 28.1838 0 27.9352 0H2.8125C1.26169 0 0 1.26169 0 2.8125V45.1875C0 46.7383 1.26169 48 2.8125 48H47.0625C47.5803 48 48 47.5802 48 47.0625V20.5077C48 19.99 47.5803 19.5702 47.0625 19.5702ZM28.8727 3.20091L34.6719 9.00028H29.8102C29.2931 9.00028 28.8727 8.57972 28.8727 8.06278V3.20091ZM12.75 46.125H16.875V39.5977H12.75V46.125ZM26.625 46.125H22.5V34.2188H26.625V46.125ZM32.25 46.125H36.375V27.6562H32.25V46.125Z" fill="#EEC643"/>
<path d="M41.7253 27.9207C41.5509 27.7455 41.3091 27.646 41.0625 27.646C40.8159 27.646 40.5741 27.7455 40.3997 27.9207C40.2253 28.0951 40.125 28.3369 40.125 28.5835C40.125 28.8301 40.2253 29.0719 40.3997 29.2463C40.5741 29.4206 40.8159 29.521 41.0625 29.521C41.3091 29.521 41.5509 29.4207 41.7253 29.2463C41.8997 29.0719 42 28.8301 42 28.5835C42 28.3369 41.8997 28.0951 41.7253 27.9207Z" fill="#EEC643"/>
<path fill-rule="evenodd" clip-rule="evenodd" d="M13.648 5.13086C13.1303 5.13086 12.7105 5.55067 12.7105 6.06836V7.75483C8.39514 8.2233 5.02539 11.8889 5.02539 16.3269C5.02539 21.0814 8.89352 24.9495 13.648 24.9495C18.086 24.9495 21.7516 21.5799 22.2201 17.2644H23.9065C24.4242 17.2644 24.844 16.8445 24.844 16.3269C24.844 10.1533 19.8215 5.13086 13.648 5.13086ZM13.648 23.0744C9.92739 23.0744 6.90039 20.0474 6.90039 16.3268C6.90039 12.9243 9.43211 10.1019 12.7105 9.64408V16.3268C12.7105 16.8445 13.1303 17.2643 13.648 17.2643H20.3307C19.873 20.5427 17.0505 23.0744 13.648 23.0744ZM14.5855 15.3893V15.3894H22.9222C22.4814 10.997 18.9779 7.49345 14.5855 7.05264V15.3893Z" fill="#EEC643"/>
<path d="M23.9062 27.5859H6C5.48222 27.5859 5.0625 28.0058 5.0625 28.5234C5.0625 29.0411 5.48222 29.4609 6 29.4609H23.9062C24.424 29.4609 24.8438 29.0411 24.8438 28.5234C24.8438 28.0058 24.424 27.5859 23.9062 27.5859Z" fill="#EEC643"/>
<path d="M12 32.1094H6C5.48222 32.1094 5.0625 32.5292 5.0625 33.0469C5.0625 33.5646 5.48222 33.9844 6 33.9844H12C12.5178 33.9844 12.9375 33.5646 12.9375 33.0469C12.9375 32.5292 12.5178 32.1094 12 32.1094Z" fill="#EEC643"/>
<path d="M17.3576 32.3841C17.1833 32.2097 16.9414 32.1094 16.6948 32.1094C16.4473 32.1094 16.2064 32.2096 16.032 32.3841C15.8567 32.5584 15.7573 32.8003 15.7573 33.0469C15.7573 33.2934 15.8567 33.5353 16.032 33.7096C16.2064 33.884 16.4473 33.9844 16.6948 33.9844C16.9414 33.9844 17.1833 33.8841 17.3576 33.7096C17.532 33.5353 17.6323 33.2934 17.6323 33.0469C17.6323 32.8003 17.532 32.5584 17.3576 32.3841Z" fill="#EEC643"/>
</svg>

