<svg width="469" height="433" viewBox="0 0 469 433" fill="none" xmlns="http://www.w3.org/2000/svg">
<path fill-rule="evenodd" clip-rule="evenodd" d="M202 370H468V368H202V370Z" fill="#252C32"/>
<path fill-rule="evenodd" clip-rule="evenodd" d="M0 370H194V368H0V370Z" fill="#252C32"/>
<path fill-rule="evenodd" clip-rule="evenodd" d="M385.413 151.488C386.876 139.438 389.163 121.368 390.874 111.47C392.536 101.856 390.9 95.0409 382.922 100.608C372.621 107.797 371.437 149.81 371.394 151.488H385.413Z" fill="#FFD7CF"/>
<path fill-rule="evenodd" clip-rule="evenodd" d="M404.101 320.211C406.232 345.86 411.721 372.526 411.721 372.526C411.721 372.526 408.812 379.545 406.548 383.868C405.595 385.687 415.451 385.884 417.98 381.352C419.225 379.12 418.965 379.838 419.313 373.378C420.005 360.544 421.809 309.652 422.864 293.983C423.387 286.202 403.465 312.564 404.101 320.211Z" fill="#FFD7CF"/>
<path fill-rule="evenodd" clip-rule="evenodd" d="M367.088 289.7C371.131 324.161 375.733 347.862 376.652 366.705C376.762 368.961 376.484 372.125 374.214 375.401C373.118 376.981 382.86 379.194 384.105 377.281C385.234 375.546 384.294 368.758 384.303 365.917C384.351 350.919 389.107 319.367 387.915 306.036C386.609 291.447 366.196 282.088 367.088 289.7Z" fill="#FFD7CF"/>
<path fill-rule="evenodd" clip-rule="evenodd" d="M405.842 391.26C406.826 391.376 409.077 391.305 409.86 390.582L413.175 387.241C416.301 384.057 417.781 384.561 418.887 383.13C419.755 382.008 419.13 377.697 419.13 377.697C419.13 377.697 412.744 385.75 407.986 384.501C405.937 383.963 408.297 380.302 408.297 380.302C408.297 380.302 406.696 384.218 402.812 387.658C402.324 388.09 401.483 388.823 401.575 389.677C401.687 390.72 405.842 391.26 405.842 391.26Z" fill="#252C32"/>
<path fill-rule="evenodd" clip-rule="evenodd" d="M397.757 210.019C406.157 210.933 429.405 226.984 432.449 203.681C436.311 174.11 419.051 149.602 419.051 149.602L379.889 148.731C379.889 148.731 370.497 174.726 368.603 184.402C365.534 200.076 389.603 209.13 397.757 210.019Z" fill="#DF443A"/>
<path fill-rule="evenodd" clip-rule="evenodd" d="M407.221 352.43C407.221 352.43 398.896 297.695 397.284 280.081C394.702 251.846 391.218 195.045 391.218 195.045C391.218 195.045 423.188 171.731 430.197 179.756C438.943 189.768 423.524 256.12 423.615 279.375C423.634 284.182 425.201 294.814 425.269 299.621C425.479 314.301 421.604 352.258 421.604 352.258C421.604 352.258 418.102 354.023 413.257 354.023C410.458 354.023 407.221 352.43 407.221 352.43Z" fill="#DF443A"/>
<path fill-rule="evenodd" clip-rule="evenodd" d="M373.294 349.03C373.294 349.03 363.78 276.023 363.505 273.859C359.959 245.91 368.603 184.402 368.603 184.402L400.052 210.287C400.052 210.287 388.796 251.156 388.516 272.926C388.468 276.664 391.11 287.661 391.46 291.384C393.021 307.952 387.377 347.36 387.377 347.36C387.377 347.36 384.084 349.772 379.157 349.772C375.051 349.772 373.294 349.03 373.294 349.03Z" fill="#DF443A"/>
<path fill-rule="evenodd" clip-rule="evenodd" d="M417.842 97.4727C410.591 100.229 402.219 100.253 394.505 98.8334C386.12 97.29 380.848 94.7288 373.127 91.1713C376.135 84.4644 376.684 78.3857 377.236 74.3827C374.67 83.1652 373.127 83.8861 371.282 90.2067C370.568 89.8852 365.999 87.7257 365.279 87.419C369.765 86.8857 371.449 69.3289 377.531 60.564C386.277 47.9601 391.602 50.7286 394.488 50.4966C396.108 50.3665 400.742 45.3501 409.068 47.9601C419.695 51.2916 426.076 57.1184 428.762 75.8679C429.45 80.6797 430.77 83.1739 434.053 88.6063C429.534 89.6092 422.26 95.7932 417.842 97.4727Z" fill="#EDB945"/>
<path fill-rule="evenodd" clip-rule="evenodd" d="M378.288 93.5595L377.825 93.2665C377.836 93.25 378.93 91.4219 380.016 84.9608L380.554 85.0524C379.443 91.6633 378.334 93.4849 378.288 93.5595Z" fill="#252C32"/>
<path fill-rule="evenodd" clip-rule="evenodd" d="M381.54 93.437L380.995 93.3893C381.003 93.2999 381.8 84.3665 383.809 77.3118L384.334 77.4627C382.34 84.4675 381.547 93.3481 381.54 93.437Z" fill="#252C32"/>
<path fill-rule="evenodd" clip-rule="evenodd" d="M389.67 97.881C383.57 95.7802 379.888 94.3257 376.538 92.6928L376.776 92.1996C380.105 93.8214 383.77 95.2688 389.847 97.362L389.67 97.881Z" fill="#252C32"/>
<path fill-rule="evenodd" clip-rule="evenodd" d="M388.026 123.732C395.508 122.842 398.064 100.753 391.89 97.6216C385.71 94.4865 376.313 103.833 371.861 115.966C370.624 119.336 368.602 123.732 376.935 123.98C384.77 124.213 383.708 124.246 388.026 123.732Z" fill="#252C32"/>
<path fill-rule="evenodd" clip-rule="evenodd" d="M384.712 370.826C384.348 370.9 384.462 375.577 381.743 374.865C380.824 374.624 380.342 374.148 379.962 373.629C379.461 372.944 377.277 370.926 376.096 372.178C375.416 372.9 374.792 374.313 373.572 375.607C370.698 378.656 368.858 380.183 368.255 381.604C367.597 383.154 369.778 384.117 371.088 383.87C372.913 383.527 379.785 380.149 383.271 378.912C387.356 377.463 384.845 371.676 384.712 370.826Z" fill="#252C32"/>
<path fill-rule="evenodd" clip-rule="evenodd" d="M421.838 101.652C408.563 92.1503 390.586 90.0281 382.98 104.462C380.231 109.68 378.427 124.086 383.439 127.504C390.282 132.17 400.06 131.93 408.264 129.878C416.336 127.86 427.993 106.057 421.838 101.652Z" fill="#FFD7CF"/>
<path fill-rule="evenodd" clip-rule="evenodd" d="M388.428 73.7548C388.788 72.5681 390.188 72.5044 391.479 73.3916C392.541 74.1213 392.171 77.8407 390.395 77.7217C388.527 77.5966 387.806 75.8024 388.428 73.7548Z" fill="#F4C0B8"/>
<path fill-rule="evenodd" clip-rule="evenodd" d="M394.184 98.7739C393.567 92.8868 393.27 85.1605 394.701 82.9598C396.725 79.8478 407.011 78.4031 406.6 82.7184C406.301 85.8683 405.546 96.9041 405.316 99.265C404.991 102.58 394.629 103.02 394.184 98.7739Z" fill="#FFD7CF"/>
<path fill-rule="evenodd" clip-rule="evenodd" d="M406.612 83.4984L406.255 86.7838C404.732 90.4901 402.215 93.9154 399.309 94.323C396.972 94.6506 394.612 92.9656 393.675 90.4621L393.682 84.5447L406.612 83.4984Z" fill="#F4C0B8"/>
<path fill-rule="evenodd" clip-rule="evenodd" d="M407.096 80.9565L406.375 85.3113C404.853 89.017 400.386 91.9639 398.381 91.9639C396.448 91.9639 394.61 90.5867 393.672 88.0826L393.557 84.2771L407.096 80.9565Z" fill="#111107"/>
<path fill-rule="evenodd" clip-rule="evenodd" d="M392.237 62.0787C394.493 59.3617 402.198 56.0313 406.648 61.496C410.31 65.9918 409.56 72.3261 408.879 77.3311C407.94 84.2382 402.463 90.2379 398.863 90.2516C394.94 90.2658 390.14 83.4657 389.548 77.5182C388.971 71.7237 388.579 66.484 392.237 62.0787Z" fill="#FFD7CF"/>
<path fill-rule="evenodd" clip-rule="evenodd" d="M398.397 74.5405C398.647 73.5024 400.794 77.8934 399.309 78.8366C398.763 79.1828 397.019 78.9452 397.066 78.2374C397.131 77.2723 397.526 78.1568 398.397 74.5405Z" fill="#FF9EAB"/>
<path fill-rule="evenodd" clip-rule="evenodd" d="M408.43 75.2558C409.056 73.4639 410.066 72.6963 411.637 73.7887C412.694 74.5245 410.952 79.3006 408.432 79.4784C407.897 79.5162 407.723 77.2755 408.43 75.2558Z" fill="#F4C0B8"/>
<path fill-rule="evenodd" clip-rule="evenodd" d="M397.851 84.4449C398.202 84.3275 398.71 84.4361 399.439 84.9283C399.931 85.2602 399.252 85.7337 398.074 85.1258C397.382 84.7686 397.456 84.5777 397.851 84.4449Z" fill="#F4C0B8"/>
<path fill-rule="evenodd" clip-rule="evenodd" d="M395.862 54.1981C400.471 52.8835 407.082 59.5075 405.428 65.015C404.278 68.8464 400.327 68.1529 396.309 69.7665C392.633 71.2424 389.776 76.1891 383.345 72.7435C383.345 72.7435 385.574 57.1324 395.862 54.1981Z" fill="#EEC643"/>
<path fill-rule="evenodd" clip-rule="evenodd" d="M407.096 57.6275C403.195 56.4177 402.275 61.3667 402.869 66.0177C403.421 70.3478 407.417 75.8767 414.595 74.7003C414.595 74.7003 416.131 60.4284 407.096 57.6275Z" fill="#EEC643"/>
<path fill-rule="evenodd" clip-rule="evenodd" d="M423.162 103.441C420.936 99.3173 413.859 96.9131 410.415 95.063C409.766 96.2113 406.03 108.543 396.924 108.91C389.811 109.197 391.143 97.9835 392.744 95.063C379.698 95.5831 375.336 116.666 377.967 122.976C382.147 133 381.244 135.278 380.765 143.719C379.936 158.333 421.698 158.235 419.734 145.812C416.449 125.021 426.217 109.101 423.162 103.441Z" fill="#252C32"/>
<path fill-rule="evenodd" clip-rule="evenodd" d="M395.884 82.0514C395.884 82.0514 398.976 84.6516 401.842 81.906C401.842 81.906 400.132 81.8567 399.502 81.5895C399.253 81.483 398.792 82.1228 398.792 82.1228C398.792 82.1228 398.311 81.5895 398.133 81.5895C397.637 81.5889 395.884 82.0514 395.884 82.0514Z" fill="#111107"/>
<path fill-rule="evenodd" clip-rule="evenodd" d="M401.097 72.2058C401.202 72.3073 402.3 72.2365 402.7 72.2524C403.119 72.27 404.366 72.45 404.366 72.45C404.366 72.45 404.102 71.9287 402.745 71.6835C401.434 71.447 400.849 71.966 401.097 72.2058Z" fill="#131A6D"/>
<path fill-rule="evenodd" clip-rule="evenodd" d="M396.539 72.1519C396.446 72.2567 395.243 72.2238 394.811 72.2633C394.405 72.3001 393.204 72.5519 393.204 72.5519C393.204 72.5519 393.702 71.9818 394.964 71.6889C396.184 71.4068 396.759 71.9039 396.539 72.1519Z" fill="#111107"/>
<path fill-rule="evenodd" clip-rule="evenodd" d="M403.045 73.6182C403.012 73.2956 402.725 73.0607 402.404 73.0937C402.082 73.1271 401.848 73.4157 401.881 73.7383C401.914 74.061 402.142 74.1526 402.463 74.1197C402.785 74.0862 403.079 73.9408 403.045 73.6182Z" fill="#111107"/>
<path fill-rule="evenodd" clip-rule="evenodd" d="M409.22 78.4969C409.197 78.2813 409.006 78.1244 408.791 78.1463C408.575 78.1688 408.42 78.3614 408.441 78.577C408.463 78.7932 408.616 78.8541 408.831 78.8322C409.046 78.8097 409.242 78.7131 409.22 78.4969Z" fill="#131A6D"/>
<path fill-rule="evenodd" clip-rule="evenodd" d="M395.681 73.5764C395.703 73.2527 395.46 72.9723 395.137 72.9503C394.815 72.9284 394.535 73.1731 394.513 73.4968C394.491 73.8205 394.775 73.9621 395.097 73.984C395.419 74.006 395.659 73.9001 395.681 73.5764Z" fill="#111107"/>
<path fill-rule="evenodd" clip-rule="evenodd" d="M425.813 89.9037C424.764 86.1295 423.911 82.0732 423.045 76.7511L422.997 76.4527C421.24 65.6533 418.835 50.8624 403.497 50.8624V50.3137C419.3 50.3137 421.748 65.3707 423.536 76.3643L423.584 76.6628C424.447 81.964 425.297 86.0022 426.339 89.7561L425.813 89.9037Z" fill="#252C32"/>
<path fill-rule="evenodd" clip-rule="evenodd" d="M422.131 89.9168C419.951 83.3438 419.281 76.7993 418.572 69.8708C418.432 68.5046 418.292 67.1351 418.139 65.7618L418.683 65.7009C418.836 67.0759 418.977 68.447 419.116 69.8148C419.822 76.7121 420.488 83.2275 422.649 89.7434L422.131 89.9168Z" fill="#252C32"/>
<path fill-rule="evenodd" clip-rule="evenodd" d="M427.28 172.345C427.21 172.329 420.246 170.643 417.182 160.51L417.704 160.35C420.671 170.16 427.334 171.795 427.401 171.81L427.28 172.345Z" fill="#252C32"/>
<path fill-rule="evenodd" clip-rule="evenodd" d="M390.007 161.392L389.469 161.295C389.474 161.267 389.987 158.415 391.141 154.413L391.667 154.565C390.521 158.537 390.013 161.364 390.007 161.392Z" fill="#252C32"/>
<path fill-rule="evenodd" clip-rule="evenodd" d="M394.874 161.919C394.867 161.801 394.695 159.003 395.684 155.723L396.207 155.882C395.247 159.067 395.418 161.854 395.42 161.882L394.874 161.919Z" fill="#252C32"/>
<path fill-rule="evenodd" clip-rule="evenodd" d="M393.283 158.751C388.788 158.369 386.866 156.712 386.786 156.641L387.147 156.229C387.166 156.245 389.033 157.839 393.329 158.204L393.283 158.751Z" fill="#252C32"/>
<path fill-rule="evenodd" clip-rule="evenodd" d="M389.858 160.698C387.527 160.178 385.437 158.751 384.776 157.227C384.427 156.422 384.473 155.604 384.909 154.86C385.763 153.404 386.955 153.728 388.76 154.219C389.482 154.415 390.298 154.637 391.282 154.814L391.186 155.354C390.178 155.172 389.349 154.947 388.617 154.748C386.69 154.224 385.991 154.095 385.381 155.138C385.032 155.733 384.997 156.361 385.277 157.008C385.863 158.36 387.84 159.686 389.977 160.161L389.858 160.698Z" fill="#252C32"/>
<path fill-rule="evenodd" clip-rule="evenodd" d="M399.139 163.887C388.913 163.887 381.076 160.186 377.045 153.446L377.514 153.164C381.486 159.806 389.292 163.42 399.477 163.337C406.338 163.282 416.786 160.265 422.636 154.785L423.01 155.186C417.057 160.761 406.445 163.83 399.481 163.886C399.367 163.886 399.252 163.887 399.139 163.887Z" fill="#252C32"/>
<path fill-rule="evenodd" clip-rule="evenodd" d="M413.235 75.098C411.88 75.098 408.404 74.8308 405.731 72.318C403.465 70.1891 402.355 66.9805 402.43 62.7816L402.977 62.7915C402.905 66.8258 403.955 69.8956 406.1 71.9136C409.241 74.8698 413.716 74.5362 413.76 74.5324L413.806 75.0788C413.769 75.0821 413.564 75.098 413.235 75.098Z" fill="#252C32"/>
<path fill-rule="evenodd" clip-rule="evenodd" d="M388.082 74.1256C388.028 74.1256 387.98 74.1212 387.939 74.1119L388.059 73.5764C388.523 73.6795 391.978 72.2475 393.995 70.7754C397.195 68.4387 401.939 67.9021 402.139 67.8801L402.198 68.4255C402.15 68.431 397.397 68.9698 394.316 71.2193C392.655 72.4329 389.143 74.1256 388.082 74.1256Z" fill="#252C32"/>
<path fill-rule="evenodd" clip-rule="evenodd" d="M396.349 111.951C396.013 111.951 395.681 111.93 395.357 111.886C393.035 111.571 389.223 109.79 389.774 101.399L390.32 101.435C389.933 107.324 391.747 110.843 395.429 111.342C400.464 112.023 408.259 106.538 409.643 99.7767L410.179 99.887C408.924 106.016 401.949 111.951 396.349 111.951Z" fill="white"/>
<path fill-rule="evenodd" clip-rule="evenodd" d="M380.89 137.371C380.583 129.733 380.089 128.669 379.108 126.55C378.691 125.65 378.172 124.529 377.55 122.64C375.731 117.116 378.766 106.372 382.695 100.455L383.149 100.76C379.37 106.453 376.326 117.175 378.069 122.468C378.681 124.327 379.193 125.431 379.604 126.319C380.616 128.504 381.124 129.602 381.436 137.349L380.89 137.371Z" fill="white"/>
<path fill-rule="evenodd" clip-rule="evenodd" d="M385.749 138.942L384.125 135.238L370.247 135.544L368.786 139.232L385.749 138.942Z" fill="#DF443A"/>
<path fill-rule="evenodd" clip-rule="evenodd" d="M368.603 141.423L368.968 144.2L371.155 160.809C371.263 161.633 371.972 162.243 372.8 162.225L382.71 162.007C383.537 161.988 384.218 161.348 384.292 160.52L386.023 140.866L368.603 141.423Z" fill="#252C32"/>
<path fill-rule="evenodd" clip-rule="evenodd" d="M367.444 141.917L387.204 141.481L387.121 137.647L367.361 138.083L367.444 141.917Z" fill="#DF443A"/>
<path fill-rule="evenodd" clip-rule="evenodd" d="M385.509 151.347C387.912 153.289 387.98 155.214 392.388 156.526L396.734 149.738C396.734 149.738 389.47 144.051 386.136 141.597C383.865 139.926 378.281 140.1 376.173 139.791C375.67 139.718 375.299 140.081 375.424 140.521C375.75 141.674 381.969 142.559 381.969 142.559L377.576 142.731L375.084 143.928C374.59 144.165 374.684 144.854 375.256 145.094C376.756 145.725 378.842 144.695 378.842 144.695L381.831 145.567C381.831 145.567 379.442 146.904 375.574 147.749C375.312 147.807 375.434 148.622 376.167 148.93C376.73 149.168 378.508 149.539 378.508 149.539C378.508 149.539 378.912 150.253 379.087 150.361C380.794 151.418 384.381 150.435 385.509 151.347Z" fill="#FFD7CF"/>
<path fill-rule="evenodd" clip-rule="evenodd" d="M368.602 146.466C366.655 146.652 366.624 148.47 366.802 150.752C366.976 152.996 367.641 155.246 368.533 156.689C369.789 158.722 371.697 158.685 372.185 158.283C372.854 157.732 372.207 156.7 372.207 156.7C372.207 156.7 373.343 156.679 373.307 155.803C373.25 154.396 371.254 153.564 371.254 153.564C371.254 153.564 373.784 154.489 374.092 153.443C374.642 151.579 369.664 149.487 369.664 149.487C369.664 149.487 372.853 150.898 372.816 149.49C372.788 148.407 370.288 146.305 368.602 146.466Z" fill="#FFD7CF"/>
<path fill-rule="evenodd" clip-rule="evenodd" d="M429.489 111.676C434.683 128.041 433.328 125.983 434.658 145.635C435.5 158.085 433.882 157.916 426.076 158.501C408.21 159.839 392.388 156.525 392.388 156.525L396.734 149.738L419.734 145.812C419.734 145.812 418.411 139.782 414.854 120.493C411.09 100.086 426.358 101.809 429.489 111.676Z" fill="#FFD7CF"/>
<path fill-rule="evenodd" clip-rule="evenodd" d="M416.527 134.338C411.519 128.688 410.756 96.9399 417.488 98.5349C426.026 100.558 434.053 113.329 436.121 126.763C436.705 130.56 436.206 133.965 430.831 133.082C426.382 132.352 419.417 137.598 416.527 134.338Z" fill="#252C32"/>
<path fill-rule="evenodd" clip-rule="evenodd" d="M414.594 130.824C414.553 130.699 410.554 118.177 412.336 108.088L412.874 108.183C411.117 118.136 415.074 130.531 415.114 130.654L414.594 130.824Z" fill="white"/>
<path fill-rule="evenodd" clip-rule="evenodd" d="M270.504 51.9143L270.287 51.7738C268.452 50.5871 266.531 49.5013 264.578 48.5455L264.817 48.0522C266.712 48.9795 268.578 50.0285 270.365 51.1725L294.677 17.5854C278.76 6.80472 260.171 1.10738 240.902 1.10738C221.641 1.10738 203.065 6.79649 187.16 17.5618L211.472 51.1511C220.321 45.4982 230.491 42.5118 240.902 42.5118C245.699 42.5118 250.467 43.1433 255.073 44.3877L254.93 44.9177C250.37 43.6854 245.651 43.0605 240.902 43.0605C230.511 43.0605 220.361 46.0661 211.55 51.7524L211.333 51.8929L186.386 17.4258L186.619 17.2667C202.666 6.33616 221.437 0.558716 240.902 0.558716C260.375 0.558716 279.157 6.34439 295.218 17.2903L295.451 17.4494L270.504 51.9143Z" fill="#252C32"/>
<path fill-rule="evenodd" clip-rule="evenodd" d="M244.073 152.503V194.536C284.471 193.225 318.596 167.024 331.693 130.692L291.837 117.693C284.225 137.186 265.849 151.241 244.073 152.503Z" fill="#DF443A"/>
<path fill-rule="evenodd" clip-rule="evenodd" d="M252.859 151.539L252.741 151.003C257.171 150.014 261.47 148.463 265.52 146.395L265.768 146.884C261.677 148.973 257.335 150.54 252.859 151.539Z" fill="#252C32"/>
<path fill-rule="evenodd" clip-rule="evenodd" d="M270.34 144.264L270.047 143.801C277.108 139.292 283.131 133.113 287.467 125.931L287.934 126.215C283.555 133.469 277.472 139.71 270.34 144.264Z" fill="#252C32"/>
<path fill-rule="evenodd" clip-rule="evenodd" d="M300.177 21.2802L275.58 55.2601C287.813 65.3445 295.635 80.6353 295.635 97.7256C295.635 102.539 294.952 107.184 293.789 111.635L333.633 124.628C336.089 116.083 337.432 107.064 337.432 97.7256C337.432 66.6487 322.84 39.0119 300.177 21.2802Z" fill="#3EC25F"/>
<path fill-rule="evenodd" clip-rule="evenodd" d="M334.028 125.111L306.421 116.109L306.59 115.587L333.659 124.414C336.121 115.754 337.369 106.822 337.369 97.8601H337.915C337.915 106.967 336.635 116.044 334.107 124.839L334.028 125.111Z" fill="#252C32"/>
<path fill-rule="evenodd" clip-rule="evenodd" d="M189.96 117.678L150.105 130.677C163.197 167.016 197.325 193.225 237.729 194.536V152.503C215.947 151.239 197.57 137.177 189.96 117.678Z" fill="#EEC643"/>
<path fill-rule="evenodd" clip-rule="evenodd" d="M221.361 148.82C211.61 145.09 203.139 138.663 196.861 130.234L197.299 129.905C203.515 138.251 211.902 144.614 221.556 148.308L221.361 148.82Z" fill="#252C32"/>
<path fill-rule="evenodd" clip-rule="evenodd" d="M232.4 151.761C230.617 151.481 228.831 151.11 227.088 150.656L227.225 150.125C228.95 150.574 230.72 150.942 232.484 151.218L232.4 151.761Z" fill="#252C32"/>
<path fill-rule="evenodd" clip-rule="evenodd" d="M238.002 194.371L237.72 194.362C202.122 193.206 170.126 172.592 154.219 140.563L154.708 140.318C170.483 172.081 202.173 192.555 237.456 193.804V184.039H238.002V194.371Z" fill="#252C32"/>
<mask id="mask0" mask-type="alpha" maskUnits="userSpaceOnUse" x="52" y="387" width="202" height="46">
<path fill-rule="evenodd" clip-rule="evenodd" d="M52.1562 387.89H253.222V432.348H52.1562V387.89Z" fill="white"/>
</mask>
<g mask="url(#mask0)">
<path fill-rule="evenodd" clip-rule="evenodd" d="M76.3278 432.348H52.1562L96.4489 387.89H253.222V388.438H96.6752L53.4758 431.799H76.3278V432.348Z" fill="#252C32"/>
</g>
<path fill-rule="evenodd" clip-rule="evenodd" d="M323.559 428.279L323.172 427.891L362.478 388.438H253.222V387.89H363.797L323.559 428.279Z" fill="#252C32"/>
<mask id="mask1" mask-type="alpha" maskUnits="userSpaceOnUse" x="0" y="0" width="469" height="433">
<path fill-rule="evenodd" clip-rule="evenodd" d="M0 432.348H468.586V0.0466309H0V432.348Z" fill="white"/>
</mask>
<g mask="url(#mask1)">
<path fill-rule="evenodd" clip-rule="evenodd" d="M253.812 432.348H261.056V431.799H253.812V432.348Z" fill="#252C32"/>
<path fill-rule="evenodd" clip-rule="evenodd" d="M83.3716 432.348H249.234V431.799H83.3716V432.348Z" fill="#252C32"/>
<path fill-rule="evenodd" clip-rule="evenodd" d="M103.94 391.624L68.7982 426.897H62.3164L97.8604 391.624H103.94Z" fill="#EEC643"/>
<path fill-rule="evenodd" clip-rule="evenodd" d="M346.652 393.71L311.51 428.984H305.028L340.572 393.71H346.652Z" fill="#EEC643"/>
<path fill-rule="evenodd" clip-rule="evenodd" d="M66.7536 429.337L66.3672 428.949L80.0688 415.196L80.4552 415.584L66.7536 429.337Z" fill="#252C32"/>
<path fill-rule="evenodd" clip-rule="evenodd" d="M87.6316 408.516L87.2451 408.128L98.934 396.395L99.3205 396.783L87.6316 408.516Z" fill="#252C32"/>
<path fill-rule="evenodd" clip-rule="evenodd" d="M321.714 419.337L321.327 418.949L349.339 390.832L349.725 391.22L321.714 419.337Z" fill="#252C32"/>
<path fill-rule="evenodd" clip-rule="evenodd" d="M311.7 429.18L311.319 428.787L319.171 421.113L319.552 421.506L311.7 429.18Z" fill="#252C32"/>
<path fill-rule="evenodd" clip-rule="evenodd" d="M265.634 432.348H340.963V431.799H265.634V432.348Z" fill="#252C32"/>
<path fill-rule="evenodd" clip-rule="evenodd" d="M336.698 426.578H346.652V426.029H336.698V426.578Z" fill="#252C32"/>
<path fill-rule="evenodd" clip-rule="evenodd" d="M329.771 426.578H333.41V426.029H329.771V426.578Z" fill="#252C32"/>
<path fill-rule="evenodd" clip-rule="evenodd" d="M335.458 420.807H352.339V420.259H335.458V420.807Z" fill="#252C32"/>
<path fill-rule="evenodd" clip-rule="evenodd" d="M339.396 415.036H356.46V414.488H339.396V415.036Z" fill="#252C32"/>
<path fill-rule="evenodd" clip-rule="evenodd" d="M345.084 409.266H363.716V408.718H345.084V409.266Z" fill="#252C32"/>
<path fill-rule="evenodd" clip-rule="evenodd" d="M350.772 403.496H369.403V402.947H350.772V403.496Z" fill="#252C32"/>
<path fill-rule="evenodd" clip-rule="evenodd" d="M356.459 397.726H375.09V397.177H356.459V397.726Z" fill="#252C32"/>
<path fill-rule="evenodd" clip-rule="evenodd" d="M364.544 391.955H380.779V391.406H364.544V391.955Z" fill="#252C32"/>
<path fill-rule="evenodd" clip-rule="evenodd" d="M31.3574 432.348H52.8161V431.799H31.3574V432.348Z" fill="#252C32"/>
<path fill-rule="evenodd" clip-rule="evenodd" d="M45.5264 426.578H55.4798V426.029H45.5264V426.578Z" fill="#252C32"/>
<path fill-rule="evenodd" clip-rule="evenodd" d="M38.5991 426.578H42.2385V426.029H38.5991V426.578Z" fill="#252C32"/>
<path fill-rule="evenodd" clip-rule="evenodd" d="M44.2866 420.807H61.1673V420.259H44.2866V420.807Z" fill="#252C32"/>
<path fill-rule="evenodd" clip-rule="evenodd" d="M48.2241 415.036H65.288V414.488H48.2241V415.036Z" fill="#252C32"/>
<path fill-rule="evenodd" clip-rule="evenodd" d="M53.9121 409.266H72.5431V408.718H53.9121V409.266Z" fill="#252C32"/>
<path fill-rule="evenodd" clip-rule="evenodd" d="M59.6001 403.496H78.2311V402.947H59.6001V403.496Z" fill="#252C32"/>
<path fill-rule="evenodd" clip-rule="evenodd" d="M65.2876 397.726H83.9186V397.177H65.2876V397.726Z" fill="#252C32"/>
<path fill-rule="evenodd" clip-rule="evenodd" d="M73.373 391.955H87.1528V391.406H73.373V391.955Z" fill="#252C32"/>
<path fill-rule="evenodd" clip-rule="evenodd" d="M78.0547 388.438H94.2893V387.89H78.0547V388.438Z" fill="#252C32"/>
<path fill-rule="evenodd" clip-rule="evenodd" d="M92.6651 344.741H27.5381V347.453H39.6851L32.7124 416.627C32.6173 417.57 33.3552 418.389 34.2992 418.389H34.443C35.2432 418.389 35.9194 417.794 36.0244 416.998L45.1671 347.453H73.611L83.137 417.006C83.2458 417.799 83.9203 418.389 84.7173 418.389C85.664 418.389 86.4025 417.567 86.3041 416.622L79.0931 347.453H92.6651V344.741Z" fill="#DF443A"/>
<path fill-rule="evenodd" clip-rule="evenodd" d="M32.5409 334.558H87.649C90.4089 334.558 92.6669 336.824 92.6669 339.595V344.738C92.6626 344.742 27.5229 344.742 27.5229 344.742V339.595C27.5229 336.824 29.781 334.558 32.5409 334.558Z" fill="#252C32"/>
<path fill-rule="evenodd" clip-rule="evenodd" d="M47.8906 347.727H73.6113V347.179H47.8906V347.727Z" fill="#252C32"/>
<path fill-rule="evenodd" clip-rule="evenodd" d="M82.8486 347.727H89.4955V347.179H82.8486V347.727Z" fill="#252C32"/>
<path fill-rule="evenodd" clip-rule="evenodd" d="M44.346 319.188C44.346 319.188 42.4842 327.969 42.8685 330.457C43.6015 335.202 46.5155 336.392 49.5782 340.786C50.5381 342.163 49.0666 343.733 46.973 342.925C39.5259 340.052 33.7093 336.58 33.0944 333.829C32.2684 330.131 32.9572 319.188 32.9572 319.188H44.346Z" fill="#EEC643"/>
<path fill-rule="evenodd" clip-rule="evenodd" d="M69.4946 316.987C69.4946 316.987 70.202 327.323 71.2301 329.881C72.2671 332.461 79.1512 334.852 82.602 336.716C87.4287 339.325 89.3511 337.9 88.6165 336.418C87.5932 334.353 83.2132 330.255 82.0816 327.423C79.6907 321.439 79.7416 316.242 79.7416 316.242L69.4946 316.987Z" fill="#EEC643"/>
<path fill-rule="evenodd" clip-rule="evenodd" d="M83.7745 47.8753C75.4593 40.7081 52.4095 44.6843 51.1085 45.0206C42.3626 47.2828 36.7269 52.5637 35.256 62.534C33.2953 75.8205 30.6808 116.984 40.8676 123.271C54.4751 131.669 90.3454 116.145 95.9505 102.773C100.222 92.5817 93.213 56.0109 83.7745 47.8753Z" fill="#EEC643"/>
<path fill-rule="evenodd" clip-rule="evenodd" d="M73.5396 45.5028C71.2175 44.5986 63.6763 44.8614 63.3194 44.947C59.2668 45.9215 59.2668 49.6277 62.2338 51.4679C66.6674 54.2178 71.9451 52.997 74.3125 51.6621C76.7313 50.2976 76.7766 46.7637 73.5396 45.5028Z" fill="#111107"/>
<path fill-rule="evenodd" clip-rule="evenodd" d="M80.7135 20.133C80.3621 18.9007 78.9693 18.8189 77.6798 19.7231C76.6188 20.4665 76.9648 24.3204 78.7331 24.2167C80.5922 24.108 81.3192 22.259 80.7135 20.133Z" fill="#F4C0B8"/>
<path fill-rule="evenodd" clip-rule="evenodd" d="M73.9638 47.1958C73.4658 39.267 74.8006 32.1508 73.3953 29.9496C71.4078 26.8375 61.8873 26.6993 62.2595 30.9953C62.5312 34.1309 61.5167 45.7451 62.7466 49.6011C63.7535 52.757 74.23 51.4342 73.9638 47.1958Z" fill="#FFD7CF"/>
<path fill-rule="evenodd" clip-rule="evenodd" d="M62.2705 31.1279L62.2902 34.0836C63.7737 37.7827 66.1652 41.2223 68.8688 40.7076C71.8249 40.1452 73.0542 39.0122 74.0075 36.529L74.183 31.6612L62.2705 31.1279Z" fill="#F4C0B8"/>
<path fill-rule="evenodd" clip-rule="evenodd" d="M62.103 28.2151L62.2255 33.5882C63.6866 35.5913 65.6451 38.0274 69.5354 37.3959C71.1676 37.1309 73.3082 36.1301 74.2615 33.6469L74.0155 28.7484L62.103 28.2151Z" fill="#111107"/>
<path fill-rule="evenodd" clip-rule="evenodd" d="M75.9604 9.22629C73.739 6.50491 66.1021 3.12733 61.6292 8.52674C57.9493 12.9676 57.9876 19.5818 58.796 24.5412C59.6635 29.8621 62.6792 36.7133 68.9861 36.3435C75.6155 35.9551 77.3117 30.3537 77.8485 25.3313C78.4634 19.5719 79.5621 13.6387 75.9604 9.22629Z" fill="#FFD7CF"/>
<path fill-rule="evenodd" clip-rule="evenodd" d="M69.7673 21.3494C70.7222 25.0721 71.7958 24.31 71.8537 25.3031C71.8963 26.0317 70.0646 26.8235 69.4316 26.4668C67.7103 25.4957 69.4934 20.2812 69.7673 21.3494Z" fill="#FF9EAB"/>
<path fill-rule="evenodd" clip-rule="evenodd" d="M59.6485 20.657C59.0106 18.4805 57.1417 17.461 55.6123 18.6911C54.3458 19.71 55.3745 24.6293 57.7168 24.8675C59.2347 25.0216 60.3673 23.1106 59.6485 20.657Z" fill="#F4C0B8"/>
<path fill-rule="evenodd" clip-rule="evenodd" d="M81.2812 6.5468C78.178 -0.469525 69.2408 4.40097 73.9679 10.625C75.2749 12.3451 76.056 11.7021 76.3025 15.3962C76.578 19.5266 78.1818 21.3673 79.2805 21.9144C82.8713 23.7019 86.5107 19.6989 83.2468 16.1413C81.121 13.8237 82.5679 9.45528 81.2812 6.5468Z" fill="#D13C39"/>
<path fill-rule="evenodd" clip-rule="evenodd" d="M53.4274 15.8428C52.1078 12.0301 51.2015 8.18396 54.9442 6.59667C60.4312 4.27088 56.1703 0.50265 61.6699 0.076337C67.6138 -0.383993 69.2788 4.68402 74.2448 2.94915C76.087 2.30611 77.2862 3.16916 75.484 5.46258C73.3801 8.13897 74.1525 16.5292 67.2875 18.5016C64.9397 19.1765 60.992 18.8023 59.8031 18.9268C56.1916 19.3059 57.7823 22.514 55.2591 22.8778C52.3729 23.2936 50.8834 19.9956 53.4274 15.8428Z" fill="#DF443A"/>
<path fill-rule="evenodd" clip-rule="evenodd" d="M158.756 77.3757C164.167 75.1992 168.464 72.4926 172.795 67.7318C173.159 67.3308 173.438 64.0909 174.453 62.7516C177.707 58.4594 176.006 56.984 175.779 57.0746C171.963 58.6004 169.074 59.9847 165.52 61.2587C166.433 60.1164 167.933 59.1474 167.883 57.4575C167.864 56.7964 166.006 57.5025 165.122 58.3908C164.412 59.1046 159.984 61.5166 158.84 62.8784C156.809 65.2936 156.59 67.0509 154.734 69.707C156.788 71.6784 156.799 75.3122 158.756 77.3757Z" fill="#FFD7CF"/>
<path fill-rule="evenodd" clip-rule="evenodd" d="M85.9505 48.1915C92.112 57.2379 92.7373 64.1445 110.967 75.8305C123.748 84.0226 147.759 77.1336 154.293 64.9681C158.794 66.546 163.144 72.3361 167.009 74.7464C159.214 91.9887 135.903 106.482 121.109 108.099C97.101 110.722 74.1255 97.4677 67.7448 77.8123C66.2509 73.2096 87.7817 50.8794 85.9505 48.1915Z" fill="#EEC643"/>
<path fill-rule="evenodd" clip-rule="evenodd" d="M78.5304 94.4707C86.0835 88.691 96.102 80.3848 97.6282 65.3563C95.5231 63.301 93.505 59.6315 91.2999 57.0709C89.8126 65.7974 83.2728 81.1935 72.335 86.9622C72.8914 87.6409 74.1547 90.4863 78.5304 94.4707Z" fill="#FFD011"/>
<path fill-rule="evenodd" clip-rule="evenodd" d="M91.9202 103.414C101.9 101.036 109.891 86.5165 110.967 75.8301C108.883 74.5452 105.463 72.2276 103.521 70.5953C101.131 79.5753 92.3357 94.3975 84.4004 99.1764L91.9202 103.414Z" fill="#FFD011"/>
<path fill-rule="evenodd" clip-rule="evenodd" d="M122.587 107.885C123.726 100.043 123.92 86.813 121.891 79.2678C120.35 78.8069 117.052 79.2217 115.906 78.1112C114.556 86.0339 110.169 100.118 108.499 108.04C111.387 109.165 119.533 108.09 122.587 107.885Z" fill="#FFD011"/>
<path fill-rule="evenodd" clip-rule="evenodd" d="M144.531 96.953C144.531 96.953 140.876 84.0046 138.48 76.9432C136.547 77.5188 134.222 78.3264 132.237 78.6584C133.302 86.0533 135.964 93.119 136.527 102.225L144.531 96.953Z" fill="#FFD011"/>
<path fill-rule="evenodd" clip-rule="evenodd" d="M161.048 80.7063C161.048 80.7063 152.81 73.7531 150.71 69.6013C149.135 70.9658 147.483 72.433 145.682 73.487C149.105 77.6667 152.146 81.6264 155.99 86.6659C155.99 86.6659 161.288 81.4108 161.048 80.7063Z" fill="#FFD011"/>
<path fill-rule="evenodd" clip-rule="evenodd" d="M32.0692 101.765C32.0692 101.765 40.6489 98.5706 45.2395 87.4359C51.7623 71.613 46.9318 45.7127 46.9318 45.7127L55.2224 43.619C55.2224 43.619 63.1107 77.605 77.5125 76.9433C89.7234 76.382 80.4943 44.5671 80.4943 44.5671C80.4943 44.5671 83.9495 45.7127 85.9129 48.7743C91.1315 56.9104 91.2129 70.6644 93.3289 86.5328C94.4916 95.2528 98.5497 98.5481 98.5497 98.5481C98.5497 98.5481 105.095 142.096 93.0556 206.972C82.7698 262.396 83.3044 327.505 83.3044 327.505L69.1519 327.289C69.1519 327.289 58.1528 302.752 59.5139 251.741C59.8905 237.631 61.7769 223.505 61.7769 223.505C61.7769 223.505 64.4914 236.459 57.2689 261.816C51.7295 281.265 44.5332 330.957 44.5332 330.957H30.8787C25.249 269.832 31.146 266.472 31.6264 221.709C32.6874 122.902 32.0692 101.765 32.0692 101.765Z" fill="#252C32"/>
<path fill-rule="evenodd" clip-rule="evenodd" d="M69.7248 29.7587C69.3957 30.0616 68.1462 29.6226 68.2041 28.6537C68.2041 28.6537 70.3195 29.2106 69.7248 29.7587Z" fill="#111107"/>
<path fill-rule="evenodd" clip-rule="evenodd" d="M71.2496 18.4895C70.9686 18.2256 72.3838 17.5183 73.3535 17.78C74.0068 17.9562 74.3533 18.715 74.3533 18.715C74.3533 18.715 73.7367 18.3825 72.7867 18.4593C72.1554 18.5109 71.4212 18.6508 71.2496 18.4895Z" fill="#111107"/>
<path fill-rule="evenodd" clip-rule="evenodd" d="M73.0412 20.1725C73.0182 19.8373 72.7285 19.5844 72.3945 19.6074C72.0606 19.6305 71.8086 19.9213 71.8315 20.2559C71.8545 20.5917 72.0868 20.6943 72.4208 20.6713C72.7548 20.6482 73.0642 20.5078 73.0412 20.1725Z" fill="#111107"/>
<path fill-rule="evenodd" clip-rule="evenodd" d="M66.3184 20.5246C66.2971 20.1893 66.009 19.9342 65.675 19.9556C65.3405 19.977 65.0869 20.2661 65.1082 20.6014C65.1295 20.9372 65.4394 21.0436 65.7734 21.0222C66.108 21.0014 66.3397 20.8598 66.3184 20.5246Z" fill="#111107"/>
<path fill-rule="evenodd" clip-rule="evenodd" d="M76.4984 104.171L76.4279 103.626C83.81 102.661 86.7273 97.9756 87.8747 94.2151C89.4085 89.1871 88.3191 84.1449 87.2373 83.1853C87.0077 82.9817 86.8705 83.0432 86.8191 83.0662C76.8641 87.5307 71.5121 86.8992 68.315 86.5212C66.9424 86.3588 65.9508 86.2413 65.2085 86.6177C65.2074 86.6188 65.0784 86.705 64.9904 87.2355C64.6056 89.5646 65.6174 95.7695 68.4259 98.9204L68.0187 99.2858C65.021 95.9242 64.0158 89.4576 64.4673 87.0572C64.5619 86.553 64.7237 86.249 64.962 86.1283C65.8508 85.6773 66.9112 85.8024 68.3789 85.9758C71.5203 86.3472 76.7783 86.9689 86.5961 82.5653C86.9241 82.4182 87.281 82.4923 87.5997 82.7743C88.9739 83.994 89.9141 89.4027 88.3972 94.3758C87.2029 98.2906 84.1691 103.168 76.4984 104.171Z" fill="white"/>
<path fill-rule="evenodd" clip-rule="evenodd" d="M71.3369 89.8632C69.4664 89.8632 67.9392 89.6591 66.876 89.3376L67.0339 88.812C70.7805 89.9466 80.4688 89.5631 90.5102 83.7045L90.7851 84.1791C83.4189 88.4768 76.2133 89.8632 71.3369 89.8632Z" fill="white"/>
<path fill-rule="evenodd" clip-rule="evenodd" d="M36.193 162.355L35.9907 161.845C47.3156 157.323 45.9802 139.202 45.9649 139.02L46.5104 138.975C46.5252 139.162 47.889 157.685 36.193 162.355Z" fill="white"/>
<path fill-rule="evenodd" clip-rule="evenodd" d="M59.778 251.814L59.2505 251.668C72.3748 203.653 74.9347 190.146 74.9587 190.014L75.4966 190.115C75.472 190.246 72.9083 203.776 59.778 251.814Z" fill="white"/>
<path fill-rule="evenodd" clip-rule="evenodd" d="M63.9757 19.2451C63.1853 19.2451 62.6764 19.1397 62.625 19.1288L62.7398 18.5922C62.7704 18.5988 65.7845 19.2127 68.7515 17.2633C71.3851 15.5328 73.1868 12.3698 74.1062 7.86194L74.6413 7.97222C73.6908 12.6342 71.8066 15.9169 69.0412 17.7286C67.116 18.99 65.2056 19.2451 63.9757 19.2451Z" fill="#252C32"/>
<path fill-rule="evenodd" clip-rule="evenodd" d="M63.1925 15.4931C62.6383 15.4931 62.2808 15.4201 62.2441 15.4125L62.3573 14.8759C62.3781 14.8803 64.4487 15.2934 66.4712 13.9634C68.2384 12.8003 69.4497 10.689 70.0701 7.68726L70.6058 7.79918C69.9531 10.954 68.6593 13.1843 66.7609 14.4287C65.4085 15.3148 64.0595 15.4931 63.1925 15.4931Z" fill="#252C32"/>
<path fill-rule="evenodd" clip-rule="evenodd" d="M124.106 86.3179C124.834 95.6221 126.874 104.504 129.986 112.826L168.695 96.7409C167.19 92.3976 166.15 87.8272 165.775 83.0336C164.441 65.9811 171.058 50.1159 182.484 39.0992L155.312 7.1543C134.085 26.6105 121.681 55.3232 124.106 86.3179Z" fill="#252C32"/>
<path fill-rule="evenodd" clip-rule="evenodd" d="M117.271 111.212C123.023 110.104 127.779 108.222 132.964 104.241C133.4 103.906 134.298 100.641 135.556 99.4795C139.59 95.7552 138.198 93.8886 137.957 93.9347C133.902 94.7067 130.788 95.5253 127.041 96.0932C128.16 95.1121 129.825 94.4301 130.102 92.687C130.21 92.0061 128.243 92.3441 127.2 93.0711C126.363 93.6549 121.535 95.2082 120.145 96.3664C117.679 98.4211 117.124 100.177 114.783 102.515C116.428 104.962 115.739 108.69 117.271 111.212Z" fill="#FFD7CF"/>
<path fill-rule="evenodd" clip-rule="evenodd" d="M50.0007 57.0708C56.0748 76.0607 54.5934 78.3354 68.6383 96.138C78.4846 108.618 103.9 110.455 114.009 100.973C117.883 104.101 120.594 105.787 123.593 109.496C110.685 123.455 83.2975 134.716 68.4535 131.035C44.3667 125.061 28.0922 106.019 29.1417 84.6336C30.9308 48.1912 44.8652 41.0158 50.0007 57.0708Z" fill="#EEC643"/>
<path fill-rule="evenodd" clip-rule="evenodd" d="M33.197 104.196C42.3129 101.27 53.1289 96.9748 59.2724 82.9394C57.8698 80.1999 55.1159 72.8675 53.7734 69.6013C49.6229 77.5378 41.5952 87.7824 29.2012 89.497C29.5302 90.3535 30.1916 98.7793 33.197 104.196Z" fill="#FFD011"/>
<path fill-rule="evenodd" clip-rule="evenodd" d="M41.6121 116.135C52.0247 117.37 64.2777 106.122 68.6376 96.1376C67.0163 94.152 64.4198 90.691 63.044 88.4185C57.9407 96.2808 45.2674 107.44 36.0918 109.26L41.6121 116.135Z" fill="#FFD011"/>
<path fill-rule="evenodd" clip-rule="evenodd" d="M69.9528 131.352C73.4911 124.15 77.7859 111.386 78.1614 103.348C76.8096 102.354 73.484 101.586 72.7182 100.103C68.9503 107.308 60.3263 119.412 56.2485 126.505C58.6996 128.62 66.9289 130.468 69.9528 131.352Z" fill="#FFD011"/>
<path fill-rule="evenodd" clip-rule="evenodd" d="M95.3637 127.417C95.3637 127.417 95.0937 114.678 94.9636 106.979C92.911 106.851 90.4059 106.809 88.3796 106.427C87.1158 113.978 87.031 121.552 84.75 130.584L95.3637 127.417Z" fill="#FFD011"/>
<path fill-rule="evenodd" clip-rule="evenodd" d="M115.381 116.694C115.381 116.694 109.845 108.968 109.098 104.196C107.147 104.961 105.091 105.798 103.018 106.181C105.039 111.45 105.85 115.203 108.01 121.455C108.01 121.455 113.236 118.422 115.381 116.694Z" fill="#FFD011"/>
<path fill-rule="evenodd" clip-rule="evenodd" d="M272.454 330.214H217.511C218.174 331.235 218.547 332.381 218.547 333.589C218.547 334.797 218.177 335.941 217.514 336.964H272.519L273.186 336.348V331L272.454 330.214Z" fill="white"/>
<path fill-rule="evenodd" clip-rule="evenodd" d="M279.67 329.627C280.112 329.627 280.508 329.803 280.791 330.086C281.047 330.344 281.206 330.694 281.206 331.074V336.102C281.206 336.482 281.047 336.832 280.791 337.091C280.508 337.373 280.112 337.549 279.67 337.549C258.446 337.549 237.223 337.559 215.999 337.559V336.367H258.856C259.025 336.367 259.18 336.297 259.291 336.185C259.403 336.072 259.472 335.914 259.472 335.739V331.437C259.472 331.262 259.402 331.104 259.291 330.991C259.18 330.879 259.025 330.808 258.856 330.808H215.999V329.617C237.223 329.617 258.446 329.627 279.67 329.627Z" fill="#252C32"/>
<path fill-rule="evenodd" clip-rule="evenodd" d="M275.296 338.229H214.568C215.3 339.359 215.713 340.626 215.713 341.96C215.713 343.296 215.304 344.56 214.571 345.69H275.368L276.105 345.009V339.099L275.296 338.229Z" fill="white"/>
<path fill-rule="evenodd" clip-rule="evenodd" d="M283.272 337.581C283.761 337.581 284.199 337.775 284.51 338.089C284.794 338.373 284.97 338.761 284.97 339.181V344.737C284.97 345.158 284.794 345.545 284.51 345.83C284.199 346.143 283.761 346.337 283.272 346.337C259.813 346.337 236.355 346.348 212.896 346.348V345.031H262.89C263.077 345.031 263.247 344.954 263.37 344.829C263.494 344.705 263.571 344.53 263.571 344.337V339.582C263.571 339.389 263.494 339.215 263.37 339.09C263.247 338.964 263.077 338.887 262.89 338.887H212.896V337.571C236.355 337.571 259.813 337.581 283.272 337.581Z" fill="#DF443A"/>
<path fill-rule="evenodd" clip-rule="evenodd" d="M279.157 321.642C279.599 321.642 279.995 321.817 280.277 322.101C280.534 322.359 280.694 322.709 280.694 323.089V328.116C280.694 328.497 280.534 328.847 280.277 329.105C279.995 329.388 279.599 329.564 279.157 329.564H218.391C217.949 329.564 217.553 329.388 217.27 329.105C217.014 328.847 216.854 328.497 216.854 328.116V323.089C216.854 322.709 217.014 322.359 217.27 322.101C217.553 321.817 217.949 321.642 218.391 321.642H279.157Z" fill="#EEC643"/>
<path fill-rule="evenodd" clip-rule="evenodd" d="M197.586 374.684H277.872V354.567H197.586V374.684ZM307.914 346.348H167.543V354.567H189.052V404.648H197.586V382.546H277.872V404.648H286.405V354.567H307.914V346.348Z" fill="#252C32"/>
<path fill-rule="evenodd" clip-rule="evenodd" d="M175.871 354.841H216.951V354.293H175.871V354.841Z" fill="black"/>
<path fill-rule="evenodd" clip-rule="evenodd" d="M308.188 350.736H307.641V346.622H295.02V346.074H308.188V350.736Z" fill="black"/>
<path fill-rule="evenodd" clip-rule="evenodd" d="M224.093 354.841H234.416V354.293H224.093V354.841Z" fill="black"/>
<path fill-rule="evenodd" clip-rule="evenodd" d="M256.525 382.856L203.217 382.824L203.217 382.275L256.526 382.308L256.525 382.856Z" fill="black"/>
<path fill-rule="evenodd" clip-rule="evenodd" d="M133.512 111.527L133.303 111.02L166.905 97.0575L167.114 97.5645L133.512 111.527Z" fill="black"/>
<path fill-rule="evenodd" clip-rule="evenodd" d="M195.25 323.351L193.677 319.625L179.796 319.74L178.284 323.408L195.25 323.351Z" fill="#DF443A"/>
<path fill-rule="evenodd" clip-rule="evenodd" d="M178.07 325.596L178.398 328.378L180.357 345.015C180.454 345.84 181.154 346.46 181.982 346.454L191.894 346.372C192.722 346.365 193.412 345.735 193.496 344.908L195.497 325.28L178.07 325.596Z" fill="#252C32"/>
<path fill-rule="evenodd" clip-rule="evenodd" d="M176.906 326.074L196.67 325.911L196.639 322.076L176.875 322.24L176.906 326.074Z" fill="#DF443A"/>
<path fill-rule="evenodd" clip-rule="evenodd" d="M196.897 312.602H207.002V312.054H196.897V312.602Z" fill="white"/>
<path fill-rule="evenodd" clip-rule="evenodd" d="M193 312.602H195.635V312.054H193V312.602Z" fill="white"/>
<path fill-rule="evenodd" clip-rule="evenodd" d="M193.673 317.907H202.139V317.358H193.673V317.907Z" fill="white"/>
</g>
</svg>
