<svg width="470" height="486" viewBox="0 0 470 486" fill="none" xmlns="http://www.w3.org/2000/svg">
<path fill-rule="evenodd" clip-rule="evenodd" d="M178.425 267C178.425 267 199.181 305.757 179.574 327.138C167.142 340.695 148.368 338.757 137.612 339.959C128.23 341.007 100.218 321.721 111.733 317.114C125.647 311.547 152.114 313.711 163.02 303.264C168.737 297.786 166.875 274.443 166.875 274.443L178.425 267Z" fill="#FFD7CF"/>
<path fill-rule="evenodd" clip-rule="evenodd" d="M154.538 306.068C122.362 313.179 119.678 310.481 106.314 311.144C99.3353 311.49 122.809 329.461 114.878 340.724C115.48 344.854 141.497 344.365 161.961 343.102C162.465 343.07 157.895 335.717 157.81 325.05C157.715 313.312 158.615 305.167 154.538 306.068Z" fill="#3EC25F"/>
<path fill-rule="evenodd" clip-rule="evenodd" d="M178 266.486C178 266.486 176.308 257.613 170.164 251.126C169.645 250.58 165.105 246.132 162.476 245.201C160.315 244.435 156.775 245.973 158.425 247.865C164.913 255.305 164.151 260.085 164.151 260.085C164.151 260.085 161.451 257.15 159.462 256.472C158.684 256.206 158.763 257.487 159.892 259.761C160.799 261.588 161.82 264.877 162.806 266.469C164.555 269.292 166.916 274 166.916 274L178 266.486Z" fill="#FFD7CF"/>
<path fill-rule="evenodd" clip-rule="evenodd" d="M122 326L124.751 344L129 343.872C129 343.872 126.671 330.956 122 326Z" fill="#252C32"/>
<mask id="mask0" mask-type="alpha" maskUnits="userSpaceOnUse" x="36" y="422" width="56" height="64">
<path fill-rule="evenodd" clip-rule="evenodd" d="M36.2788 422.154H91.9373V485.496H36.2788V422.154Z" fill="white"/>
</mask>
<g mask="url(#mask0)">
<path fill-rule="evenodd" clip-rule="evenodd" d="M87.3134 485.496C89.6362 450.725 91.9373 424.205 91.9373 424.205C91.9373 424.205 42.1122 417.381 40.573 428.626C38.6977 442.324 34.8671 448.194 36.8179 485.496H87.3134Z" fill="#252C32"/>
</g>
<mask id="mask1" mask-type="alpha" maskUnits="userSpaceOnUse" x="70" y="407" width="49" height="80">
<path fill-rule="evenodd" clip-rule="evenodd" d="M70.364 407.106H118.54V486H70.364V407.106Z" fill="white"/>
</mask>
<g mask="url(#mask1)">
<path fill-rule="evenodd" clip-rule="evenodd" d="M118.535 486C118.617 465.052 117.7 444.417 113.515 428.109C110.331 415.702 70.364 407.106 70.364 407.106C70.364 407.106 72.13 445.347 74.1673 486H118.535Z" fill="#252C32"/>
</g>
<path fill-rule="evenodd" clip-rule="evenodd" d="M99.1063 314.863C83.3154 302.948 53.7829 304.148 44.1273 321.391C40.6361 327.625 45.8328 340.693 51.7991 344.985C59.9457 350.846 71.7984 350.857 81.7983 348.625C91.6382 346.429 101.367 341.948 107.362 335.042C114.195 327.17 106.427 320.387 99.1063 314.863Z" fill="#FFD7CF"/>
<path fill-rule="evenodd" clip-rule="evenodd" d="M63.9449 297.093C69.1553 304.403 83.726 305.664 88.7045 296.672C90.1758 294.014 88.506 288.271 89.4371 286.53C94.0508 277.9 87.1753 273.213 85.1737 270.365C81.1001 264.568 65.2679 267.018 62.6235 272C54.976 286.407 57.8061 288.48 63.9449 297.093Z" fill="#111107"/>
<path fill-rule="evenodd" clip-rule="evenodd" d="M91.1637 276.457C90.5046 275.813 87.7542 275.701 86.3763 277.113C85.2423 278.275 86.827 282.575 89.0538 281.936C91.3946 281.264 93.09 278.34 91.1637 276.457Z" fill="#F4C0B8"/>
<path fill-rule="evenodd" clip-rule="evenodd" d="M85.8958 290.13C84.9864 285.288 65.982 289.509 67.0428 294.741C67.8173 298.559 68.2917 310.965 68.409 313.883C68.5728 317.983 87.0119 318.365 87 313.058C86.9773 302.911 86.6388 294.085 85.8958 290.13Z" fill="#FFD7CF"/>
<path fill-rule="evenodd" clip-rule="evenodd" d="M67 294.988L67.8516 299.007C70.5988 303.039 75.3299 305.847 79.5458 304.767C84.1556 303.586 85.7632 301.264 87 298.21L86.1792 293L67 294.988Z" fill="#F4C0B8"/>
<path fill-rule="evenodd" clip-rule="evenodd" d="M81.3916 264.152C77.945 261.636 67.839 259.901 64.0694 267.415C60.9679 273.596 61.6713 282.56 64.0822 288.065C66.6684 293.97 73.879 300.79 81.3044 298.571C89.1103 296.237 90.6234 288.185 89.8004 282.225C88.8575 275.391 86.9794 268.23 81.3916 264.152Z" fill="#FFD7CF"/>
<path fill-rule="evenodd" clip-rule="evenodd" d="M89.9195 277.991C87.8246 278.152 85.8821 276.089 84.4209 271.242C82.9007 266.201 78.3144 266.997 77.2574 263.492C76.2009 259.987 78.5934 257.022 80.8588 257.001C89.7091 256.916 85.644 263.811 90.2499 266.29C94.4286 268.541 93.4609 277.719 89.9195 277.991Z" fill="#111107"/>
<path fill-rule="evenodd" clip-rule="evenodd" d="M81.8483 264.718C83.0872 269.236 76.3372 270.667 76.0533 273.968C75.8628 276.187 75.8659 276.835 71.4803 278.903C67.8367 280.62 64.7614 278.36 63.6216 285.532C63.0675 289.018 59.858 292.64 56.2348 287.269C55.4203 286.061 47.796 274.971 55.2217 265.745C60.8553 258.745 58.1452 251.969 68.09 254.568C72.3545 255.682 77.7247 252.898 79.4681 255.629C81.6354 259.024 80.1846 258.651 81.8483 264.718Z" fill="#111107"/>
<path fill-rule="evenodd" clip-rule="evenodd" d="M45 326.485C45 320.674 61.3783 304.991 63.4534 308.508C68.208 316.567 74.5364 318.097 78.7974 318.027C82.9638 317.959 89.7027 315.268 93.1706 309.457C95.6729 305.262 109.535 316.904 111.161 321.514C115.801 334.663 110.198 425.188 110.198 425.188C110.198 425.188 97.1496 429.165 78.1883 427.66C64.0025 426.534 46.3258 421.889 46.3258 421.889C46.3258 421.889 45 339.863 45 326.485Z" fill="#38A550"/>
<path fill-rule="evenodd" clip-rule="evenodd" d="M79.5163 280.473C77.7702 277.97 77.2196 286.184 79.5608 286.914C81.1232 287.401 83.3113 285.707 82.963 284.542C82.6049 283.344 81.7944 283.737 79.5163 280.473Z" fill="#FF9EAB"/>
<path fill-rule="evenodd" clip-rule="evenodd" d="M81.0004 293.64C80.9669 294.387 83.2165 293.93 82.983 292.658C82.7431 291.35 81.0661 292.157 81.0004 293.64Z" fill="#F4C0B8"/>
<path fill-rule="evenodd" clip-rule="evenodd" d="M120.771 321.616C115.223 310.263 103.525 310.337 96.893 309.035C96.6327 312.609 81.743 342.335 56.7219 308C43.5581 310.908 34.7873 312.327 29.9468 321.435C17.443 344.964 38.3128 411.154 42.05 424.449C44.9673 434.83 102.103 438.199 110.76 427.182C116.921 419.342 134.765 350.254 120.771 321.616Z" fill="#3EC25F"/>
<path fill-rule="evenodd" clip-rule="evenodd" d="M36.0391 335L34 376C34 376 48.2871 371.28 36.0391 335Z" fill="#111107"/>
<path fill-rule="evenodd" clip-rule="evenodd" d="M61 313C61 313 75.292 339.374 83.7719 335.637C86.5798 334.4 87 323.378 87 323.378L61 313Z" fill="#38A550"/>
<path fill-rule="evenodd" clip-rule="evenodd" d="M96.2343 310C96.2343 310 101.524 333.01 93.7923 331.965C89.5707 331.395 85 323.44 85 323.44L96.2343 310Z" fill="#38A550"/>
<path fill-rule="evenodd" clip-rule="evenodd" d="M80.2752 278.93C79.2672 278.2 81.2272 276.903 82.9377 277.006C84.6476 277.108 85 278.178 85 278.178C85 278.178 83.6752 277.987 82.3077 278.376C81.3037 278.661 80.6335 279.19 80.2752 278.93Z" fill="#111107"/>
<path fill-rule="evenodd" clip-rule="evenodd" d="M74.9707 280.083C75.2795 278.803 73.0745 278.637 71.878 279.697C70.6815 280.756 71.0553 282 71.0553 282C71.0553 282 71.9154 281.069 73.1503 280.682C74.0561 280.397 74.8611 280.538 74.9707 280.083Z" fill="#111107"/>
<path fill-rule="evenodd" clip-rule="evenodd" d="M73.9554 281.238C74.1184 281.549 73.8208 281.878 73.2911 281.974C72.7609 282.07 72.1988 281.895 72.0358 281.584C71.8729 281.273 72.2886 281.169 72.8189 281.074C73.3491 280.978 73.7924 280.926 73.9554 281.238Z" fill="#111107"/>
<path fill-rule="evenodd" clip-rule="evenodd" d="M83.9553 279.238C84.1183 279.549 83.8214 279.878 83.2911 279.974C82.7608 280.07 82.1988 279.895 82.0358 279.584C81.8729 279.273 82.2885 279.169 82.8188 279.074C83.3491 278.978 83.7924 278.927 83.9553 279.238Z" fill="#111107"/>
<path fill-rule="evenodd" clip-rule="evenodd" d="M87.3509 481C87.2749 473.77 86.5654 453.371 86 446.032L86.6478 446C87.2139 453.346 87.9241 473.761 88 480.996L87.3509 481Z" fill="white"/>
<path fill-rule="evenodd" clip-rule="evenodd" d="M80.1346 440C79.2914 440 78.4405 439.987 77.5811 439.961C65.6353 439.6 53.534 436.723 46 432.453L46.245 431.995C53.7129 436.228 65.7258 439.08 77.5958 439.439C91.4664 439.856 103.222 436.861 110.691 431L111 431.416C103.902 436.984 93.0105 440 80.1346 440Z" fill="white"/>
<path fill-rule="evenodd" clip-rule="evenodd" d="M40.0493 452L40 451.503C40.0613 451.497 46.2002 450.937 48.77 446.631C51.7225 441.683 51.4476 435.088 51.4449 435.021L51.9919 435C51.9946 435.067 52.2772 441.797 49.2507 446.87C46.5391 451.414 40.3132 451.978 40.0493 452Z" fill="white"/>
<path fill-rule="evenodd" clip-rule="evenodd" d="M87.3964 467L87 466.663C90.7549 463.228 90.5556 458.295 90.3629 453.524C90.3282 452.67 90.2941 451.826 90.2842 451.005L90.8348 451C90.8447 451.817 90.8788 452.657 90.913 453.507C91.1101 458.379 91.3132 463.417 87.3964 467Z" fill="white"/>
<path fill-rule="evenodd" clip-rule="evenodd" d="M94.7604 333C93.2081 333 91.2782 332.07 89 330.219L89.3699 329.835C92.1977 332.133 94.3944 332.946 95.8964 332.251C99.0729 330.783 98.3737 323.122 98.3659 323.045L98.9217 323C98.9535 323.33 99.6582 331.086 96.1475 332.707C95.7251 332.903 95.2626 333 94.7604 333Z" fill="#252C32"/>
<path fill-rule="evenodd" clip-rule="evenodd" d="M76.9693 319C72.148 319 67.4495 316.437 63 311.378L63.3698 311C67.7607 315.992 72.3739 318.512 77.1045 318.45C83.9012 318.38 88.5767 312.949 88.6231 312.895L89 313.265C88.9521 313.321 84.1256 318.927 77.1091 318.999C77.0632 319 77.0157 319 76.9693 319Z" fill="#252C32"/>
<path fill-rule="evenodd" clip-rule="evenodd" d="M79.8561 336C73.8453 334.165 65.3586 320.843 65 320.276L65.4218 320C65.5085 320.137 74.1663 333.73 80 335.511L79.8561 336Z" fill="#252C32"/>
<path fill-rule="evenodd" clip-rule="evenodd" d="M120.564 393L120 392.894C120.092 392.513 129.059 354.592 123.743 333.109L124.306 333C129.648 354.591 120.656 392.618 120.564 393Z" fill="#252C32"/>
<path fill-rule="evenodd" clip-rule="evenodd" d="M84.7593 385L84.265 384.848C84.362 384.55 93.8791 354.647 84 323.146L84.4963 323C94.4236 354.655 84.8568 384.7 84.7593 385Z" fill="#252C32"/>
<path fill-rule="evenodd" clip-rule="evenodd" d="M80.108 291L80 290.354C81.3322 290.032 82.6946 289.01 82.7083 289L83 289.558C82.9413 289.603 81.5411 290.654 80.108 291Z" fill="black"/>
<path fill-rule="evenodd" clip-rule="evenodd" d="M62.4153 284.202C61.6361 283.826 59.5666 283.838 59.1077 285.452C58.73 286.78 59.4138 288.217 60.1024 289.219C60.8416 290.293 62.222 291.49 63.6087 290.792C66.7978 289.187 63.6793 284.81 62.4153 284.202Z" fill="#F4C0B8"/>
<path fill-rule="evenodd" clip-rule="evenodd" d="M67.9498 418C67.9498 418 12.522 417.497 6.59028 389.21C2.04427 367.532 24.8504 313.49 37.4906 325.802C48.219 336.25 34.2998 374.209 36.2282 387.176C37.3513 394.729 68 403.981 68 403.981L67.9498 418Z" fill="#FFD7CF"/>
<path fill-rule="evenodd" clip-rule="evenodd" d="M66 417.252C66 417.252 74.296 420.982 83.4328 419.751C84.2024 419.647 90.6722 418.539 93.0767 416.953C95.0537 415.65 96.0136 411.914 93.4401 412.158C83.3096 413.118 79.8875 409.759 79.8875 409.759C79.8875 409.759 83.9715 409.267 85.7697 408.053C86.4732 407.578 85.3787 406.906 82.8166 406.511C80.759 406.193 77.4373 405.129 75.5222 405.01C72.125 404.799 66.8065 404 66.8065 404L66 417.252Z" fill="#FFD7CF"/>
<path fill-rule="evenodd" clip-rule="evenodd" d="M49.2295 334.303C56.1115 339.552 40.7111 376 40.7111 376L39 371.691C39 371.691 43.6769 330.067 49.2295 334.303Z" fill="#252C32"/>
<path fill-rule="evenodd" clip-rule="evenodd" d="M8.37898 378.846C19.816 382.008 41.1657 386.493 41.414 382.293C43.372 349.154 46.7354 347.301 49.7748 334.172C51.3625 327.316 44.3689 310.088 34.6922 314.807C12.9226 325.423 -2.01349 375.974 8.37898 378.846Z" fill="#3EC25F"/>
<mask id="mask2" mask-type="alpha" maskUnits="userSpaceOnUse" x="0" y="0" width="470" height="486">
<path fill-rule="evenodd" clip-rule="evenodd" d="M0 486H470V0H0V486Z" fill="white"/>
</mask>
<g mask="url(#mask2)">
<path fill-rule="evenodd" clip-rule="evenodd" d="M297 355H318V334H297V355Z" fill="#3EC25F"/>
<path fill-rule="evenodd" clip-rule="evenodd" d="M332 340H415V339H332V340Z" fill="#252C32"/>
<path fill-rule="evenodd" clip-rule="evenodd" d="M333 352H335.04V351H333V352ZM337.08 352H339.12V351H337.08V352ZM341.16 352H343.2V351H341.16V352ZM345.24 352H347.28V351H345.24V352ZM349.32 352H351.36V351H349.32V352ZM353.4 352H355.44V351H353.4V352ZM357.48 352H359.52V351H357.48V352ZM361.56 352H363.6V351H361.56V352ZM365.64 352H367.68V351H365.64V352ZM369.72 352H371.76V351H369.72V352ZM373.8 352H375.84V351H373.8V352ZM377.88 352H379.92V351H377.88V352ZM381.96 352H384V351H381.96V352Z" fill="#252C32"/>
<path fill-rule="evenodd" clip-rule="evenodd" d="M385 379H416V378H385V379Z" fill="#252C32"/>
<path fill-rule="evenodd" clip-rule="evenodd" d="M334 379H377V378H334V379Z" fill="#252C32"/>
<path fill-rule="evenodd" clip-rule="evenodd" d="M333 390H403V389H333V390Z" fill="#252C32"/>
<path fill-rule="evenodd" clip-rule="evenodd" d="M307.97 348L302 342.169L302.353 341.825L307.97 347.311L323.647 332L324 332.344L307.97 348Z" fill="black"/>
<path fill-rule="evenodd" clip-rule="evenodd" d="M297 395H318V374H297V395Z" fill="#3EC25F"/>
<path fill-rule="evenodd" clip-rule="evenodd" d="M332 421H415V420H332V421Z" fill="#252C32"/>
<path fill-rule="evenodd" clip-rule="evenodd" d="M333 432H403V431H333V432Z" fill="#252C32"/>
<path fill-rule="evenodd" clip-rule="evenodd" d="M297 437H318V416H297V437Z" fill="#3EC25F"/>
<path fill-rule="evenodd" clip-rule="evenodd" d="M264.512 486H264V291H342.53V291.51H264.512V486ZM276.717 486H276.205V302.58H321.884V303.09H276.717V486ZM437.795 486H437.283V303.09H392.646V302.58H437.795V486ZM450 486H449.488V291.51H375.501V291H450V486Z" fill="#252C32"/>
<path fill-rule="evenodd" clip-rule="evenodd" d="M357 294.326C352.87 294.326 349.523 290.899 349.523 286.671C349.523 282.444 352.87 279.017 357 279.017C361.13 279.017 364.477 282.444 364.477 286.671C364.477 290.899 361.13 294.326 357 294.326ZM375.101 288.532C375.101 278.297 366.997 270 357 270C347.003 270 338.899 278.297 338.899 288.532H326.721C325.771 288.532 325 289.321 325 290.294V306H389V290.294C389 289.321 388.229 288.532 387.278 288.532H375.101Z" fill="#DF443A"/>
<path fill-rule="evenodd" clip-rule="evenodd" d="M232 467H233V252H232V467Z" fill="#252C32"/>
<path fill-rule="evenodd" clip-rule="evenodd" d="M232 98H233V0H232V98Z" fill="#252C32"/>
<path fill-rule="evenodd" clip-rule="evenodd" d="M0 228H458V227H0V228Z" fill="#252C32"/>
<path fill-rule="evenodd" clip-rule="evenodd" d="M113.48 146.07C105.865 144.817 98.8008 141.397 93.053 136.18C85.091 128.953 80.4111 119.049 79.8759 108.293C79.3401 97.5352 83.0131 87.213 90.2175 79.2267C97.422 71.2408 107.296 66.5467 118.02 66.0098C128.746 65.4709 139.035 69.1566 146.997 76.383C153.894 82.6434 158.438 91.1661 159.792 100.38L159.289 100.455C157.953 91.357 153.466 82.9425 146.656 76.7617C138.795 69.6266 128.635 65.9879 118.046 66.5197C107.457 67.0499 97.7079 71.6843 90.5951 79.5691C83.4817 87.4544 79.855 97.6459 80.3842 108.267C80.9128 118.888 85.5331 128.666 93.3939 135.801C99.0699 140.953 106.044 144.329 113.563 145.567L113.48 146.07ZM73.3446 177L56.0498 161.302L65.3078 146.441C60.3806 140.114 56.6797 133.029 54.3042 125.376L37.1636 123.179L36 99.8118L51.9454 96.1195C53.105 87.9081 55.7593 80.0774 59.8362 72.8377L49.5216 59.4591L65.1714 42.1105L79.4704 51.0732C85.9778 46.4724 93.1843 43.1215 100.892 41.1113L103.179 23.1672L126.475 22L130.673 40.2376C137.786 41.6573 144.57 44.2228 150.845 47.8651L166.705 35.5628L184 51.2604L173.052 68.8356C174.223 70.6116 175.319 72.4631 176.31 74.3412L175.86 74.58C174.851 72.6683 173.733 70.7846 172.538 68.981L172.447 68.8438L183.343 51.3518L166.68 36.2278L150.885 48.4786L150.737 48.3923C144.423 44.7056 137.585 42.1197 130.413 40.7061L130.251 40.6739L126.074 22.5313L103.63 23.6555L101.354 41.519L101.187 41.5624C93.4204 43.566 86.1661 46.9389 79.6261 51.5876L79.4882 51.6861L65.2625 42.7699L50.184 59.4846L60.4458 72.7938L60.3623 72.9418C56.2411 80.2172 53.5705 88.0974 52.4247 96.3634L52.4008 96.5375L36.5296 100.213L37.6505 122.727L54.6939 124.912L54.7417 125.069C57.1142 132.778 60.8411 139.91 65.8181 146.266L65.9285 146.408L56.7072 161.211L73.3705 176.335L88.249 164.794L88.5599 165.197L73.3446 177Z" fill="#252C32"/>
<path fill-rule="evenodd" clip-rule="evenodd" d="M383.753 27.4384C375.926 27.1315 369.135 30.4578 362.15 33.4553C359.704 34.5049 357.37 35.4917 356.244 34.7382C353.175 32.684 350.95 28.5949 348.21 26.0506C341.72 20.0224 332.493 14.984 323.893 20.1349C319.926 22.5114 323.574 30.5622 308.382 28.8241C291.134 26.8506 283.346 41.4109 289.7 51.9993C291.508 55.0137 293.002 57.8285 292.661 61.5385C292.313 65.3248 289.882 68.7683 287.769 71.7919C283.303 78.1812 281.45 81.8846 280.23 89.8361C279.098 97.2193 282.22 104.382 287.988 109.375C299.419 119.271 316.024 110.514 319.237 108.503C324.51 105.201 332.67 109.389 336.049 108.87C342.822 107.829 343.913 106.476 348.27 103.752C351.099 101.983 355.038 101.293 358.242 101.644C362.553 102.117 367.004 101.781 371.144 100.235C378.361 97.5385 381.457 91.5492 382.617 84.1941C383.005 81.7337 382.614 77.9495 383.858 75.7321C384.811 74.0338 386.544 73.8292 388.502 73.2937C395.657 71.3397 402.601 69.0737 405.936 61.8061C413.205 45.9665 400.194 28.0834 383.753 27.4384Z" fill="#111107"/>
<path fill-rule="evenodd" clip-rule="evenodd" d="M405.79 50.767C419.29 47.3975 407.797 30.6317 399.406 32.0896C391.015 33.5475 395.42 53.356 405.79 50.767Z" fill="#DF443A"/>
<path fill-rule="evenodd" clip-rule="evenodd" d="M454.624 16.7904C443.82 23.1776 440.626 22.5926 436.648 19.4352C433.023 16.5588 426.547 9.47373 420.085 10.0311C411.536 10.7682 408.658 15.1087 405.743 18.0259C395.461 28.3122 396.723 48.3333 411.01 52.0974C419.858 54.428 427.026 52.2459 431.115 45.545C436.128 37.3301 439.378 43.4389 446.092 41.2392C461.264 36.2693 453.552 20.8349 465.599 18.322C476.759 15.9269 464.313 11.0632 454.624 16.7904Z" fill="#111107"/>
<path fill-rule="evenodd" clip-rule="evenodd" d="M262 186.257C262 186.257 252.313 178.314 246.963 176.878C243.264 175.884 241.595 175.656 240.323 174.562C239.185 173.583 238.449 170.687 237.281 171.028C234.806 171.747 236.562 178.46 237.23 179.826C239.26 183.976 242.882 188.076 247.732 189.8C250.143 190.657 261.026 194 261.026 194L262 186.257Z" fill="#FFD7CF"/>
<path fill-rule="evenodd" clip-rule="evenodd" d="M324.109 114.167C310.567 126.194 309.109 150.275 299.603 163.559C284.26 185 256.368 177.059 256.368 177.059L252 193.469C252 193.469 307.151 222.483 331.542 198.515C345.518 184.782 328.792 110.008 324.109 114.167Z" fill="#B73737"/>
<path fill-rule="evenodd" clip-rule="evenodd" d="M303 227H404C397.273 211.73 391.135 197.3 389.113 187.568C382.328 154.911 385.005 128.155 374.125 116.318C367.722 109.354 358.453 102.955 341.427 105.617C331.96 107.097 321.684 113.789 315.187 123.735C294.189 155.873 319.69 178.089 304.524 223.334C304.166 224.4 303.647 225.637 303 227Z" fill="#C93C39"/>
<path fill-rule="evenodd" clip-rule="evenodd" d="M329.695 112.227C324.153 123.931 353.728 122.019 348.341 109.171C346.681 105.212 332.207 106.924 329.695 112.227Z" fill="#252C32"/>
<path fill-rule="evenodd" clip-rule="evenodd" d="M253.545 169C262.891 171.224 254.63 177.329 254.63 177.329C255.683 184.549 249 181.246 249 181.246C249 181.246 250.418 178.919 251.841 174.676C252.803 171.804 253.545 169 253.545 169Z" fill="#111107"/>
<path fill-rule="evenodd" clip-rule="evenodd" d="M252.178 180.953C251.815 180.657 252.06 178.835 252.444 179.012C253.631 179.557 252.615 181.309 252.178 180.953Z" fill="#FFD300"/>
<path fill-rule="evenodd" clip-rule="evenodd" d="M336.853 124.899C337.389 124.628 336.333 123.818 335.719 124.037C333.822 124.715 336.207 125.225 336.853 124.899Z" fill="#252C32"/>
<path fill-rule="evenodd" clip-rule="evenodd" d="M336.853 129.899C337.389 129.628 336.333 128.818 335.719 129.037C333.821 129.715 336.207 130.225 336.853 129.899Z" fill="#252C32"/>
<path fill-rule="evenodd" clip-rule="evenodd" d="M311.005 90.3035C310.889 88.4461 312.748 87.6125 314.941 88.1713C316.745 88.6313 318.134 94.0478 315.674 94.8251C313.089 95.642 311.206 93.5075 311.005 90.3035Z" fill="#F4C0B8"/>
<path fill-rule="evenodd" clip-rule="evenodd" d="M331.899 114.468C328.582 102.227 321.969 93.1165 323.137 89.8487C324.789 85.2274 338.962 79.7565 339.981 85.4046C340.639 89.0547 344.168 99.4287 346.907 110.733C348.288 116.43 333.868 121.734 331.899 114.468Z" fill="#FFD7CF"/>
<path fill-rule="evenodd" clip-rule="evenodd" d="M340.949 90L343 96.6486C342.3 101.776 337.007 109.04 333.055 109C329.97 108.969 328.735 105.382 328.735 105.382L327 99.3196L340.949 90Z" fill="#F4C0B8"/>
<path fill-rule="evenodd" clip-rule="evenodd" d="M309.771 74.8385C311.321 70.4629 319.424 62.8077 327.592 67.4378C334.312 71.2463 337.333 79.4339 338.61 85.9295C339.981 92.8991 337.907 103.352 329.707 105.63C322.729 107.568 317.862 101.556 314.853 95.5954C311.403 88.7612 307.257 81.9322 309.771 74.8385Z" fill="#FFD7CF"/>
<path fill-rule="evenodd" clip-rule="evenodd" d="M324.158 89.273C323.96 87.6182 329.397 93.9351 327.655 96.1515C327.015 96.9667 324.425 97.4511 324.101 96.3924C323.66 94.9496 324.848 95.0375 324.158 89.273Z" fill="#FF9EAB"/>
<path fill-rule="evenodd" clip-rule="evenodd" d="M337 83.2125C337.014 80.2263 339.006 78.2602 341.388 79.2653C343.361 80.0981 343.851 86.6986 340.976 87.8459C339.112 88.5892 336.984 86.579 337 83.2125Z" fill="#F4C0B8"/>
<path fill-rule="evenodd" clip-rule="evenodd" d="M305.358 69.4914C310.77 64.1278 318.364 67.6325 315.292 78.0018C313.573 83.8032 315.552 87.837 313.246 90.2081C308.85 94.7299 295.946 78.8211 305.358 69.4914Z" fill="#111107"/>
<path fill-rule="evenodd" clip-rule="evenodd" d="M347.257 72.7892C339.757 71.286 343.946 63.7558 338.206 59.8804C333.182 56.4889 328.874 57.6133 324.585 53.4528C320.28 49.2771 318.376 55.264 309.389 56.9176C300.824 58.4932 300.593 70.4717 310.382 78.094C316.444 82.8149 323.738 84.3322 329.334 81.7519C335.563 78.8802 337.818 83.6012 342.781 82.5272C350.702 80.8138 355 73.4448 355 73.4448C355 73.4448 352.332 73.8065 347.257 72.7892Z" fill="#111107"/>
<path fill-rule="evenodd" clip-rule="evenodd" d="M320.986 85.7519C321.201 85.0772 318.899 84.5344 317.769 85.6066C317.006 86.3295 317 88 317 88C317 88 317.555 86.2067 319.142 86.3478C320.063 86.4296 320.854 86.1646 320.986 85.7519Z" fill="#111107"/>
<path fill-rule="evenodd" clip-rule="evenodd" d="M327.085 84.8877C326.563 84.4566 328.549 82.7685 330.145 83.0267C331.22 83.2006 332 84.5535 332 84.5535C332 84.5535 330.63 83.3981 329.152 84.3728C328.295 84.9385 327.404 85.1517 327.085 84.8877Z" fill="#111107"/>
<path fill-rule="evenodd" clip-rule="evenodd" d="M319.04 89.4428C318.886 88.845 319.19 88.2191 319.72 88.0452C320.25 87.8713 320.805 88.2143 320.959 88.8121C321.114 89.4092 320.813 89.7372 320.283 89.9111C319.753 90.085 319.195 90.0405 319.04 89.4428Z" fill="#111107"/>
<path fill-rule="evenodd" clip-rule="evenodd" d="M329.001 87.1858C328.976 86.5601 329.403 86.0294 329.954 86.0012C330.507 85.9729 330.974 86.4567 330.999 87.0824C331.024 87.7081 330.535 87.9686 329.983 87.9976C329.431 88.0258 329.026 87.8115 329.001 87.1858Z" fill="#111107"/>
<path fill-rule="evenodd" clip-rule="evenodd" d="M310.46 183C310.41 182.772 305.363 160.014 307.548 143L308.095 143.058C305.921 159.991 310.95 182.672 311 182.899L310.46 183Z" fill="#252C32"/>
<path fill-rule="evenodd" clip-rule="evenodd" d="M332.297 126C332.194 126 332.09 125.997 331.985 125.99C329.587 125.837 326.581 123.669 326 118.063L326.519 118C327.065 123.257 329.821 125.286 332.016 125.426C334.168 125.564 336.7 124.062 337.491 120.4L338 120.529C337.294 123.797 334.975 126 332.297 126Z" fill="#252C32"/>
<path fill-rule="evenodd" clip-rule="evenodd" d="M343.353 125C340.972 125 338.711 123.453 337 120.539L337.425 120.272C339.618 124.004 342.743 125.362 345.786 123.902C349.021 122.35 351.513 117.664 350.065 113.163L350.537 113C352.119 117.917 349.411 122.73 345.994 124.369C345.112 124.793 344.224 125 343.353 125Z" fill="#252C32"/>
<path fill-rule="evenodd" clip-rule="evenodd" d="M323.176 77C318.857 77 314.178 75.2828 310 72.0136L310.311 71.5984C316.404 76.3662 323.567 77.7629 329.005 75.2441C332.66 73.5504 334.983 74.4163 337.232 75.2535C338.887 75.87 340.452 76.4525 342.505 76.0054C350.223 74.328 354.517 67.0732 354.56 67L355 67.2672C354.957 67.342 350.553 74.7907 342.612 76.5168C340.413 76.9953 338.707 76.3594 337.056 75.7445C334.906 74.9434 332.682 74.1151 329.216 75.7199C327.36 76.5801 325.312 77 323.176 77Z" fill="white"/>
<path fill-rule="evenodd" clip-rule="evenodd" d="M340.347 72C338.472 72 337.056 71.2175 335.684 70.4587C333.714 69.3704 331.678 68.2439 328.152 69.392L328 68.8633C331.728 67.6499 333.86 68.8284 335.923 69.9682C337.438 70.806 338.867 71.5985 340.9 71.4232C348.525 70.7679 353.542 64.0675 353.591 64L354 64.3412C353.949 64.4109 348.798 71.2993 340.942 71.9746C340.739 71.9917 340.541 72 340.347 72Z" fill="white"/>
<path fill-rule="evenodd" clip-rule="evenodd" d="M327.019 99L327 98.3586C328.92 98.2597 329.57 97.0514 329.597 97L330 97.3583C329.968 97.4205 329.204 98.8876 327.019 99Z" fill="#131A6D"/>
<path fill-rule="evenodd" clip-rule="evenodd" d="M372.97 174.875C367.261 185.596 362 192 362 192C372.9 190.374 383.616 183.927 386 175.376C386 175.376 383.366 155.489 381.61 145C380.5 146.657 375.163 170.756 372.97 174.875Z" fill="#252C32"/>
<path fill-rule="evenodd" clip-rule="evenodd" d="M229.038 210.658C211.278 230.285 180.97 231.799 161.342 214.038C141.715 196.278 140.202 165.969 157.962 146.342C175.722 126.715 206.031 125.201 225.658 142.962C245.285 160.722 246.798 191.031 229.038 210.658ZM269.867 112.739L249.494 94.3039L230.504 108.989C222.792 104.499 214.512 101.427 206.023 99.7591L200.999 78L173.558 79.3704L170.821 100.788C161.643 103.148 152.83 107.172 144.851 112.826L127.739 102.133L109.304 122.506L121.648 138.468C116.631 147.3 113.442 156.85 112.088 166.594L93 171.001L94.3704 198.442L114.878 201.063C117.678 210.133 122.137 218.774 128.22 226.519L117.133 244.261L137.506 262.697L155.56 248.735C163.579 252.695 172.1 255.209 180.757 256.29L186.001 279L213.442 277.631L216.647 252.553C224.098 249.977 231.228 246.267 237.764 241.434L259.261 254.868L277.696 234.495L261.421 213.449C264.921 206.552 267.343 199.272 268.692 191.842L294 185.999L292.63 158.558L266.78 155.254C264.572 147.706 261.231 140.433 256.762 133.712L269.867 112.739Z" fill="#EEC643"/>
<path fill-rule="evenodd" clip-rule="evenodd" d="M191.717 140.55L191.693 140.043C192.296 140.014 192.907 140 193.509 140L193.737 140.001L193.735 140.508L193.509 140.508C192.914 140.508 192.311 140.522 191.717 140.55ZM197.762 140.746C197.096 140.671 196.42 140.613 195.751 140.574L195.781 140.067C196.459 140.107 197.145 140.165 197.818 140.241L197.762 140.746ZM187.702 140.952L187.624 140.45C188.295 140.346 188.978 140.26 189.653 140.193L189.704 140.698C189.037 140.764 188.364 140.85 187.702 140.952ZM201.741 141.407C201.088 141.262 200.422 141.133 199.76 141.024L199.844 140.522C200.514 140.634 201.189 140.764 201.851 140.911L201.741 141.407ZM183.752 141.775L183.622 141.284C184.278 141.11 184.947 140.952 185.612 140.814L185.716 141.311C185.06 141.448 184.399 141.604 183.752 141.775ZM205.628 142.487C204.994 142.274 204.345 142.075 203.699 141.895L203.835 141.406C204.489 141.587 205.147 141.789 205.79 142.005L205.628 142.487ZM179.911 143.012L179.73 142.537C180.364 142.295 181.014 142.067 181.659 141.859L181.815 142.342C181.178 142.547 180.537 142.772 179.911 143.012ZM209.377 143.975C208.767 143.694 208.143 143.427 207.522 143.181L207.709 142.708C208.339 142.958 208.971 143.229 209.589 143.513L209.377 143.975ZM176.224 144.65L175.993 144.198C176.596 143.89 177.218 143.594 177.839 143.317L178.046 143.781C177.432 144.054 176.819 144.347 176.224 144.65ZM212.945 145.854C212.371 145.511 211.779 145.179 211.186 144.867L211.423 144.417C212.024 144.734 212.623 145.07 213.205 145.418L212.945 145.854ZM172.733 146.673L172.456 146.247C173.023 145.877 173.609 145.516 174.197 145.175L174.452 145.614C173.871 145.951 173.293 146.307 172.733 146.673ZM216.292 148.103C215.758 147.702 215.206 147.308 214.648 146.934L214.932 146.512C215.496 146.891 216.057 147.29 216.597 147.697L216.292 148.103ZM169.479 149.056L169.157 148.663C169.681 148.235 170.225 147.813 170.773 147.411L171.074 147.821C170.532 148.218 169.996 148.634 169.479 149.056ZM219.386 150.693C219.255 150.571 219.123 150.45 218.99 150.33C218.623 149.997 218.25 149.673 217.872 149.357L218.198 148.968C218.58 149.288 218.958 149.616 219.331 149.953C219.465 150.075 219.599 150.198 219.731 150.321L219.386 150.693ZM166.495 151.772L166.134 151.415C166.612 150.931 167.108 150.455 167.609 149.999L167.951 150.375C167.456 150.825 166.967 151.295 166.495 151.772ZM222.192 153.592C221.751 153.087 221.292 152.586 220.827 152.105L221.191 151.752C221.663 152.239 222.129 152.746 222.575 153.258L222.192 153.592ZM163.812 154.786L163.416 154.468C163.84 153.939 164.284 153.413 164.735 152.906L165.114 153.244C164.669 153.744 164.231 154.263 163.812 154.786ZM224.674 156.772C224.29 156.222 223.887 155.676 223.475 155.148L223.876 154.836C224.293 155.37 224.701 155.924 225.091 156.481L224.674 156.772ZM161.461 158.064L161.033 157.79C161.398 157.219 161.784 156.65 162.18 156.098L162.593 156.394C162.202 156.938 161.822 157.5 161.461 158.064ZM226.804 160.198C226.482 159.612 226.14 159.027 225.785 158.456L226.216 158.188C226.576 158.766 226.923 159.36 227.249 159.954L226.804 160.198ZM159.473 161.572L159.018 161.345C159.32 160.739 159.643 160.131 159.978 159.541L160.42 159.791C160.09 160.374 159.771 160.974 159.473 161.572ZM228.555 163.832C228.297 163.214 228.019 162.595 227.728 161.992L228.186 161.771C228.48 162.382 228.762 163.01 229.024 163.637L228.555 163.832ZM157.87 165.272L157.393 165.096C157.63 164.459 157.886 163.821 158.155 163.199L158.621 163.401C158.356 164.014 158.103 164.644 157.87 165.272ZM229.91 167.633C229.719 166.99 229.508 166.345 229.283 165.714L229.762 165.544C229.989 166.183 230.203 166.837 230.397 167.488L229.91 167.633ZM156.671 169.124L156.178 168.999C156.345 168.343 156.532 167.681 156.734 167.031L157.219 167.182C157.019 167.823 156.835 168.476 156.671 169.124ZM230.854 171.556C230.731 170.895 230.59 170.231 230.433 169.582L230.928 169.463C231.086 170.121 231.229 170.794 231.353 171.463L230.854 171.556ZM155.887 173.081L155.385 173.009C155.482 172.335 155.597 171.657 155.728 170.994L156.227 171.092C156.097 171.746 155.983 172.415 155.887 173.081ZM231.378 175.557C231.325 174.889 231.255 174.213 231.168 173.549L231.672 173.483C231.761 174.156 231.831 174.84 231.884 175.517L231.378 175.557ZM155.528 177.099L155.02 177.081C155.045 176.401 155.088 175.715 155.148 175.04L155.654 175.086C155.595 175.751 155.552 176.429 155.528 177.099ZM231.985 179.604L231.477 179.59C231.487 179.231 231.492 178.873 231.492 178.514C231.492 178.2 231.488 177.886 231.481 177.572L231.989 177.56C231.996 177.877 232 178.195 232 178.514C232 178.877 231.995 179.241 231.985 179.604ZM155.087 181.169C155.04 180.49 155.011 179.803 155 179.126L155.508 179.117C155.519 179.786 155.548 180.465 155.594 181.134L155.087 181.169ZM231.654 183.679L231.15 183.611C231.24 182.945 231.313 182.271 231.367 181.605L231.873 181.646C231.818 182.321 231.744 183.005 231.654 183.679ZM155.585 185.227C155.467 184.559 155.365 183.879 155.282 183.204L155.786 183.142C155.868 183.808 155.968 184.479 156.085 185.138L155.585 185.227ZM230.894 187.695L230.4 187.575C230.56 186.923 230.703 186.259 230.828 185.603L231.327 185.698C231.201 186.362 231.056 187.035 230.894 187.695ZM156.508 189.21C156.32 188.558 156.147 187.892 155.994 187.231L156.488 187.116C156.64 187.769 156.811 188.426 156.996 189.069L156.508 189.21ZM229.711 191.609L229.233 191.436C229.461 190.807 229.674 190.162 229.869 189.521L230.354 189.668C230.158 190.318 229.941 190.971 229.711 191.609ZM157.849 193.073C157.592 192.443 157.349 191.799 157.127 191.159L157.606 190.992C157.826 191.624 158.066 192.259 158.319 192.881L157.849 193.073ZM228.118 195.373L227.661 195.15C227.956 194.546 228.237 193.928 228.497 193.314L228.965 193.512C228.701 194.134 228.417 194.76 228.118 195.373ZM159.593 196.771C159.272 196.175 158.962 195.561 158.672 194.945L159.131 194.728C159.418 195.336 159.724 195.942 160.04 196.53L159.593 196.771ZM226.132 198.945L225.702 198.674C226.058 198.108 226.403 197.524 226.729 196.939L227.173 197.186C226.843 197.778 226.493 198.37 226.132 198.945ZM161.722 200.261C161.338 199.701 160.964 199.123 160.611 198.544L161.044 198.28C161.393 198.851 161.762 199.421 162.141 199.974L161.722 200.261ZM223.778 202.286L223.378 201.972C223.793 201.446 224.198 200.901 224.584 200.354L224.999 200.646C224.608 201.201 224.197 201.753 223.778 202.286ZM164.212 203.505C163.769 202.987 163.336 202.453 162.924 201.916L163.327 201.606C163.734 202.137 164.161 202.664 164.598 203.174L164.212 203.505ZM220.636 205.815L220.278 205.455C220.752 204.983 221.221 204.491 221.67 203.994C221.811 203.838 221.951 203.682 222.089 203.524L222.471 203.859C222.331 204.018 222.19 204.177 222.046 204.335C221.592 204.838 221.117 205.336 220.636 205.815ZM167.03 206.465C166.536 205.998 166.049 205.512 165.582 205.022L165.95 204.671C166.411 205.155 166.891 205.634 167.38 206.096L167.03 206.465ZM217.59 208.542L217.271 208.146C217.792 207.728 218.31 207.288 218.81 206.84L219.149 207.219C218.642 207.672 218.118 208.118 217.59 208.542ZM170.143 209.115C169.603 208.701 169.067 208.27 168.553 207.831L168.882 207.444C169.39 207.877 169.918 208.304 170.451 208.712L170.143 209.115ZM214.271 210.93L213.997 210.503C214.561 210.141 215.123 209.759 215.665 209.368L215.962 209.78C215.412 210.177 214.843 210.563 214.271 210.93ZM173.516 211.422C172.936 211.069 172.358 210.696 171.799 210.313L172.086 209.894C172.638 210.272 173.208 210.639 173.78 210.987L173.516 211.422ZM210.716 212.951L210.489 212.496C211.088 212.197 211.687 211.877 212.269 211.547L212.521 211.988C211.931 212.323 211.324 212.647 210.716 212.951ZM177.116 213.356C176.503 213.068 175.889 212.759 175.29 212.437L175.531 211.99C176.121 212.307 176.727 212.612 177.333 212.897L177.116 213.356ZM206.966 214.58L206.788 214.104C207.418 213.869 208.047 213.615 208.66 213.349L208.863 213.815C208.242 214.085 207.603 214.342 206.966 214.58ZM180.903 214.896C180.262 214.675 179.618 214.433 178.989 214.177L179.18 213.707C179.801 213.959 180.437 214.198 181.068 214.416L180.903 214.896ZM203.064 215.801L202.938 215.309C203.587 215.143 204.24 214.957 204.88 214.757L205.031 215.242C204.383 215.445 203.721 215.633 203.064 215.801ZM184.832 216.023C184.172 215.871 183.506 215.699 182.852 215.512L182.993 215.024C183.637 215.208 184.294 215.378 184.946 215.528L184.832 216.023ZM199.054 216.602L198.981 216.099C199.645 216.003 200.314 215.887 200.97 215.756L201.07 216.254C200.405 216.387 199.727 216.504 199.054 216.602ZM188.859 216.726C188.185 216.645 187.504 216.545 186.836 216.428L186.924 215.928C187.583 216.043 188.254 216.142 188.92 216.222L188.859 216.726ZM194.983 216.975L194.963 216.468C195.633 216.442 196.311 216.398 196.977 216.337L197.024 216.842C196.348 216.904 195.661 216.949 194.983 216.975ZM192.939 217C192.26 216.991 191.572 216.963 190.895 216.917L190.929 216.411C191.598 216.455 192.276 216.483 192.945 216.492L192.939 217Z" fill="#252C32"/>
<path fill-rule="evenodd" clip-rule="evenodd" d="M289 184.049C289 184.049 279.756 175.476 274.365 173.035C270.259 171.176 268.592 171.046 266.466 171.002C262.828 170.926 257.036 173.201 255.972 173.966C253.649 175.638 255.636 179.112 260.377 180.718C264.17 182.002 268.314 184.7 273.383 186.797C275.902 187.839 287.318 192 287.318 192L289 184.049Z" fill="#FFD7CF"/>
<path fill-rule="evenodd" clip-rule="evenodd" d="M285 181C285 181 281.582 175.282 279.928 172.605C277.592 168.827 273.011 163.948 271.212 165.2C270.203 165.903 273.104 172.058 273.568 173.149C274.856 176.174 274.052 177.571 276.448 179.026C278.172 180.073 285 181 285 181Z" fill="#FFD7CF"/>
<path fill-rule="evenodd" clip-rule="evenodd" d="M369.78 112.069C357.971 110.013 351.021 154.711 340.689 164.485C319.913 184.14 285.215 178.939 285.215 178.939L280 193.438C280 193.438 327.106 215.488 358.929 195.869C373.706 186.759 383.155 170.66 382.998 144.515C382.885 125.474 376.516 113.241 369.78 112.069Z" fill="#DF443A"/>
<path fill-rule="evenodd" clip-rule="evenodd" d="M287.376 181C298.514 183.021 289.67 189.361 289.67 189.361C290.977 196.44 283 193.311 283 193.311C283 193.311 284.67 190.998 286.331 186.803C287.455 183.962 287.376 181 287.376 181Z" fill="#252C32"/>
<path fill-rule="evenodd" clip-rule="evenodd" d="M286.36 192.957C285.632 192.674 286.111 190.847 286.882 191.01C289.261 191.515 287.238 193.298 286.36 192.957Z" fill="#FFD300"/>
<path fill-rule="evenodd" clip-rule="evenodd" d="M347.468 151L347 150.819C347.056 150.667 352.673 135.301 360.544 117L361 117.208C353.136 135.496 347.523 150.847 347.468 151Z" fill="#252C32"/>
<path fill-rule="evenodd" clip-rule="evenodd" d="M330 305H366V304H330V305Z" fill="#252C32"/>
<path fill-rule="evenodd" clip-rule="evenodd" d="M309 355H296V341H296.506V354.52H309V355Z" fill="black"/>
<path fill-rule="evenodd" clip-rule="evenodd" d="M315 437H297V415H306.127V415.512H297.505V436.488H315V437Z" fill="black"/>
<path fill-rule="evenodd" clip-rule="evenodd" d="M332 461H415V460H332V461Z" fill="#252C32"/>
<path fill-rule="evenodd" clip-rule="evenodd" d="M333 473H403V472H333V473Z" fill="#252C32"/>
<path fill-rule="evenodd" clip-rule="evenodd" d="M297 477H318V456H297V477Z" fill="#3EC25F"/>
<path fill-rule="evenodd" clip-rule="evenodd" d="M315 477H297V455H306.127V455.512H297.505V476.488H315V477Z" fill="black"/>
<path fill-rule="evenodd" clip-rule="evenodd" d="M311 355H315V354H311V355Z" fill="black"/>
<path fill-rule="evenodd" clip-rule="evenodd" d="M308 416H318V415H308V416Z" fill="black"/>
<path fill-rule="evenodd" clip-rule="evenodd" d="M300 396H316V395H300V396Z" fill="black"/>
<path fill-rule="evenodd" clip-rule="evenodd" d="M370 305H379V304H370V305Z" fill="#252C32"/>
</g>
</svg>
