<svg width="470" height="559" viewBox="0 0 470 559" fill="none" xmlns="http://www.w3.org/2000/svg">
<mask id="mask0" mask-type="alpha" maskUnits="userSpaceOnUse" x="271" y="394" width="199" height="165">
<path fill-rule="evenodd" clip-rule="evenodd" d="M271.484 394.133H469.593V558.768H271.484V394.133Z" fill="white"/>
</mask>
<g mask="url(#mask0)">
<path fill-rule="evenodd" clip-rule="evenodd" d="M469.477 516.518L457.155 430.35C457.439 417.58 447.313 406.997 434.538 406.713L425.834 406.519L419.772 394.133L410.165 396.421L412.429 406.221L361.031 405.077C349.924 404.83 340.474 412.451 338.008 422.837C337.869 423.424 337.757 424.004 337.666 424.592L321.76 506.307L278.348 442.258L271.484 450.223L307.547 533.922C314.139 549.221 336.458 547.181 340.164 530.94L341.791 523.813L343.393 558.768H450.303L446.881 527.963L450.733 529.595C459.421 534.272 470.873 526.281 469.477 516.518Z" fill="#252C32"/>
</g>
<path fill-rule="evenodd" clip-rule="evenodd" d="M272.345 451L260.394 447.15C257.273 446.155 254.72 443.937 253.352 441.028L249.063 431.918C248.786 431.329 249.473 430.754 250.03 431.109L260.423 437.748C261.505 438.439 262.893 438.481 264.016 437.856C266.533 436.454 269.601 436.361 272.203 437.608L279 443.473L272.345 451Z" fill="#FFD7CF"/>
<path fill-rule="evenodd" clip-rule="evenodd" d="M421.179 396.573L424.242 383.805C425.38 380.454 425.231 376.718 423.834 373.497L419.455 363.405C419.171 362.753 418.311 362.927 418.245 363.65L417.009 377.166C416.881 378.571 416.067 379.778 414.903 380.287C414.642 380.4 414.388 380.528 414.141 380.67C411.158 382.374 409.626 386.225 410.078 389.978L412.196 399L421.179 396.573Z" fill="#FFD7CF"/>
<mask id="mask1" mask-type="alpha" maskUnits="userSpaceOnUse" x="363" y="407" width="58" height="152">
<path fill-rule="evenodd" clip-rule="evenodd" d="M363.066 407.158H420.798V558.779H363.066V407.158Z" fill="white"/>
</mask>
<g mask="url(#mask1)">
<path fill-rule="evenodd" clip-rule="evenodd" d="M369.027 407.158L363.066 558.779H420.798L411.728 408.15L369.027 407.158Z" fill="#FFDC0D"/>
</g>
<path fill-rule="evenodd" clip-rule="evenodd" d="M401.583 378.033L386.179 374L382 408.442L392.492 427L409 409.066L401.583 378.033Z" fill="#FFD7CF"/>
<path fill-rule="evenodd" clip-rule="evenodd" d="M399.898 391H394.102C390.196 391 387 388.293 387 384.984V382.016C387 378.707 390.196 376 394.102 376H399.898C403.804 376 407 378.707 407 382.016V384.984C407 388.293 403.804 391 399.898 391Z" fill="#F4C0B8"/>
<path fill-rule="evenodd" clip-rule="evenodd" d="M392.329 386.78L403.316 386.998C408.161 387.094 412.177 383.668 412.285 379.346L413 350.704L377.566 350L377.004 372.489C376.811 380.209 383.672 386.608 392.329 386.78Z" fill="#FFD7CF"/>
<path fill-rule="evenodd" clip-rule="evenodd" d="M413.483 337.421C409.927 333.793 405.031 331.82 399.972 331.707L398.181 331.667C398.151 331.666 398.122 331.673 398.092 331.673C397.975 331.669 397.858 331.66 397.74 331.657L368.5 331.001C367.15 330.972 366.036 332.047 366.006 333.406C365.87 339.57 368.122 345.418 372.349 349.874C376.575 354.329 382.269 356.858 388.383 356.996L406.546 357.404C408.482 357.447 410.029 359.042 410.029 360.994V379C411.582 378.331 413.021 377.381 414.279 376.169C417.026 373.52 418.585 369.95 418.67 366.119L418.995 351.383C419.111 346.137 417.151 341.164 413.483 337.421Z" fill="#252C32"/>
<path fill-rule="evenodd" clip-rule="evenodd" d="M412.999 364.578C412.956 366.51 411.355 368.042 409.422 367.999C407.49 367.956 405.958 366.354 406.001 364.422C406.044 362.49 407.645 360.958 409.578 361.001C411.51 361.044 413.042 362.646 412.999 364.578Z" fill="#F4C0B8"/>
<path fill-rule="evenodd" clip-rule="evenodd" d="M405.378 388.792C404.238 388.219 403.698 386.637 404.172 385.259L414.699 354.665C415.173 353.288 416.482 352.635 417.622 353.208C418.762 353.782 419.302 355.363 418.828 356.741L408.302 387.335C407.827 388.713 406.518 389.365 405.378 388.792Z" fill="#FFDC0D"/>
<path fill-rule="evenodd" clip-rule="evenodd" d="M455.625 477L421 401.631L422.375 401L457 476.368L455.625 477Z" fill="white"/>
<path fill-rule="evenodd" clip-rule="evenodd" d="M448.793 530C440.777 518.244 435.22 505.186 432.275 491.189L414 404.314L415.437 404L433.712 490.875C436.616 504.677 442.096 517.553 450 529.145L448.793 530Z" fill="white"/>
<path fill-rule="evenodd" clip-rule="evenodd" d="M468 189.103C468 143.169 430.685 105.931 384.654 105.931C375.701 105.931 367.081 107.345 358.999 109.952C349.669 98.3962 335.374 91 319.345 91C291.235 91 268.447 113.74 268.447 141.792C268.447 145.58 268.866 149.271 269.654 152.824C258.073 163.765 250.399 178.892 249.171 196.017C246.566 232.363 273.981 263.935 310.403 266.535C316.344 266.959 322.155 266.582 327.736 265.503C336.805 275.613 349.982 281.979 364.649 281.979C374.646 281.979 383.948 279.021 391.732 273.938L406.76 305L416.32 266.055C446.644 253.615 468 223.85 468 189.103Z" fill="#252C32" fill-opacity="0.1"/>
<path fill-rule="evenodd" clip-rule="evenodd" d="M350.699 221.925C350.699 216.431 354.854 212.08 360.212 212.08C365.46 212.08 369.724 216.431 369.724 221.925C369.724 227.535 365.46 232 360.212 232C354.854 232 350.699 227.535 350.699 221.925ZM352.558 204.066V187.123C357.369 186.092 361.633 184.375 365.46 181.742C369.287 179.109 371.145 176.246 371.145 172.927C371.145 166.859 365.898 163.768 358.572 163.768C352.339 163.768 345.779 165.943 339 170.179V155.754C345.232 151.29 352.558 149 361.086 149C368.194 149 374.317 151.061 379.346 155.182C384.485 159.189 387 164.799 387 171.896C387 177.506 385.032 182.314 381.095 186.321C377.16 190.328 372.567 193.19 367.209 194.908V204.066H352.558Z" fill="#252C32"/>
<path fill-rule="evenodd" clip-rule="evenodd" d="M312.787 149.446L311.671 148.513C312.081 148.004 312.5 147.499 312.929 147L314.017 147.967C313.599 148.456 313.188 148.948 312.787 149.446ZM308.838 154.899L307.631 154.09C307.987 153.54 308.352 152.994 308.725 152.453L309.908 153.299C309.543 153.828 309.186 154.361 308.838 154.899ZM305.475 160.745L304.192 160.071C304.489 159.485 304.795 158.903 305.11 158.325L306.373 159.039C306.065 159.604 305.766 160.173 305.475 160.745ZM302.738 166.922L301.392 166.39C301.626 165.775 301.87 165.163 302.124 164.555L303.454 165.129C303.206 165.723 302.967 166.321 302.738 166.922ZM300.656 173.36L299.261 172.975C299.432 172.338 299.611 171.703 299.8 171.071L301.182 171.499C300.998 172.117 300.822 172.738 300.656 173.36ZM299.249 179.987L297.823 179.752C297.927 179.1 298.04 178.45 298.162 177.801L299.581 178.079C299.461 178.713 299.35 179.349 299.249 179.987ZM298.531 186.727L297.089 186.646C297.125 185.986 297.171 185.327 297.226 184.669L298.666 184.794C298.611 185.438 298.567 186.082 298.531 186.727ZM297.066 193.581C297.034 192.92 297.012 192.26 297 191.6L298.444 191.572C298.456 192.218 298.478 192.864 298.509 193.509L297.066 193.581ZM297.754 200.481C297.654 199.827 297.565 199.173 297.485 198.517L298.919 198.336C298.997 198.977 299.085 199.617 299.181 200.256L297.754 200.481ZM299.148 207.271C298.982 206.631 298.825 205.99 298.678 205.346L300.085 205.013C300.229 205.642 300.382 206.269 300.545 206.895L299.148 207.271ZM301.235 213.875C301.004 213.257 300.782 212.635 300.569 212.011L301.934 211.529C302.142 212.139 302.359 212.747 302.585 213.352L301.235 213.875ZM303.997 220.22C303.702 219.629 303.416 219.035 303.14 218.437L304.448 217.811C304.717 218.396 304.996 218.976 305.285 219.554L303.997 220.22ZM307.403 226.232C307.048 225.676 306.702 225.116 306.365 224.552L307.6 223.788C307.929 224.34 308.267 224.888 308.615 225.432L307.403 226.232ZM311.414 231.847C311.003 231.331 310.601 230.81 310.208 230.285L311.357 229.395C311.741 229.907 312.135 230.416 312.536 230.92L311.414 231.847ZM315.979 237C315.518 236.531 315.066 236.057 314.622 235.578L315.673 234.57C316.108 235.038 316.549 235.502 317 235.96L315.979 237Z" fill="#252C32"/>
<path fill-rule="evenodd" clip-rule="evenodd" d="M411.327 144.43C410.893 143.962 410.451 143.498 410 143.04L411.021 142C411.482 142.469 411.934 142.942 412.378 143.422L411.327 144.43ZM415.643 149.606C415.259 149.092 414.866 148.584 414.464 148.08L415.586 147.153C415.996 147.669 416.399 148.19 416.792 148.714L415.643 149.606ZM419.4 155.212C419.071 154.66 418.733 154.112 418.385 153.568L419.597 152.768C419.952 153.324 420.298 153.884 420.635 154.448L419.4 155.212ZM422.553 161.189C422.283 160.604 422.003 160.024 421.715 159.446L423.003 158.78C423.298 159.371 423.584 159.965 423.86 160.563L422.553 161.189ZM425.066 167.471C424.858 166.861 424.641 166.253 424.414 165.648L425.764 165.125C425.996 165.743 426.218 166.365 426.431 166.989L425.066 167.471ZM426.915 173.987C426.771 173.357 426.618 172.731 426.455 172.105L427.852 171.729C428.018 172.369 428.175 173.01 428.322 173.654L426.915 173.987ZM428.081 180.664C428.003 180.023 427.915 179.383 427.818 178.744L429.246 178.519C429.346 179.173 429.435 179.827 429.515 180.483L428.081 180.664ZM428.556 187.428C428.544 186.782 428.522 186.136 428.491 185.491L429.934 185.419C429.966 186.08 429.988 186.74 430 187.4L428.556 187.428ZM429.774 194.331L428.334 194.206C428.388 193.562 428.433 192.918 428.469 192.273L429.911 192.354C429.875 193.014 429.829 193.673 429.774 194.331ZM428.838 201.199L427.419 200.921C427.539 200.287 427.65 199.651 427.75 199.013L429.177 199.248C429.073 199.9 428.96 200.55 428.838 201.199ZM427.2 207.929L425.818 207.501C426.003 206.883 426.178 206.262 426.345 205.64L427.738 206.025C427.568 206.662 427.389 207.297 427.2 207.929ZM424.876 214.445L423.546 213.872C423.794 213.277 424.033 212.679 424.262 212.078L425.608 212.61C425.374 213.225 425.13 213.837 424.876 214.445ZM421.89 220.675L420.627 219.961C420.934 219.396 421.234 218.827 421.524 218.255L422.808 218.929C422.511 219.515 422.205 220.097 421.89 220.675ZM418.274 226.547L417.092 225.701C417.457 225.172 417.814 224.639 418.161 224.101L419.368 224.91C419.013 225.46 418.648 226.006 418.274 226.547ZM414.071 232L412.983 231.033C413.402 230.545 413.812 230.052 414.213 229.554L415.33 230.487C414.919 230.996 414.5 231.501 414.071 232Z" fill="#252C32"/>
<path fill-rule="evenodd" clip-rule="evenodd" d="M168.866 73.6384C168.866 45.5998 145.645 22.8704 117 22.8704C88.3554 22.8704 65.134 45.5998 65.134 73.6384C65.134 81.9947 67.2096 89.8716 70.8639 96.8239L94.2545 156.481H139.746L163.137 96.8234C166.79 89.8716 168.866 81.9947 168.866 73.6384Z" fill="#EEC643"/>
<path fill-rule="evenodd" clip-rule="evenodd" d="M113.681 156.482L101.32 95.839L119.493 85.463L136.299 95.858L123.941 156.451L122.538 156.152L134.689 96.5727L119.464 87.1552L102.937 96.5917L115.084 156.184L113.681 156.482Z" fill="#252C32"/>
<path fill-rule="evenodd" clip-rule="evenodd" d="M118.809 68.8366C115.311 68.8366 112.465 71.5558 112.465 74.8981C112.465 77.5034 116.618 83.0061 118.809 85.6248C121 83.0056 125.154 77.502 125.154 74.8981C125.154 71.5558 122.308 68.8366 118.809 68.8366ZM118.809 87.8704L118.236 87.2135C117.492 86.3627 110.969 78.7868 110.969 74.8981C110.969 70.7679 114.486 67.4075 118.809 67.4075C123.133 67.4075 126.649 70.7679 126.649 74.8981C126.649 78.7868 120.127 86.3627 119.383 87.2135L118.809 87.8704Z" fill="#252C32"/>
<path fill-rule="evenodd" clip-rule="evenodd" d="M127.829 181.759H106.171C100.161 181.759 95.2886 176.688 95.2886 170.433V156.481H138.711V170.433C138.711 176.688 133.839 181.759 127.829 181.759Z" fill="#252C32"/>
<path fill-rule="evenodd" clip-rule="evenodd" d="M123.168 1.51435C122.521 1.47675 121.871 1.44772 121.219 1.42678L121.268 0C121.933 0.021416 122.596 0.0509225 123.256 0.0889955L123.168 1.51435ZM114.393 1.51816L114.303 0.0928028C114.963 0.0542539 115.626 0.0237956 116.291 0.00190365L116.341 1.42916C115.689 1.4501 115.04 1.48008 114.393 1.51816ZM129.953 2.2187C129.313 2.12257 128.669 2.03405 128.022 1.95409L128.21 0.538256C128.87 0.619637 129.527 0.71006 130.182 0.808574L129.953 2.2187ZM107.608 2.22822L107.379 0.818092C108.033 0.719102 108.69 0.628203 109.349 0.545871L109.539 1.96218C108.892 2.04261 108.249 2.13113 107.608 2.22822ZM136.639 3.54411C136.01 3.38849 135.378 3.24143 134.742 3.10247L135.07 1.71043C135.718 1.85177 136.364 2.00216 137.005 2.16064L136.639 3.54411ZM100.924 3.55887L100.556 2.17634C101.198 2.01739 101.843 1.86653 102.491 1.72375L102.819 3.11579C102.184 3.25571 101.552 3.40324 100.924 3.55887ZM143.168 5.4825C142.555 5.26929 141.939 5.0637 141.318 4.86572L141.782 3.50985C142.415 3.71163 143.045 3.92199 143.67 4.13995L143.168 5.4825ZM94.4021 5.50106L93.8988 4.15851C94.5219 3.94102 95.1494 3.73115 95.7804 3.52936L96.2452 4.88476C95.6271 5.08226 95.0124 5.28785 94.4021 5.50106ZM149.479 8.01816C148.89 7.74927 148.297 7.48752 147.7 7.23338L148.296 5.927C148.906 6.1859 149.511 6.45288 150.112 6.72796L149.479 8.01816ZM88.1128 8.03243L87.4789 6.74271C88.0768 6.46907 88.6787 6.20303 89.285 5.94509L89.8819 7.25099C89.288 7.50417 88.6979 7.7645 88.1128 8.03243ZM155.507 11.123C154.948 10.8013 154.384 10.4867 153.815 10.1788L154.538 8.93334C155.118 9.24696 155.693 9.5682 156.264 9.89706L155.507 11.123ZM82.0985 11.1335L81.3409 9.90753C81.9092 9.57962 82.4825 9.25933 83.0612 8.94666L83.7844 10.1916C83.2175 10.4986 82.6555 10.8127 82.0985 11.1335ZM161.2 14.7666C160.675 14.3949 160.145 14.0303 159.61 13.672L160.452 12.4989C160.998 12.8639 161.539 13.2361 162.074 13.6154L161.2 14.7666ZM76.414 14.7732L75.5391 13.622C76.0734 13.2437 76.6132 12.872 77.1584 12.5074L78.0008 13.6806C77.4664 14.038 76.9375 14.4025 76.414 14.7732ZM166.508 18.9137C166.022 18.4958 165.53 18.0842 165.033 17.6796L165.986 16.5879C166.494 17.0015 166.996 17.4212 167.491 17.8472L166.508 18.9137ZM71.1101 18.9184L70.1262 17.8524C70.6211 17.4265 71.1229 17.0067 71.6296 16.5936L72.583 17.6854C72.0866 18.0899 71.5951 18.5006 71.1101 18.9184ZM171.384 23.5248C170.942 23.0646 170.493 22.6106 170.038 22.1622L171.094 21.1628C171.558 21.6202 172.017 22.0837 172.468 22.5534L171.384 23.5248ZM66.2335 23.53L65.1495 22.5582C65.6016 22.089 66.06 21.6249 66.5243 21.1676L67.5802 22.167C67.1252 22.6153 66.6761 23.0698 66.2335 23.53ZM175.787 28.5585C175.392 28.0602 174.99 27.5677 174.581 27.0803L175.73 26.1818C176.147 26.6786 176.558 27.1817 176.961 27.69L175.787 28.5585ZM61.8287 28.5675L60.655 27.6995C61.0587 27.1903 61.4698 26.6863 61.8878 26.1885L63.0368 27.087C62.6277 27.5753 62.225 28.0688 61.8287 28.5675ZM179.675 33.9696C179.33 33.4375 178.979 32.9107 178.62 32.3886L179.851 31.5991C180.218 32.1316 180.577 32.6694 180.929 33.2124L179.675 33.9696ZM57.9369 33.9867L56.6834 33.23C57.0354 32.6856 57.3957 32.1464 57.7629 31.6119L58.9948 32.4015C58.6349 32.925 58.2825 33.4533 57.9369 33.9867ZM183.011 39.7091C182.721 39.1485 182.423 38.5921 182.117 38.0406L183.421 37.3671C183.733 37.9306 184.037 38.4984 184.334 39.0709L183.011 39.7091ZM54.5959 39.7405L53.2728 39.1023C53.5701 38.5274 53.8752 37.9573 54.1887 37.3914L55.4925 38.0639C55.1859 38.6183 54.8872 39.177 54.5959 39.7405ZM185.765 45.7261C185.531 45.1416 185.29 44.561 185.04 43.9847L186.405 43.4345C186.659 44.0232 186.906 44.6158 187.144 45.2125L185.765 45.7261ZM51.8379 45.7784L50.4577 45.2654C50.6968 44.6648 50.9447 44.0685 51.2 43.4759L52.5655 44.0252C52.3151 44.6053 52.0725 45.1897 51.8379 45.7784ZM187.913 51.9805C187.738 51.3747 187.555 50.7721 187.363 50.1735L188.776 49.7518C188.971 50.3633 189.159 50.9782 189.337 51.5964L187.913 51.9805ZM49.6927 52.04L48.2681 51.6569C48.4465 51.0387 48.6328 50.4238 48.828 49.8122L50.2413 50.2325C50.05 50.8312 49.8671 51.4337 49.6927 52.04ZM189.432 58.4039C189.317 57.7847 189.195 57.1679 189.063 56.5545L190.512 56.2656C190.645 56.8919 190.771 57.5215 190.887 58.1535L189.432 58.4039ZM48.1803 58.4648L46.7242 58.2154C46.8405 57.5829 46.9653 56.9538 47.0988 56.3275L48.5476 56.6149C48.4164 57.2288 48.2942 57.8451 48.1803 58.4648ZM190.31 64.9391C190.256 64.3114 190.195 63.686 190.124 63.0635L191.594 62.9088C191.666 63.5442 191.729 64.1824 191.783 64.8225L190.31 64.9391ZM47.3088 65L45.835 64.8853C45.8882 64.2452 45.9508 63.607 46.0218 62.9717L47.4922 63.1249C47.4222 63.7479 47.3611 64.3727 47.3088 65Z" fill="#252C32"/>
<path fill-rule="evenodd" clip-rule="evenodd" d="M8.44336 327.407H20.5052V279.259H8.44336V327.407Z" fill="#252C32"/>
<path fill-rule="evenodd" clip-rule="evenodd" d="M48.2473 412.87H63.9277V339.444H48.2473V412.87Z" fill="#252C32"/>
<path fill-rule="evenodd" clip-rule="evenodd" d="M12.7309 339.444H98.2381C103.937 339.444 108.557 334.697 108.557 328.84V324.771C108.557 318.914 103.937 314.167 98.2381 314.167H12.7309C7.03233 314.167 2.41235 318.914 2.41235 324.771V328.84C2.41235 334.697 7.03233 339.444 12.7309 339.444Z" fill="#252C32"/>
<path fill-rule="evenodd" clip-rule="evenodd" d="M4.82471 445.37H11.033C11.033 429.377 24.7192 416.366 41.5402 416.366H71.8442C88.6652 416.366 102.348 429.377 102.348 445.37H108.557C108.557 426.122 92.0878 410.463 71.8442 410.463H41.5402C21.2941 410.463 4.82471 426.122 4.82471 445.37Z" fill="#252C32"/>
<path fill-rule="evenodd" clip-rule="evenodd" d="M51.866 447.778H59.1031V412.87H51.866V447.778Z" fill="#252C32"/>
<path fill-rule="evenodd" clip-rule="evenodd" d="M95.2886 444.769C95.2886 449.09 98.7985 452.593 103.129 452.593C107.459 452.593 110.969 449.09 110.969 444.769C110.969 440.448 107.459 436.944 103.129 436.944C98.7985 436.944 95.2886 440.448 95.2886 444.769Z" fill="#252C32"/>
<path fill-rule="evenodd" clip-rule="evenodd" d="M0 444.769C0 449.09 3.50993 452.593 7.84045 452.593C12.1705 452.593 15.6804 449.09 15.6804 444.769C15.6804 440.448 12.1705 436.944 7.84045 436.944C3.50993 436.944 0 440.448 0 444.769Z" fill="#252C32"/>
<path fill-rule="evenodd" clip-rule="evenodd" d="M48.2473 444.769C48.2473 449.09 51.7572 452.593 56.0878 452.593C60.4178 452.593 63.9277 449.09 63.9277 444.769C63.9277 440.448 60.4178 436.944 56.0878 436.944C51.7572 436.944 48.2473 440.448 48.2473 444.769Z" fill="#252C32"/>
<path fill-rule="evenodd" clip-rule="evenodd" d="M12.6649 294.907C16.9949 294.907 20.5051 291.518 20.5051 287.337V231.459C20.5051 227.278 16.9949 223.889 12.6649 223.889C8.33489 223.889 4.82471 227.278 4.82471 231.459V287.337C4.82471 291.518 8.33489 294.907 12.6649 294.907Z" fill="#252C32"/>
<path fill-rule="evenodd" clip-rule="evenodd" d="M112.175 246.759H54.2783V85.3347L93.7361 80.6482L112.175 246.759Z" fill="#1D2226"/>
<path fill-rule="evenodd" clip-rule="evenodd" d="M76.996 108.333L65.2385 111.281L59.103 136.019H79.6082L76.996 108.333Z" fill="#FFD7CF"/>
<path fill-rule="evenodd" clip-rule="evenodd" d="M71.5757 120.24L65.4012 119.077C62.678 118.565 61.0021 115.5 61.6573 112.231L66.0007 90.5741L86.8453 90.2778L82.5029 111.328C81.3322 117.165 76.4395 121.155 71.5757 120.24Z" fill="#F4C0B8"/>
<path fill-rule="evenodd" clip-rule="evenodd" d="M82.0206 98.7037H67.0455C59.9942 98.7037 54.2783 93.0452 54.2783 86.0648C54.2783 79.0844 59.9942 73.4259 67.0455 73.4259H82.0206V98.7037Z" fill="#252C32"/>
<path fill-rule="evenodd" clip-rule="evenodd" d="M71.8171 117.765L64.1506 116.338C60.7701 115.709 58.5619 112.573 59.2186 109.334L63.5723 87.8704L89.2577 88.4692L84.8771 109.325C83.7032 115.11 77.8563 118.889 71.8171 117.765Z" fill="#FFD7CF"/>
<path fill-rule="evenodd" clip-rule="evenodd" d="M162.698 313.898L64.7064 296.333L37.3918 262.407H100.753L174.728 290.563C180.106 292.267 183.977 296.89 184.63 302.354L201.433 442.963H193.39L162.698 313.898Z" fill="#F2CDC7"/>
<path fill-rule="evenodd" clip-rule="evenodd" d="M217.113 454.998V452.663L200.609 442.963L191.783 442.963L191.784 455L198.042 454.999L196.848 450.252L208.861 454.999L217.113 454.998Z" fill="#3EC25F"/>
<path fill-rule="evenodd" clip-rule="evenodd" d="M131.633 315.774L30.1545 296.275L36.2829 262.407H65.8652L148.561 299.939C154.67 302.711 157.976 309.356 156.423 315.739L125.457 442.963L117.373 442.963L131.633 315.774Z" fill="#FFD7CF"/>
<path fill-rule="evenodd" clip-rule="evenodd" d="M143.536 454.998V452.663L127.032 442.963L118.206 442.963L118.207 455L124.465 454.999L123.27 450.252L135.284 454.999L143.536 454.998Z" fill="#3EC25F"/>
<path fill-rule="evenodd" clip-rule="evenodd" d="M82.896 92.6851H61.5154L62.9724 80.565L80.9881 72.2222H96.4948V81.5236C96.4948 87.6877 90.4061 92.6851 82.896 92.6851Z" fill="#252C32"/>
<path fill-rule="evenodd" clip-rule="evenodd" d="M68.7525 99.9074C68.7525 101.902 67.1324 103.518 65.1339 103.518C63.1355 103.518 61.5154 101.902 61.5154 99.9074C61.5154 97.913 63.1355 96.2963 65.1339 96.2963C67.1324 96.2963 68.7525 97.913 68.7525 99.9074Z" fill="white"/>
<path fill-rule="evenodd" clip-rule="evenodd" d="M65.2155 95.0926C64.6883 95.0926 64.2327 94.712 64.1705 94.1945C63.2656 86.6954 64.8931 80.753 69.0068 76.5323C76.0605 69.2965 87.7651 69.806 88.2602 69.8314C88.8406 69.8608 89.2862 70.3378 89.2562 70.8974C89.2256 71.4566 88.7348 71.8879 88.1496 71.858C88.0374 71.8524 76.9069 71.382 70.5342 77.9307C66.871 81.6948 65.4341 87.0876 66.2631 93.9606C66.3305 94.5172 65.9166 95.0211 65.3382 95.0855C65.2971 95.0906 65.2561 95.0926 65.2155 95.0926Z" fill="white"/>
<path fill-rule="evenodd" clip-rule="evenodd" d="M101.762 206.798L106.47 194.849L113.316 206.992L101.762 206.798ZM119.607 217.808C123.048 222.162 128.943 223.941 134.303 222.012L189.371 203.797L184.105 191.246L136.455 198.7L97.5175 141.006L97.4942 141.046C95.2569 136.592 90.6567 133.611 85.4442 133.611H41.1445C40.1188 133.611 39.0199 133.762 37.8928 134.043C31.218 135.702 26.5589 141.279 25.5386 147.737C25.2157 149.791 25.2607 151.923 25.7201 154.047L27.7052 222.407C27.5742 226.626 31.1898 229.992 35.384 229.555L42.821 228.518L42.8581 228.679C42.8581 228.679 28.3111 264.418 28.3111 281.92C28.3111 299.421 35.2505 314.881 67.156 318.322L77.3881 355.093L122.907 348.637L130.584 270.947L92.6423 251.209L97.2831 220.922L119.607 217.808Z" fill="#3EC25F"/>
<path fill-rule="evenodd" clip-rule="evenodd" d="M59.103 136.019L81.4954 156.026C82.7906 157.184 84.7905 155.964 84.3778 154.268L79.9343 136.019H59.103Z" fill="#FFD7CF"/>
<path fill-rule="evenodd" clip-rule="evenodd" d="M127.856 206.216L138.455 204.731C141.219 204.334 144.022 205.113 146.189 206.877L152.976 212.402C153.415 212.76 153.113 213.47 152.552 213.401L142.063 212.112C140.972 211.978 139.897 212.469 139.282 213.382C137.904 215.43 135.6 216.658 133.135 216.661L129.126 216.667L127.856 206.216Z" fill="#FFD7CF"/>
<path fill-rule="evenodd" clip-rule="evenodd" d="M86.1691 110.741H80.9493C77.7938 110.741 74.7348 109.856 72.1019 108.182L66.6441 104.713C66.3325 104.515 66.2464 104.111 66.4524 103.811C66.6581 103.511 67.0774 103.428 67.3899 103.626L72.8473 107.096C75.2583 108.629 78.0599 109.439 80.9493 109.439H86.1691C86.5429 109.439 86.8455 109.73 86.8455 110.09C86.8455 110.45 86.5429 110.741 86.1691 110.741Z" fill="#252C32"/>
<path fill-rule="evenodd" clip-rule="evenodd" d="M56.6907 95.6945C56.6907 101.346 61.2809 105.926 66.943 105.926C72.6056 105.926 77.1958 101.346 77.1958 95.6945C77.1958 90.0439 72.6056 85.463 66.943 85.463C61.2809 85.463 56.6907 90.0439 56.6907 95.6945Z" fill="#EEC643"/>
<path fill-rule="evenodd" clip-rule="evenodd" d="M59.103 96.2964C59.103 99.6202 61.8033 102.315 65.134 102.315C68.4646 102.315 71.1649 99.6202 71.1649 96.2964C71.1649 92.9725 68.4646 90.2778 65.134 90.2778C61.8033 90.2778 59.103 92.9725 59.103 96.2964Z" fill="white"/>
<path fill-rule="evenodd" clip-rule="evenodd" d="M84.4669 113.148H86.8112C88.1621 113.148 89.2576 112.07 89.2576 110.741C89.2576 109.411 88.1621 108.333 86.8112 108.333H84.4669C83.1155 108.333 82.0205 109.411 82.0205 110.741C82.0205 112.07 83.1155 113.148 84.4669 113.148Z" fill="#FFDC0D"/>
<path fill-rule="evenodd" clip-rule="evenodd" d="M120.619 231.111H234V223.889H120.619V231.111Z" fill="#252C32"/>
<path fill-rule="evenodd" clip-rule="evenodd" d="M205.273 175.741H204.831C202.954 175.741 201.433 174.424 201.433 172.801V67.94C201.433 66.3162 202.954 65 204.831 65H205.273C207.149 65 208.67 66.3162 208.67 67.94V172.801C208.67 174.424 207.149 175.741 205.273 175.741Z" fill="#252C32"/>
<path fill-rule="evenodd" clip-rule="evenodd" d="M220.024 223.889H189.371V221.387H220.024C222.274 221.387 224.29 220.3 225.557 218.406C226.824 216.512 227.078 214.202 226.256 212.068L209.573 168.811V143.241H212.028V168.337L228.54 211.153C229.648 214.026 229.291 217.264 227.586 219.815C225.88 222.366 223.053 223.889 220.024 223.889Z" fill="#252C32"/>
<path fill-rule="evenodd" clip-rule="evenodd" d="M136.299 221.482H171.278V219.074H136.299V221.482Z" fill="#252C32"/>
<path fill-rule="evenodd" clip-rule="evenodd" d="M184.546 194.449L194.011 189.896C196.476 188.699 199.29 188.676 201.771 189.832L209.546 193.453C210.049 193.688 209.956 194.491 209.416 194.583L199.32 196.305C198.27 196.484 197.4 197.289 197.07 198.388C196.33 200.852 194.513 202.755 192.221 203.469L188.494 204.63L184.546 194.449Z" fill="#FFD7CF"/>
<path fill-rule="evenodd" clip-rule="evenodd" d="M84.3114 97.4756C84.1412 97.6672 82.5166 96.6704 81.9141 96.4409C81.3455 96.2256 79.6082 95.9429 79.6082 95.9429C79.6082 95.9429 80.5197 94.8971 82.3585 95.125C84.1334 95.3453 84.713 97.0241 84.3114 97.4756Z" fill="#111107"/>
<path fill-rule="evenodd" clip-rule="evenodd" d="M81.9415 100.482C82.179 99.8043 81.8632 99.0461 81.2361 98.7892C80.6091 98.5324 79.9078 98.8739 79.6702 99.5518C79.4326 100.23 79.9104 100.717 80.5382 100.974C81.1652 101.23 81.7039 101.16 81.9415 100.482Z" fill="#111107"/>
<path fill-rule="evenodd" clip-rule="evenodd" d="M391.125 360.955C390.381 360.63 393.111 358.94 395.355 359.002C396.867 359.043 398 360.152 398 360.152C398 360.152 396.491 359.842 394.459 360.326C393.109 360.648 391.579 361.154 391.125 360.955Z" fill="#111107"/>
<path fill-rule="evenodd" clip-rule="evenodd" d="M385.853 360.975C386.645 360.734 384.09 359.083 381.815 359.002C380.281 358.948 379 359.856 379 359.856C379 359.856 380.564 359.673 382.558 360.221C383.884 360.586 385.369 361.122 385.853 360.975Z" fill="#111107"/>
<path fill-rule="evenodd" clip-rule="evenodd" d="M395.998 363.061C395.96 362.434 395.483 361.96 394.932 362.003C394.38 362.046 393.965 362.59 394.002 363.218C394.041 363.845 394.424 364.038 394.975 363.994C395.526 363.951 396.036 363.689 395.998 363.061Z" fill="#111107"/>
<path fill-rule="evenodd" clip-rule="evenodd" d="M382.998 362.065C382.963 361.439 382.488 360.963 381.937 361.002C381.385 361.042 380.967 361.582 381.002 362.209C381.037 362.835 381.548 363.035 382.1 362.995C382.651 362.956 383.033 362.692 382.998 362.065Z" fill="#111107"/>
<path fill-rule="evenodd" clip-rule="evenodd" d="M388.319 366.134C387.716 369.614 387.037 368.902 387 369.83C386.973 370.511 388.131 371.251 388.532 370.917C389.621 370.01 388.493 365.136 388.319 366.134Z" fill="#FF9EAB"/>
<path fill-rule="evenodd" clip-rule="evenodd" d="M384.071 377.245C383.476 376.727 386.741 375.575 388.881 376.163C390.323 376.561 391 378 391 378C391 378 389.661 377.318 387.522 377.357C386.099 377.383 384.435 377.562 384.071 377.245Z" fill="#111107"/>
</svg>
