<svg width="138" height="54" viewBox="0 0 138 54" fill="none" xmlns="http://www.w3.org/2000/svg">
<path fill-rule="evenodd" clip-rule="evenodd" d="M30.1901 34.2683C30.5271 34.6496 30.4605 35.1436 30.035 35.4253C29.8284 35.5621 29.5961 35.6277 29.3555 35.6647C28.8964 35.7346 28.4364 35.738 27.9733 35.6937C27.3894 35.6378 26.8042 35.5856 26.2181 35.5588C25.5707 35.5288 24.9311 35.6287 24.2938 35.7364C23.9903 35.7877 23.6884 35.8552 23.3786 35.857C23.2614 35.8576 23.1436 35.8579 23.0294 35.8234C22.9766 35.8072 22.9335 35.7813 22.9427 35.7163C22.9503 35.6641 22.99 35.647 23.0364 35.6403C24.1878 35.4751 25.3264 35.1949 26.505 35.2709C26.886 35.2956 27.2627 35.356 27.6427 35.3844C28.2282 35.4284 28.8137 35.473 29.3973 35.3634C29.5875 35.3277 29.7652 35.2614 29.9138 35.1338C30.1638 34.9192 30.1736 34.6383 29.9395 34.4075C29.7847 34.2549 29.5912 34.1652 29.3937 34.0846C28.9917 33.9206 28.5713 33.8177 28.1495 33.721C26.8768 33.4288 25.6235 33.0655 24.3673 32.7117C23.57 32.4873 22.7876 32.2108 21.975 32.041C21.2507 31.8899 20.5239 31.8307 19.7891 31.9476C18.859 32.096 18.0751 32.5295 17.4045 33.1809C17.1993 33.3803 16.9954 33.5812 16.7903 33.7808C16.5204 34.0433 16.2213 34.2641 15.8812 34.4304C15.5122 34.6109 15.1495 34.8035 14.7835 34.99C14.7246 35.0199 14.6642 35.0471 14.6025 35.0703C14.4401 35.1308 14.3861 35.1152 14.2918 34.9665C14.0833 34.6383 13.8897 34.3013 13.71 33.9563C12.9474 32.495 12.4389 30.9512 12.1821 29.3216C12.0158 28.2656 11.9618 27.2039 12.0268 26.1409C12.2221 22.9498 13.3067 20.0896 15.318 17.6016C17.4759 14.9323 20.2385 13.2007 23.5767 12.3954C25.0285 12.0455 26.5044 11.9341 27.9901 12.0364C31.1562 12.254 33.9908 13.3521 36.449 15.3618C39.2073 17.6163 40.9552 20.5009 41.6912 23.9902C41.9333 25.1365 42.0349 26.2984 41.9894 27.4689C41.8524 31.0128 40.6457 34.1474 38.319 36.8281C36.1639 39.3112 33.4664 40.913 30.2588 41.6408C28.7532 41.9824 27.2276 42.0771 25.6879 41.9388C22.7373 41.6741 20.0962 40.6261 17.7573 38.8115C17.6761 38.7486 17.5919 38.6882 17.5186 38.617C17.3776 38.48 17.4005 38.3493 17.5833 38.2834C18.1899 38.0636 18.7952 37.8355 19.4408 37.7583C19.9918 37.692 20.5382 37.736 21.0813 37.8477C21.987 38.0343 22.8673 38.3151 23.7584 38.5557C24.4586 38.7446 25.1622 38.9217 25.8808 39.0304C26.5746 39.1351 27.2404 39.0542 27.8674 38.7251C28.5692 38.3569 29.2569 37.9644 29.9416 37.566C30.8104 37.0607 31.6748 36.5488 32.5296 36.02C32.8495 35.8219 33.1437 35.5942 33.4176 35.3371C34.1032 34.6936 34.7625 34.0263 35.3523 33.2917C35.5452 33.0515 35.7534 32.8238 35.9521 32.5884C36.0943 32.4199 36.2268 32.2437 36.3242 32.0447C36.5177 31.649 36.4258 31.3581 36.0275 31.1786C35.6642 31.015 35.2805 30.9191 34.8788 30.9078C34.5906 30.8996 34.3306 30.993 34.079 31.1197C33.6779 31.3218 33.311 31.5779 32.9526 31.8466C32.3833 32.2739 31.8174 32.7053 31.2469 33.1306C30.8403 33.4337 30.4093 33.6987 29.9572 33.9286C29.9382 33.9383 29.9227 33.9548 29.9169 33.9594C30.0155 34.0711 30.1028 34.1697 30.1901 34.2683Z" fill="#252C32"/>
<path fill-rule="evenodd" clip-rule="evenodd" d="M36.9966 52C36.8945 51.9874 36.8605 51.9219 36.8194 51.8723C35.2719 50.0122 33.7843 48.1085 32.4406 46.1006C32.2548 45.8225 32.0991 45.5294 32.0362 45.1958C31.9454 44.7135 32.0218 44.2622 32.3074 43.8586C33.0224 42.8471 34.534 42.6152 35.5013 43.7861C35.6933 44.0183 35.8184 44.2826 35.8945 44.5719C36.0941 45.3317 36.2279 46.1041 36.3566 46.8773C36.5482 48.03 36.7071 49.1874 36.8528 50.3464C36.908 50.7877 36.951 51.2305 36.995 51.6727C37.0052 51.7762 36.9966 51.8814 36.9966 52Z" fill="#252C32"/>
<path fill-rule="evenodd" clip-rule="evenodd" d="M2 17C2.26076 17.0198 2.46863 17.0285 2.67463 17.0525C3.90657 17.1936 5.1354 17.3619 6.36019 17.5578C7.42223 17.7274 8.48645 17.8895 9.52951 18.1651C10.108 18.3179 10.5611 18.648 10.8287 19.22C11.3138 20.2568 10.7671 21.8853 9.20962 21.9949C8.78113 22.0251 8.38096 21.9203 8.00848 21.692C7.35688 21.2929 6.74044 20.8392 6.12867 20.379C4.89829 19.4535 3.69155 18.4959 2.515 17.4974C2.34914 17.3567 2.17301 17.2254 2 17Z" fill="#252C32"/>
<path fill-rule="evenodd" clip-rule="evenodd" d="M27.0092 54C26.8665 53.7072 26.7963 53.4347 26.7185 53.1666C26.1497 51.2055 25.6256 49.233 25.1962 47.237C25.1175 46.8706 25.0453 46.5 25.0099 46.1275C24.9062 45.0381 25.6299 44.1618 26.6963 44.0201C28.2355 43.8159 29.1462 45.2075 28.9807 46.3544C28.8142 47.5109 28.5271 48.6416 28.2404 49.7723C27.9209 51.0319 27.5799 52.2864 27.1913 53.5275C27.1446 53.6763 27.1039 53.8277 27.0092 54Z" fill="#252C32"/>
<path fill-rule="evenodd" clip-rule="evenodd" d="M16.0368 2C16.3237 2.28782 16.5579 2.58598 16.795 2.88131C18.0453 4.43818 19.2748 6.01007 20.3968 7.65932C20.52 7.84066 20.6374 8.02701 20.7433 8.21868C21.2361 9.11095 21.0041 10.1006 20.178 10.6537C19.3345 11.2181 18.2654 11.0815 17.5907 10.3249C17.3696 10.0768 17.2105 9.79966 17.1219 9.48052C16.9445 8.84161 16.8229 8.19174 16.7154 7.53968C16.5697 6.65743 16.427 5.77455 16.3076 4.88885C16.1889 4.01005 16.0615 3.13186 16.0083 2.24617C16.0041 2.17445 15.981 2.09991 16.0368 2Z" fill="#252C32"/>
<path fill-rule="evenodd" clip-rule="evenodd" d="M44.984 46C44.8679 45.9679 44.7646 45.9073 44.6598 45.8513C43.6495 45.3106 42.6622 44.7289 41.6801 44.1382C40.8267 43.6248 39.9771 43.1054 39.158 42.5378C38.993 42.4235 38.8299 42.3054 38.6748 42.1783C38.0959 41.7048 37.8678 40.9836 38.0753 40.3029C38.298 39.5734 38.9112 39.0519 39.6518 39.0045C40.2707 38.9652 40.8109 39.1826 41.2241 39.6507C41.6435 40.1254 41.9674 40.6723 42.3026 41.2091C43.2087 42.6604 44.066 44.1406 44.8667 45.6537C44.9167 45.7484 44.9566 45.8492 44.9992 45.9478C45.0031 45.9571 44.9923 45.9727 44.984 46Z" fill="#252C32"/>
<path fill-rule="evenodd" clip-rule="evenodd" d="M51 36.9941C50.7395 37.0146 50.5245 36.9769 50.3114 36.9516C48.2902 36.7108 46.2743 36.4308 44.2759 36.0285C43.9824 35.9694 43.688 35.9083 43.4016 35.8212C42.6872 35.6032 42.1843 35.1441 42.0372 34.3611C41.8394 33.3081 42.4429 32.2379 43.5456 32.0348C44.1042 31.9321 44.6118 32.0608 45.0894 32.3659C45.7151 32.7658 46.3164 33.2025 46.91 33.6512C48.1943 34.6223 49.4583 35.6211 50.6813 36.6751C50.7838 36.7635 50.8891 36.8496 51 36.9941Z" fill="#252C32"/>
<path fill-rule="evenodd" clip-rule="evenodd" d="M8 46C8.08825 45.7697 8.19266 45.5907 8.29287 45.4099C9.21308 43.7464 10.1832 42.112 11.2246 40.5198C11.4241 40.2147 11.6273 39.911 11.8669 39.6346C12.1323 39.3286 12.4607 39.1238 12.8628 39.0365C13.8632 38.8189 14.9285 39.6029 14.9949 40.6181C15.0392 41.2978 14.7962 41.8665 14.2611 42.2955C13.6669 42.7716 13.0136 43.1631 12.3653 43.5606C11.1235 44.3217 9.86225 45.0495 8.57707 45.7361C8.40237 45.8296 8.23304 45.9368 8 46Z" fill="#252C32"/>
<path fill-rule="evenodd" clip-rule="evenodd" d="M26.9999 0C27.1202 0.254667 27.1872 0.50477 27.2596 0.751937C27.8488 2.76156 28.3871 4.7839 28.8219 6.83167C28.9192 7.29079 29.0238 7.75121 28.9952 8.22696C28.9501 8.98086 28.4605 9.62388 27.7355 9.87562C26.5563 10.2848 25.3746 9.65225 25.0625 8.44837C24.9512 8.01827 25.0073 7.59339 25.0857 7.16786C25.3806 5.56518 25.8034 3.99218 26.2331 2.42113C26.4317 1.69593 26.633 0.971388 26.8751 0.25858C26.9023 0.178691 26.9163 0.0919542 26.9999 0Z" fill="#252C32"/>
<path fill-rule="evenodd" clip-rule="evenodd" d="M8 8C8.13077 8.01617 8.19763 8.05991 8.26508 8.09705C10.2218 9.16758 12.1431 10.2986 13.9851 11.563C14.1555 11.6801 14.3211 11.8044 14.4676 11.9529C15.0537 12.5475 15.1658 13.3802 14.7546 14.0907C14.3315 14.821 13.5357 15.1541 12.7452 14.9321C12.2987 14.8069 11.933 14.5634 11.6532 14.1863C11.1786 13.5471 10.7618 12.8695 10.3496 12.189C9.63635 11.0118 8.95146 9.81787 8.30384 8.60266C8.20384 8.41485 8.11213 8.22285 8 8Z" fill="#252C32"/>
<path fill-rule="evenodd" clip-rule="evenodd" d="M2 36.9973C2.03103 36.8841 2.10908 36.8437 2.16957 36.7917C3.25688 35.8621 4.38902 34.992 5.52931 34.1329C6.36023 33.5066 7.19178 32.8816 8.07599 32.3342C8.36936 32.1527 8.68123 32.0312 9.02884 32.0052C9.8817 31.9414 10.5537 32.4747 10.8493 33.1847C11.1881 33.9986 10.9439 34.9064 10.2346 35.483C10.0206 35.6571 9.78516 35.788 9.51811 35.8633C8.80536 36.0641 8.07818 36.1895 7.35069 36.3142C6.222 36.5079 5.0883 36.6666 3.95272 36.8103C3.38477 36.8821 2.81494 36.9367 2.24574 36.9963C2.17145 37.004 2.0956 36.9973 2 36.9973Z" fill="#252C32"/>
<path fill-rule="evenodd" clip-rule="evenodd" d="M0 27.0125C0.119135 26.9233 0.241861 26.8998 0.357406 26.8633C1.33758 26.5537 2.3295 26.2867 3.32306 26.0258C4.51344 25.7128 5.70675 25.4111 6.91312 25.1654C7.24343 25.0981 7.5744 25.0285 7.91059 25.0052C8.87575 24.9393 9.66694 25.5006 9.92088 26.42C10.1807 27.3623 9.78771 28.2857 8.93222 28.7443C8.43935 29.0086 7.92136 29.048 7.37823 28.9532C5.97831 28.7092 4.60417 28.3527 3.23102 27.9903C2.25998 27.734 1.29156 27.4674 0.335211 27.1581C0.2275 27.1233 0.112934 27.0991 0 27.0125Z" fill="#252C32"/>
<path fill-rule="evenodd" clip-rule="evenodd" d="M16.0059 51.9797C15.9913 51.8013 16.0059 51.6227 16.0255 51.4456C16.166 50.1837 16.3398 48.9256 16.5386 47.6713C16.7068 46.6103 16.8731 45.5487 17.1412 44.5049C17.2489 44.086 17.4516 43.7212 17.79 43.4305C18.7482 42.6064 20.58 42.9787 20.936 44.4342C21.0661 44.9664 21.0007 45.4799 20.714 45.9598C20.3317 46.6 19.8892 47.2017 19.4415 47.7993C18.4498 49.1237 17.4246 50.4234 16.3453 51.6834C16.2519 51.7919 16.1511 51.8946 16.0538 52C16.0378 51.9931 16.0219 51.9862 16.0059 51.9797Z" fill="#252C32"/>
<path fill-rule="evenodd" clip-rule="evenodd" d="M37 2C36.9922 2.4365 36.9351 2.83772 36.8861 3.23862C36.7674 4.20654 36.6346 5.1729 36.4821 6.13645C36.3085 7.23301 36.1388 8.3305 35.8744 9.41176C35.7874 9.76708 35.6521 10.1005 35.3971 10.3766C34.9023 10.9127 34.279 11.0994 33.5593 10.9507C32.8117 10.7968 32.3091 10.3594 32.0913 9.64906C31.9229 9.09953 31.9885 8.56499 32.2789 8.06229C32.5826 7.53712 32.9389 7.04442 33.3003 6.55577C34.4087 5.05862 35.5558 3.58988 36.7813 2.17922C36.8339 2.11834 36.8786 2.04559 37 2Z" fill="#252C32"/>
<path fill-rule="evenodd" clip-rule="evenodd" d="M45 8C44.9793 8.1611 44.9139 8.25527 44.8617 8.3527C44.4012 9.21504 43.9057 10.0578 43.4029 10.8968C42.8119 11.8823 42.2156 12.8649 41.5619 13.8122C41.4281 14.0062 41.2943 14.2011 41.1354 14.3761C40.7478 14.8028 40.2729 15.0287 39.6819 14.9971C38.8537 14.9523 38.1121 14.2792 38.0159 13.4663C37.9316 12.753 38.1847 12.1631 38.7424 11.7123C39.2845 11.2747 39.8838 10.916 40.4778 10.5521C41.7695 9.76022 43.0834 9.00597 44.4204 8.29051C44.5971 8.19574 44.7789 8.11046 45 8Z" fill="#252C32"/>
<path fill-rule="evenodd" clip-rule="evenodd" d="M51 17.0014C50.8442 17.1886 50.695 17.3046 50.5502 17.4238C48.8525 18.8192 47.1242 20.1723 45.3135 21.4106C44.9957 21.6276 44.6761 21.8462 44.2959 21.9398C43.0215 22.2542 42.1859 21.2783 42.0289 20.3963C41.8394 19.3316 42.6163 18.4292 43.3474 18.1833C43.8608 18.0106 44.393 17.917 44.9227 17.8157C45.9612 17.6177 47.0065 17.4648 48.0528 17.3196C48.9655 17.193 49.8797 17.0748 50.7987 17.002C50.8492 16.9979 50.9001 17.0014 51 17.0014Z" fill="#252C32"/>
<path fill-rule="evenodd" clip-rule="evenodd" d="M54 27.0009C53.5835 27.1709 53.1831 27.2782 52.7855 27.3919C51.061 27.8842 49.3277 28.3418 47.5775 28.7297C47.1418 28.8265 46.7042 28.9129 46.2626 28.9766C45.4167 29.0981 44.6415 28.7413 44.2621 28.0336C43.6632 26.9168 44.0927 25.4865 45.5291 25.0724C45.8758 24.9723 46.2242 24.9882 46.5751 25.0465C48.035 25.289 49.4643 25.6694 50.8935 26.0481C51.8164 26.2926 52.736 26.548 53.6448 26.8422C53.754 26.8774 53.8703 26.8992 54 27.0009Z" fill="#252C32"/>
<path fill-rule="evenodd" clip-rule="evenodd" d="M30.3571 20.9036C30.2789 20.9675 30.2499 21.0628 30.2062 21.1465C29.7313 22.0597 29.2588 22.9742 28.7846 23.8873C28.7215 24.0091 28.6574 24.1315 28.5821 24.2464C28.4808 24.4009 28.2279 24.4295 28.0836 24.31C28.0122 24.2508 27.9826 24.18 28.0102 24.0875C28.0579 23.9276 28.0882 23.7627 28.1454 23.6063C28.5535 22.4858 28.9721 21.369 29.4495 20.2736C29.4952 20.1692 29.5449 20.0659 29.5982 19.9646C29.901 19.3894 30.4064 19.0961 31.0582 19.0045C31.1674 18.9891 31.2601 19.0134 31.3489 19.0709C31.4992 19.1685 31.654 19.2601 31.8004 19.363C31.9322 19.4552 32.0532 19.463 32.1887 19.3705C32.3367 19.2698 32.4955 19.1836 32.6435 19.0829C32.7622 19.002 32.8829 18.9901 33.0236 19.0152C33.6218 19.1222 34.0729 19.4146 34.3449 19.9442C34.5817 20.4058 34.7849 20.8809 34.9717 21.3627C35.29 22.184 35.6089 23.0047 35.9272 23.826C35.9519 23.8896 35.9795 23.9534 35.9933 24.0195C36.0226 24.1605 35.9532 24.2986 35.8276 24.3672C35.7004 24.4365 35.554 24.4163 35.4347 24.3115C35.3695 24.2539 35.3291 24.18 35.287 24.1073C34.9079 23.4518 34.5932 22.7662 34.2512 22.0934C34.0785 21.7535 33.9059 21.4137 33.7316 21.0748C33.6984 21.0106 33.6754 20.937 33.5938 20.8819C33.5448 21.1462 33.5389 21.3926 33.5363 21.6393C33.5281 22.4937 33.4544 23.3471 33.4929 24.2017C33.53 25.0246 33.5771 25.8468 33.6149 26.6697C33.6395 27.2059 33.654 27.7424 33.676 28.2786C33.7063 29.0115 33.7306 29.7444 33.7356 30.4779C33.7372 30.7067 33.6369 30.8533 33.4327 30.9436C33.2107 31.0421 32.9996 31.0097 32.8125 30.8612C32.6895 30.7636 32.6475 30.6239 32.63 30.4785C32.5837 30.0883 32.5376 29.6978 32.4965 29.307C32.364 28.0442 32.2364 26.7808 32.0996 25.5183C32.0805 25.3408 32.0786 25.1564 31.9987 24.9824C31.9293 25.0545 31.9289 25.1388 31.9171 25.2206C31.7734 26.2002 31.6761 27.1845 31.5804 28.1691C31.5064 28.9281 31.4232 29.6862 31.3505 30.4455C31.3015 30.9527 30.7951 31.1239 30.4393 30.8907C30.3302 30.8196 30.2601 30.7271 30.243 30.5956C30.2091 30.3388 30.2216 30.082 30.2302 29.8253C30.2565 29.0395 30.2851 28.2538 30.318 27.4683C30.3542 26.5998 30.4022 25.7317 30.4337 24.8632C30.4627 24.0623 30.4883 23.2611 30.4535 22.4597C30.4321 21.976 30.417 21.4927 30.3966 21.009C30.3953 20.9763 30.414 20.9332 30.3571 20.9036Z" fill="white"/>
<path fill-rule="evenodd" clip-rule="evenodd" d="M19.5544 20.936C19.35 21.2911 19.145 21.6459 18.9413 22.0014C18.5391 22.7028 18.1376 23.4049 17.7354 24.1064C17.7016 24.1658 17.6697 24.2277 17.627 24.2811C17.511 24.4269 17.3181 24.4706 17.1627 24.3927C17.0112 24.3166 16.9577 24.1711 17.0355 23.9832C17.2103 23.5624 17.3917 23.1441 17.5764 22.727C17.968 21.8445 18.3679 20.9655 18.7892 20.0956C18.869 19.9306 18.9561 19.7706 19.0681 19.6229C19.3563 19.242 19.766 19.072 20.2352 19.0029C20.3161 18.9909 20.3755 19.0161 20.4117 19.0852C20.4679 19.193 20.527 19.2998 20.5753 19.4111C20.6657 19.6201 20.7472 19.8329 20.8365 20.0422C20.8779 20.1393 20.9144 20.2398 20.989 20.3304C21.0978 20.2977 21.1152 20.2002 21.1503 20.1239C21.265 19.8753 21.3705 19.6229 21.4809 19.3724C21.5177 19.2892 21.5594 19.2074 21.5975 19.1245C21.6409 19.0305 21.701 18.9969 21.8196 19.0117C22.3815 19.0814 22.8096 19.3332 23.0991 19.8065C23.3153 20.1597 23.4839 20.5331 23.6492 20.9086C24.0445 21.8052 24.4364 22.7031 24.8271 23.6016C24.8846 23.7336 24.9356 23.8691 24.9756 24.0067C25.0325 24.2013 24.9898 24.3097 24.8482 24.3744C24.6799 24.4514 24.514 24.4056 24.3993 24.2425C24.3375 24.1548 24.2846 24.0617 24.2321 23.9687C23.6968 23.0268 23.1629 22.0843 22.6283 21.1421C22.5842 21.0648 22.5392 20.9884 22.4945 20.9114C22.4798 20.9171 22.465 20.9224 22.4499 20.9281C22.4965 21.1971 22.5409 21.4665 22.5898 21.7352C22.7751 22.7522 22.9621 23.7688 23.1487 24.7855C23.2168 25.1564 23.2798 25.5285 23.3571 25.8981C23.3814 26.014 23.3472 26.0517 23.2342 26.0514C23.0604 26.0508 22.8865 26.0514 22.713 26.0524C22.4607 26.0533 22.4587 26.0533 22.4446 26.2824C22.4232 26.6215 22.4062 26.9606 22.3855 27.2997C22.3388 28.0603 22.2905 28.8208 22.2442 29.5814C22.2248 29.8978 22.2074 30.2143 22.1903 30.5308C22.1853 30.6222 22.1633 30.7109 22.1285 30.7945C22.0707 30.9327 21.9399 31.0069 21.7917 30.9969C21.6376 30.9862 21.5315 30.9048 21.5049 30.7417C21.4746 30.5559 21.4641 30.3667 21.451 30.1785C21.3669 28.9588 21.2844 27.7385 21.2009 26.5184C21.1927 26.3981 21.1809 26.278 21.1723 26.1576C21.1631 26.0288 21.0626 26.0574 20.9798 26.052C20.8838 26.0464 20.8336 26.0806 20.8296 26.1793C20.8208 26.4207 20.807 26.6614 20.7889 26.9025C20.7406 27.5496 20.7136 28.1982 20.6726 28.846C20.6341 29.456 20.5888 30.0653 20.5467 30.675C20.5379 30.8026 20.4968 30.9117 20.364 30.9692C20.1698 31.0531 19.9701 30.9607 19.903 30.7511C19.8423 30.561 19.8561 30.3614 19.8429 30.1669C19.7798 29.2253 19.7305 28.2828 19.674 27.3409C19.6517 26.9644 19.6241 26.5879 19.5978 26.2114C19.5869 26.0577 19.5853 26.0558 19.4115 26.053C19.238 26.0502 19.0642 26.0533 18.8904 26.0517C18.6689 26.0498 18.6617 26.048 18.6972 25.8308C18.7602 25.4433 18.8292 25.0564 18.9022 24.6702C19.123 23.5045 19.3474 22.3395 19.5692 21.1742C19.583 21.1006 19.5876 21.0258 19.5965 20.9517C19.5823 20.9463 19.5682 20.9413 19.5544 20.936Z" fill="#FEFEFE"/>
<path fill-rule="evenodd" clip-rule="evenodd" d="M26.5073 28.3878C26.4291 28.5171 26.4357 28.6409 26.4191 28.7518C26.3259 29.3752 26.2422 30.001 26.1534 30.6254C26.1304 30.7861 26.0939 30.9376 25.9285 30.9855C25.7491 31.0373 25.5898 30.9175 25.5746 30.7049C25.5605 30.5148 25.5772 30.3244 25.5944 30.1353C25.6936 29.0538 25.7347 27.9699 25.6945 26.8831C25.6876 26.701 25.6698 26.5198 25.6537 26.3383C25.6393 26.1759 25.5726 26.0567 25.4331 25.9967C25.1384 25.8703 24.9213 25.6264 24.7232 25.3587C24.5358 25.1049 24.3535 24.8455 24.1715 24.5864C24.1022 24.4878 24.0381 24.3835 24.0087 24.258C23.9892 24.1749 24.0004 24.099 24.0636 24.0445C24.1263 23.9901 24.195 23.9943 24.2572 24.0409C24.3086 24.0795 24.3563 24.127 24.3998 24.1769C24.5461 24.3455 24.689 24.5178 24.8345 24.6871C24.9757 24.8511 25.1324 24.9937 25.2963 25.127C25.5085 25.3 25.7373 25.3769 25.9993 25.3264C26.3423 25.2604 26.6862 25.2574 27.0298 25.3287C27.2514 25.3749 27.4521 25.3138 27.6416 25.1782C27.8544 25.0257 28.0401 24.8379 28.2158 24.6349C28.3668 24.4607 28.5143 24.2821 28.6724 24.1165C28.7955 23.9871 28.8794 23.9729 28.9461 24.0376C29.0151 24.1046 29.0197 24.2069 28.949 24.3646C28.905 24.4627 28.8541 24.5584 28.7969 24.6472C28.6071 24.9399 28.4061 25.2224 28.1839 25.4838C28.0091 25.6894 27.8199 25.8752 27.5881 25.9904C27.4381 26.065 27.3728 26.1861 27.3515 26.3709C27.3015 26.8056 27.3173 27.2412 27.313 27.6765C27.3061 28.4383 27.3667 29.1964 27.4058 29.9554C27.4133 30.0977 27.4119 30.2403 27.434 30.3818C27.4539 30.5082 27.4352 30.634 27.4079 30.7581C27.3826 30.8743 27.3308 30.965 27.2253 30.9917C27.1054 31.0221 27.0085 30.9667 26.9343 30.8584C26.8728 30.7683 26.8489 30.6601 26.8334 30.5502C26.7463 29.9323 26.6606 29.3145 26.5752 28.6964C26.5625 28.6033 26.5548 28.5086 26.5073 28.3878Z" fill="white"/>
<path fill-rule="evenodd" clip-rule="evenodd" d="M32.9994 18.0061C33.0176 18.4739 32.6333 18.9899 32.0032 18.9999C31.4478 19.0086 30.997 18.5512 31 17.9924C31.0028 17.4418 31.4466 17.0043 31.9994 17C32.5463 16.9958 33.0194 17.4512 32.9994 18.0061Z" fill="white"/>
<path fill-rule="evenodd" clip-rule="evenodd" d="M20.0001 17.995C20.0013 17.4465 20.445 17.0065 20.9947 17.0001C21.4943 16.9943 21.9937 17.3854 21.9999 18.0035C22.0057 18.5458 21.5473 19.0067 21.0041 18.9999C20.3558 18.992 19.9946 18.4731 20.0001 17.995Z" fill="white"/>
<path fill-rule="evenodd" clip-rule="evenodd" d="M26 24.9925C26.002 24.4356 26.4533 23.9957 27.0119 24C27.4652 24.0036 27.9907 24.3265 27.9999 24.9885C28.0075 25.5594 27.5942 25.9758 27.0012 25.9993C26.4561 26.0208 25.9976 25.5451 26 24.9925Z" fill="white"/>
<path fill-rule="evenodd" clip-rule="evenodd" d="M66 24H64.729V18.1684H62.267V24H61V17H66V24Z" fill="#252C32"/>
<path fill-rule="evenodd" clip-rule="evenodd" d="M68.3454 21.5336V24H67V17H69.5473C69.933 17 70.2774 17.0578 70.5811 17.1733C70.8842 17.2885 71.1413 17.45 71.3525 17.6564C71.5628 17.8631 71.7239 18.1083 71.8344 18.3922C71.9449 18.6757 72 18.9839 72 19.3174C72 19.657 71.9449 19.9632 71.8344 20.2356C71.7239 20.508 71.5628 20.7404 71.3525 20.9327C71.1413 21.125 70.8842 21.2734 70.5811 21.3774C70.2774 21.4818 69.933 21.5336 69.5473 21.5336H68.3454ZM68.3454 20.3653H69.5473C69.7386 20.3653 69.9036 20.3397 70.0429 20.2885C70.1819 20.2373 70.2955 20.1661 70.3839 20.0748C70.4718 19.9833 70.537 19.8733 70.5786 19.7453C70.6206 19.617 70.6414 19.4775 70.6414 19.3269C70.6414 19.1762 70.6206 19.0315 70.5786 18.892C70.537 18.7525 70.4718 18.6291 70.3839 18.5218C70.2955 18.4145 70.1819 18.3285 70.0429 18.2645C69.9036 18.2005 69.7386 18.1684 69.5473 18.1684H68.3454V20.3653Z" fill="#252C32"/>
<path fill-rule="evenodd" clip-rule="evenodd" d="M76.1537 22.5576H73.8418L73.4022 24H72L74.3825 17H75.6043L78 24H76.5978L76.1537 22.5576ZM74.1979 21.3892H75.7979L74.9934 18.7693L74.1979 21.3892Z" fill="#252C32"/>
<path fill-rule="evenodd" clip-rule="evenodd" d="M79 24V17H81.3566C81.7481 17 82.0977 17.0387 82.4059 17.1155C82.7138 17.1923 82.9747 17.3105 83.1892 17.469C83.4031 17.6278 83.5662 17.827 83.6792 18.0673C83.7912 18.3078 83.8476 18.5914 83.8476 18.9183C83.8476 19.0784 83.8281 19.2324 83.7899 19.3797C83.7511 19.5274 83.6927 19.6652 83.6145 19.7932C83.5356 19.9216 83.4362 20.0377 83.316 20.1421C83.1958 20.2461 83.0526 20.3318 82.8864 20.3991C83.0835 20.4503 83.252 20.5284 83.3927 20.6324C83.5325 20.7365 83.6479 20.8572 83.7388 20.9951C83.8296 21.1329 83.8959 21.2829 83.9379 21.4447C83.9792 21.6068 84 21.7726 84 21.9422C84 22.6216 83.7899 23.1346 83.369 23.4808C82.9488 23.8267 82.3504 24 81.574 24H79ZM80.3862 19.9327H81.4121C81.7664 19.9265 82.0298 19.8487 82.2024 19.6997C82.375 19.5507 82.4611 19.338 82.4611 19.0627C82.4611 18.7453 82.3725 18.5172 82.1955 18.3777C82.0182 18.2383 81.7387 18.1684 81.3566 18.1684H80.3862V19.9327ZM80.3862 20.9518V22.8412H81.574C81.7525 22.8412 81.9068 22.8182 82.0362 22.7716C82.1655 22.7253 82.2734 22.661 82.3595 22.5796C82.446 22.4975 82.5097 22.4014 82.5513 22.2911C82.5927 22.1805 82.6138 22.0594 82.6138 21.9278C82.6138 21.7772 82.5952 21.6419 82.5583 21.5218C82.5214 21.4017 82.4633 21.299 82.3851 21.214C82.3062 21.1293 82.204 21.064 82.0778 21.0194C81.9513 20.9744 81.8005 20.9518 81.6248 20.9518H80.3862Z" fill="#252C32"/>
<path fill-rule="evenodd" clip-rule="evenodd" d="M88.7289 17H90V24H88.7289V19.3512L86.2668 24H85V17H86.2668V21.6587L88.7289 17Z" fill="#252C32"/>
<path fill-rule="evenodd" clip-rule="evenodd" d="M96 18.1684H94.1198V24H92.8549V18.1684H91V17H96V18.1684Z" fill="#252C32"/>
<path fill-rule="evenodd" clip-rule="evenodd" d="M100.59 20.9662H98.2293V22.8412H101V24H97V17H100.992V18.1684H98.2293V19.8366H100.59V20.9662Z" fill="#252C32"/>
<path fill-rule="evenodd" clip-rule="evenodd" d="M108 17V24H106.582V18.1684H104.765L104.684 20.1539C104.653 20.8622 104.586 21.4608 104.484 21.9498C104.382 22.4385 104.238 22.8349 104.051 23.1392C103.864 23.4437 103.631 23.6633 103.352 23.7978C103.072 23.9324 102.739 24 102.353 24H102V22.8412H102.188C102.408 22.8188 102.584 22.7611 102.716 22.6682C102.848 22.5753 102.951 22.4263 103.027 22.2212C103.102 22.0161 103.155 21.746 103.187 21.4112C103.218 21.0761 103.245 20.657 103.267 20.1539L103.399 17H108Z" fill="#252C32"/>
<path fill-rule="evenodd" clip-rule="evenodd" d="M110.38 19.5241H111.473C111.863 19.5241 112.214 19.577 112.526 19.6826C112.838 19.7886 113.104 19.9376 113.321 20.13C113.539 20.322 113.707 20.5546 113.824 20.827C113.941 21.0994 114 21.4024 114 21.7355C114 22.0722 113.941 22.3791 113.824 22.6564C113.707 22.9337 113.539 23.1713 113.321 23.3702C113.104 23.5688 112.838 23.7237 112.526 23.8343C112.214 23.9449 111.863 24 111.473 24H109V17H110.38V19.5241ZM110.38 20.6876V22.8412H111.473C111.665 22.8412 111.833 22.8116 111.978 22.7525C112.122 22.6931 112.243 22.6131 112.339 22.512C112.435 22.4112 112.506 22.2931 112.554 22.1585C112.601 22.024 112.624 21.8799 112.624 21.726C112.624 21.5786 112.601 21.4417 112.554 21.3151C112.506 21.1884 112.435 21.0784 112.339 20.9856C112.243 20.8927 112.122 20.8198 111.978 20.767C111.833 20.7141 111.665 20.6876 111.473 20.6876H110.38Z" fill="#252C32"/>
<path fill-rule="evenodd" clip-rule="evenodd" d="M119.991 21.6369C119.969 21.9831 119.899 22.3013 119.781 22.5913C119.664 22.8817 119.501 23.1305 119.294 23.3378C119.086 23.5455 118.834 23.7077 118.539 23.8246C118.243 23.9415 117.906 24 117.527 24C117.135 24 116.782 23.9243 116.47 23.7732C116.157 23.6218 115.892 23.4039 115.675 23.1203C115.458 22.8363 115.291 22.4926 115.175 22.0885C115.058 21.6844 115 21.2315 115 20.729V20.2799C115 19.7778 115.061 19.3239 115.181 18.9182C115.301 18.5128 115.472 18.1682 115.692 17.8842C115.912 17.6002 116.179 17.382 116.493 17.229C116.807 17.0763 117.157 17 117.544 17C117.925 17 118.262 17.0601 118.555 17.1802C118.848 17.3003 119.097 17.467 119.302 17.6807C119.507 17.8944 119.666 18.1487 119.781 18.4435C119.896 18.7383 119.969 19.0587 120 19.405H118.738C118.724 19.2022 118.693 19.023 118.644 18.8668C118.595 18.7109 118.524 18.5799 118.432 18.4739C118.339 18.3678 118.22 18.2876 118.074 18.233C117.928 18.1784 117.752 18.1509 117.544 18.1509C117.118 18.1509 116.8 18.3234 116.592 18.6681C116.383 19.0127 116.279 19.5468 116.279 20.2706V20.729C116.279 21.0817 116.302 21.3906 116.348 21.6557C116.394 21.9208 116.467 22.1422 116.567 22.3201C116.666 22.4977 116.795 22.6312 116.953 22.7204C117.112 22.8092 117.303 22.8536 117.527 22.8536C117.726 22.8536 117.898 22.8286 118.042 22.7785C118.187 22.7287 118.307 22.6533 118.404 22.5517C118.501 22.4504 118.576 22.3233 118.629 22.1703C118.682 22.0176 118.716 21.8397 118.73 21.6369H119.991Z" fill="#252C32"/>
<path fill-rule="evenodd" clip-rule="evenodd" d="M125 18.1684H123.12V24H121.855V18.1684H120V17H125V18.1684Z" fill="#252C32"/>
<path fill-rule="evenodd" clip-rule="evenodd" d="M126 24V17H128.357C128.748 17 129.098 17.0387 129.406 17.1155C129.714 17.1923 129.975 17.3105 130.189 17.469C130.403 17.6278 130.566 17.827 130.679 18.0673C130.791 18.3078 130.848 18.5914 130.848 18.9183C130.848 19.0784 130.828 19.2324 130.79 19.3797C130.751 19.5274 130.693 19.6652 130.614 19.7932C130.536 19.9216 130.436 20.0377 130.316 20.1421C130.196 20.2461 130.053 20.3318 129.886 20.3991C130.084 20.4503 130.252 20.5284 130.393 20.6324C130.532 20.7365 130.648 20.8572 130.739 20.9951C130.83 21.1329 130.896 21.2829 130.938 21.4447C130.979 21.6068 131 21.7726 131 21.9422C131 22.6216 130.79 23.1346 130.369 23.4808C129.949 23.8267 129.35 24 128.574 24H126ZM127.386 19.9327H128.412C128.766 19.9265 129.03 19.8487 129.202 19.6997C129.375 19.5507 129.461 19.338 129.461 19.0627C129.461 18.7453 129.372 18.5172 129.195 18.3777C129.018 18.2383 128.739 18.1684 128.357 18.1684H127.386V19.9327ZM127.386 20.9518V22.8412H128.574C128.753 22.8412 128.907 22.8182 129.036 22.7716C129.165 22.7253 129.273 22.661 129.36 22.5796C129.446 22.4975 129.51 22.4014 129.552 22.2911C129.593 22.1805 129.614 22.0594 129.614 21.9278C129.614 21.7772 129.595 21.6419 129.558 21.5218C129.521 21.4017 129.463 21.299 129.385 21.214C129.306 21.1293 129.204 21.064 129.078 21.0194C128.951 20.9744 128.8 20.9518 128.625 20.9518H127.386Z" fill="#252C32"/>
<path fill-rule="evenodd" clip-rule="evenodd" d="M138 20.6543C138 21.1753 137.927 21.6426 137.782 22.0559C137.637 22.4693 137.433 22.8191 137.17 23.1062C136.907 23.3931 136.592 23.6141 136.224 23.7684C135.857 23.9227 135.452 24 135.01 24C134.568 24 134.163 23.9227 133.795 23.7684C133.427 23.6141 133.11 23.3931 132.844 23.1062C132.578 22.8191 132.371 22.4693 132.223 22.0559C132.074 21.6426 132 21.1753 132 20.6543V20.3547C132 19.8369 132.073 19.3705 132.22 18.9559C132.367 18.5409 132.572 18.1883 132.837 17.8982C133.102 17.6082 133.418 17.3859 133.785 17.2316C134.153 17.0773 134.558 17 135 17C135.442 17 135.847 17.0773 136.214 17.2316C136.582 17.3859 136.898 17.6082 137.163 17.8982C137.427 18.1883 137.633 18.5409 137.78 18.9559C137.926 19.3705 138 19.8369 138 20.3547V20.6543ZM136.529 20.3454C136.529 19.6311 136.397 19.0884 136.132 18.7169C135.868 18.3458 135.49 18.1602 135 18.1602C134.509 18.1602 134.132 18.3458 133.868 18.7169C133.603 19.0884 133.471 19.6311 133.471 20.3454V20.6543C133.471 21.0098 133.505 21.3245 133.575 21.5972C133.644 21.8704 133.744 22.0994 133.875 22.285C134.006 22.4706 134.166 22.6111 134.356 22.7063C134.547 22.8015 134.764 22.8488 135.01 22.8488C135.5 22.8488 135.876 22.6616 136.137 22.2872C136.398 21.9128 136.529 21.3685 136.529 20.6543V20.3454Z" fill="#252C32"/>
<path fill-rule="evenodd" clip-rule="evenodd" d="M66.8863 38H65.5754V36.4213H61.4197V37.9955H60.0756L60 35.3582H60.5205C60.612 35.2878 60.7108 35.1923 60.8165 35.0716C60.9221 34.9512 61.0223 34.7871 61.117 34.58C61.2116 34.3726 61.2927 34.1118 61.3606 33.7972C61.4284 33.4826 61.4701 33.0946 61.4859 32.633L61.6801 30H66.1955V35.3582H67L66.8863 38ZM62.9108 32.633C62.8982 32.9711 62.8704 33.2767 62.8278 33.5501C62.7851 33.8237 62.7315 34.0715 62.6669 34.2931C62.6023 34.5153 62.5283 34.714 62.4446 34.8889C62.3609 35.0638 62.2701 35.22 62.1722 35.3582H64.7754V31.0718H63.0242L62.9108 32.633Z" fill="#252C32"/>
<path fill-rule="evenodd" clip-rule="evenodd" d="M73 30V37H71.5821V31.1684H69.7643L69.6846 33.1539C69.6531 33.8622 69.5859 34.4608 69.4843 34.9491C69.3821 35.4385 69.2377 35.8349 69.0509 36.1392C68.8641 36.4437 68.631 36.6633 68.3516 36.7978C68.0722 36.9327 67.7391 37 67.353 37H67V35.8412H67.1884C67.408 35.8188 67.5839 35.7611 67.7157 35.6682C67.8475 35.5753 67.9513 35.4263 68.0266 35.2212C68.1018 35.0161 68.1552 34.746 68.1867 34.4109C68.2182 34.0761 68.2449 33.657 68.2667 33.1539L68.3986 30H73Z" fill="#252C32"/>
<path fill-rule="evenodd" clip-rule="evenodd" d="M77.6702 37V34.4759H76.5926L75.4311 37H74L75.3735 34.0144C75.0466 33.8188 74.7994 33.5691 74.6314 33.2645C74.4638 32.96 74.3796 32.593 74.3796 32.1634C74.3796 31.8077 74.4351 31.4952 74.5452 31.2261C74.6558 30.957 74.8141 30.7315 75.0201 30.5504C75.2263 30.3692 75.4757 30.2327 75.7691 30.1395C76.0619 30.0466 76.3908 30 76.756 30H79V37H77.6702ZM75.7049 32.2694C75.7049 32.6603 75.7923 32.9439 75.9675 33.1201C76.1427 33.2964 76.4056 33.3846 76.756 33.3846H77.6702V31.1684H76.756C76.3939 31.1684 76.1279 31.2645 75.9588 31.4568C75.7893 31.6492 75.7049 31.9199 75.7049 32.2694Z" fill="#252C32"/>
<path fill-rule="evenodd" clip-rule="evenodd" d="M87 31.1684H84.2593V37H83V30H87V31.1684Z" fill="#252C32"/>
<path fill-rule="evenodd" clip-rule="evenodd" d="M89.3454 34.5336V37H88V30H90.547C90.9327 30 91.2771 30.0578 91.5808 30.1733C91.8842 30.2885 92.141 30.4496 92.3522 30.6561C92.5625 30.8628 92.7236 31.108 92.8341 31.3919C92.9446 31.6757 93 31.9839 93 32.3174C93 32.657 92.9446 32.9632 92.8341 33.2356C92.7236 33.508 92.5625 33.7404 92.3522 33.9327C92.141 34.125 91.8842 34.2734 91.5808 34.3774C91.2771 34.4818 90.9327 34.5336 90.547 34.5336H89.3454ZM89.3454 33.3653H90.547C90.7383 33.3653 90.9033 33.3397 91.0426 33.2885C91.1816 33.2373 91.2952 33.1661 91.3836 33.0745C91.4715 32.9833 91.5367 32.8733 91.5786 32.7453C91.6203 32.617 91.6414 32.4775 91.6414 32.3269C91.6414 32.1762 91.6203 32.0315 91.5786 31.8917C91.5367 31.7525 91.4715 31.6291 91.3836 31.5218C91.2952 31.4142 91.1816 31.3285 91.0426 31.2645C90.9033 31.2005 90.7383 31.1684 90.547 31.1684H89.3454V33.3653Z" fill="#252C32"/>
<path fill-rule="evenodd" clip-rule="evenodd" d="M96.1536 35.5576H93.8416L93.402 37H92L94.3823 30H95.6042L98 37H96.5977L96.1536 35.5576ZM94.1977 34.3896H95.7977L94.9932 31.7693L94.1977 34.3896Z" fill="#252C32"/>
<path fill-rule="evenodd" clip-rule="evenodd" d="M104.96 34.149H104.191V37H102.858V34.149H102.071L100.662 37H99L101.018 33.2452L99.0977 30H100.756L102.195 32.8221H102.858V30H104.191V32.8221H104.84L106.244 30H107.898L106.013 33.2402L108 37H106.333L104.96 34.149Z" fill="#252C32"/>
<path fill-rule="evenodd" clip-rule="evenodd" d="M114.887 38H113.575V36.4213H109.42V37.9955H108.076L108 35.3582H108.521C108.612 35.2878 108.711 35.1923 108.816 35.0716C108.922 34.9512 109.022 34.7871 109.117 34.58C109.212 34.3726 109.293 34.1118 109.361 33.7972C109.428 33.4826 109.47 33.0946 109.486 32.633L109.68 30H114.195V35.3582H115L114.887 38ZM110.911 32.633C110.898 32.9711 110.87 33.2767 110.828 33.5501C110.785 33.8237 110.732 34.0715 110.667 34.2931C110.602 34.5153 110.528 34.714 110.445 34.8889C110.361 35.0638 110.27 35.22 110.173 35.3582H112.775V31.0718H111.024L110.911 32.633Z" fill="#252C32"/>
<path fill-rule="evenodd" clip-rule="evenodd" d="M119.154 35.5576H116.842L116.402 37H115L117.382 30H118.604L121 37H119.598L119.154 35.5576ZM117.198 34.3896H118.798L117.993 31.7693L117.198 34.3896Z" fill="#252C32"/>
<path fill-rule="evenodd" clip-rule="evenodd" d="M127 37H125.734V34H123.266V37H122V30H123.266V32.8366H125.734V30H127V37Z" fill="#252C32"/>
</svg>

